<?xml version="1.0" encoding="utf-8"?>
<!-- Generator: Adobe Illustrator 21.0.2, SVG Export Plug-In . SVG Version: 6.00 Build 0)  -->
<svg version="1.1" id="Layer_1" xmlns="http://www.w3.org/2000/svg" xmlns:xlink="http://www.w3.org/1999/xlink" x="0px" y="0px"
	 viewBox="0 0 422.5 125.6" style="enable-background:new 0 0 422.5 125.6;" xml:space="preserve">
<style type="text/css">
	.st0{fill-rule:evenodd;clip-rule:evenodd;fill:#CBCBCC;}
</style>
<g>
	<path class="st0" d="M280,0c0.1,0,0.1,0,0.2,0c0.1,0.1,0.4,0,0.4,0.3c-0.3,0-0.7,0-1,0C279.6,0.1,279.8,0.1,280,0z"/>
	<path class="st0" d="M280.9,0.9c0,0.3,0.1,0.4,0.1,0.6c-0.6,0-1.3,0-1.9,0C278.8,0.5,280.1,0.9,280.9,0.9z"/>
	<path class="st0" d="M273,1.6c-2,0.2-4.4,0.1-6.5,0.1c0.4-0.4,1-0.2,1.8-0.2C269.8,1.5,271.7,1.1,273,1.6z"/>
	<path class="st0" d="M276.3,2.9c-3.2,0.3-6.7,0-10,0.2c-1.2,0.1-2.2,0.3-3.6,0.2c1.7,0.4,3.6,0.1,5.6,0.2c2.5,0.1,5.2,0.5,7.8,0.4
		c1.2-0.1,2.2-0.2,2.6,0.6c-5.5,0.4-10.6-0.4-15.9-0.1c-1.5,0.1-3.4,0-5.2,0.1c1-1,3.3-0.7,4.8-1.3c0-0.4-0.3-0.4-0.6-0.4
		c0.6-0.5,1.4-0.5,2.5-0.4c3.6,0.2,7.8,0.2,11.5,0.1C275.9,2.8,276.2,2.8,276.3,2.9z"/>
	<path class="st0" d="M278.9,2.5c0.8,0,1.7-0.1,2.2,0.2c-0.5,0.2-1.6,0.1-2.2,0.1C278.9,2.7,278.9,2.6,278.9,2.5z"/>
	<path class="st0" d="M222.8,4.3c-0.3,0.5-0.8,0.2-1.2,0.1c-1-0.2-2.2-0.3-3.2-0.6c0.3-0.3,1-0.1,1.6-0.2
		C220.9,3.5,222.3,3.6,222.8,4.3z"/>
	<path class="st0" d="M279,3.9c0.8,0,1.6,0,2.4,0c0.1,0.2,0.4,0.6,0.4,0.8c-0.8-0.1-1.8-0.1-2.7-0.1C279.1,4.3,278.9,4.2,279,3.9z"
		/>
	<path class="st0" d="M216.3,4.1c-5.3,1-9.2,3.1-13.1,5.4c-2.1,1.2-3.7,2.8-5.3,4.5c-1.2,1.2-2.5,2.2-4.1,3.1
		c-0.6,0.4-1.5,0.8-2.1,1.1c-1.9,0.6-5.2,0.7-7.1-0.1c-0.8-0.3-1.7-1.2-1.9-2.1c-0.2-1.1,0.2-2.4,0.6-3c1.2-1.4,4.3-2.1,5.6-0.5
		c0.8,1.1,0.3,3-0.8,3.6c-1,0.5-2.4,0.3-2.4-0.7c0-0.7,0.7-0.9,1.2-1.1c0.6-0.2,1.4-0.1,1.5-0.7c0.1-0.6-0.7-1.3-0.9-1.4
		c-0.5-0.2-1.3-0.1-1.8,0c-1.5,0.4-2.7,1.7-2.4,3.6c0.4,2.4,5.6,2.5,8,1.6c2.8-0.9,5.3-3.2,7.5-5.5c0.5-0.5,1.1-0.9,1.8-1.5
		c1.2-1,2.4-1.8,3.9-2.6c2.4-1.3,5-3,8.1-3.6C213.7,4.1,215.2,4,216.3,4.1z"/>
	<path class="st0" d="M283,5.9c-2.9,0.2-6.3,0.3-9,0.4c1.2,0.5,2.6,0.3,4.1,0.4c2.1,0.1,4.3,0.3,6.5,0.3
		c-10.3,0.4-21.1,0.1-31.3,0.3c0.5-0.8,1.3-0.5,2.6-0.6c1,0,2.3-0.1,3.3-0.1c4.6,0.1,9.7,1,13.5-0.4c-0.7-0.3-1.4-0.1-2.1-0.2
		c-3.3-0.2-6.9-0.1-10.2-0.1c-1.9,0-3.9,0.2-5.6,0.4c-0.1-0.1,0.4-0.4,0.6-0.6c1.7-1.2,5.1-0.4,8.1-0.4c2.1,0,4.4-0.3,6.3-0.2
		c3.6,0.3,8.2,0.4,12,0.5C282.1,5.7,282.6,5.6,283,5.9z"/>
	<path class="st0" d="M243,6.6c-1.8,0-3.9-0.1-5.6,0.4c2.1,0.3,5.1,0.2,7.1,0.7c-1.9,0.3-4.9-0.1-6.8,0.1c-0.7,0.1-1.2,0.2-1.5-0.5
		C237.5,6.1,241.2,5.4,243,6.6z"/>
	<path class="st0" d="M50.1,6.6c0.9,0.1,2.7,0.5,3.6,0.9c0.7,0.3,1.4,0.9,2.1,1.4c0.7,0.5,1.5,0.9,2.1,1.4c0.7,0.5,1.2,1.3,1.8,1.9
		c0.3,0.3,0.6,0.6,0.9,0.9c0.9,1,1.6,2.1,2.2,3.3c0.4,0.8,0.9,1.6,1.3,2.4c0.5,1.1,0.9,2.3,1.4,3.5c0.4,1.2,0.7,2.6,0.9,3.9
		c0.6,2.9,0.5,5.8,0.6,8.9c0.1,3.4,0.2,6.9-0.9,9.9c-0.2-1,0.1-2.3,0.2-3.3c-0.2,1-0.6,2.1-0.9,3.1c-0.3,1-0.5,2-0.9,3
		c-0.2,0.4-0.5,0.9-0.8,1.4c-0.7,1.3-1.4,2.8-2.1,4.2c-0.8,1.4-1.5,2.7-2.4,3.9c-0.3,0.3-0.5,1-1.1,0.8c0-0.9,0.9-1.3,1.4-2
		c0.8-1.1,1.5-2.7,2.2-4.1c0.3-0.7,0.7-1.4,1.1-2.1c0.3-0.7,0.8-1.4,1.1-2.1c0.5-1.2,0.9-2.7,1.3-4.1c0.6-2.1,1.1-4.4,1.3-6.8
		c0.3-4.3-0.2-8.4-0.9-12.1c-0.5-2.6-1.6-4.9-2.8-7.1c-0.4-0.7-0.6-1.5-1-2.2c-0.5-0.9-1.3-1.8-2-2.5c-0.8-0.8-1.4-1.7-2.2-2.3
		c-0.6-0.5-1.3-0.8-2-1.3c-0.7-0.5-1.3-1-1.9-1.4c-0.3-0.2-0.7-0.2-1.1-0.4C51.8,7.4,51.1,6.8,50.1,6.6z"/>
	<path class="st0" d="M40.4,6.9c-1,0.7-2.4,1.1-3.9,1.3c0-0.1,0-0.2-0.1-0.2c0.2-0.7,1.1-0.7,1.8-0.9C38.8,7,39.7,7,40.4,6.9z"/>
	<path class="st0" d="M77,7.6c1.4-0.3,3.1-0.3,4.8-0.3C80.3,7.5,78.6,7.6,77,7.6z"/>
	<path class="st0" d="M270.3,8.4c-0.2,0.3-0.8,0.2-1.3,0.2c-1.3,0-2.9,0.1-4.3-0.1c-1-0.1-2-0.3-2.9-0.2c-0.5,0.1-1,0.3-1.5,0.4
		c-1.7,0.2-3.3,0-4.9,0.1c-1.5,0.1-3,0.4-4.5,0.4c-0.1-0.2,0.3-0.4,0.5-0.6c0.3-0.3,0.6-0.5,0.9-0.7c5.2,0.4,10.8,0.4,16.5,0.4
		C269.3,8.1,270.2,7.9,270.3,8.4z"/>
	<path class="st0" d="M298.5,8.5c-2.4,0-4.8,0-6.9,0.2c0.5-1.3,2.1-0.9,4.1-0.8C296.7,8,298.2,7.9,298.5,8.5z"/>
	<path class="st0" d="M234,8c0-0.1,0.1,0,0.2-0.1c2,1,3.2,3.1,4.7,4.6c0.5,0.5,1.1,1,1.5,1.5c0.3,0.3,0.4,0.8,0.6,1.2
		c0.2,0.4,0.6,0.7,0.8,1.1c0.5,1,0.9,2.2,1.2,3.3c0.5,1.7,0.8,3.5,0.8,5.7c0,2.7-1,5.5-1.6,7.9c-0.2,0.9-0.3,1.8-0.6,2.5
		c-0.3,1-0.8,2-1.1,3.1c-0.3,1.2-0.3,2.3-0.7,3.4c-0.4-2.2,0.4-4.4,1.1-6.5c0.3-1,0.5-2.1,0.8-3.1c0.8-3.1,1.8-6.2,1.2-10
		c-0.4-3.1-1.6-6.1-3.2-8.3c-0.7-1-1.9-2-2.8-3.2c-0.6-0.8-1.3-1.6-2.1-2.4C234.5,8.5,234.4,8.1,234,8z"/>
	<path class="st0" d="M22.9,8.3c-1,0.6-2.5,0.6-3.2,1.6c-0.4,0.6-0.6,1.5-0.4,2.1c0.2,0.5,0.7,0.7,0.9,1.1c-1.7,0.2-2-2.4-1.1-3.6
		C19.7,8.7,21.6,7.6,22.9,8.3z"/>
	<path class="st0" d="M90.5,8.6C84.7,9,78.1,8.4,72.4,9c2.4-1.2,6.4-0.8,9.8-0.9c1.1-0.1,2.2,0,3.3,0.1C87.4,8.1,89.1,8.2,90.5,8.6z
		"/>
	<path class="st0" d="M283.3,8c-3.3,0.5-7.5,0.2-10.9,0.5c0-0.2-0.4-0.4-0.4-0.5C275.7,8.1,279.5,8,283.3,8z"/>
	<path class="st0" d="M237.3,8.3c2.4,0,5,0.2,7.5,0.4c0.3,0,0.8,0,0.9,0.4c-1.8,0.1-4.3-0.1-6.3,0C238.4,9,237.5,9.2,237.3,8.3z"/>
	<path class="st0" d="M21,10.9c0.8-1,3.2,0.1,3.2-1.6c0-0.4-0.3-0.5-0.3-0.7c0.4-0.2,0.5,0.4,0.8,0.4c0.1,0.9,0.1,1.6-0.5,2.2
		c-0.4,0.4-1.2,0.9-1.5,1C21.8,12.3,20.9,12,21,10.9z"/>
	<path class="st0" d="M33.9,8.8c-0.7,0.5-1.6,0.8-2.4,1.2c-0.7,0.4-1.5,0.9-2.2,1.4c-0.7,0.4-1.4,1-2.1,1.5
		c-1.4,0.8-3.6,2.2-5.6,1.4c0.9-0.6,2.2-0.5,3.1-0.9c2.9-1.3,5.1-3.3,8.3-4.3c0.4,0,0.7-0.1,0.9-0.2C33.8,8.8,33.9,8.8,33.9,8.8z"/>
	<path class="st0" d="M25,20.3c-1.3-0.6-1.7-1.9-2.8-2.6c-0.3,0.6-0.4,1-0.8,1.6c-0.2,0.4-0.5,1.5-0.9,1.5c-0.3,0-0.6-0.7-0.9-1.1
		c-1.1-1.6-2.8-3.4-4.5-4.5c-1-0.7-2.3-1-3.9-1.1c-1.7-0.1-3.2,0.5-4.3,1c-0.8,0.4-1.6,1-2.2,1.5C3,18.3,2.4,22.5,3.8,25
		c0.3,0.5,1.2,1.2,1.8,1.5c0.3,0.2,1.1,0.3,1.1,0.7c0,0.8-1.2,0.1-1.5-0.1c-0.6-0.4-1-0.7-1.5-0.9c-1-1.2-1.7-3.2-1.5-5.4
		c0.1-1.8,1-4,2.5-5.3C5.4,15,6.3,14.4,7.2,14c1.4-0.7,4.4-0.9,6.3-0.4c2,0.6,3.7,2,5,3.5c0.8,0.9,1.6,1.3,2.1,2.5
		c0.3-0.4,0.4-0.9,0.7-1.5c0.2-0.4,0.4-1.3,0.8-1.4c0.6-0.1,1.1,0.7,1.5,1.1c0.5,0.5,0.9,0.9,1.3,1.3c1.1-3,3-5,5.3-7
		c1.6-1.4,3.4-2.6,5.2-3.4c0.1,0,0.1,0,0.2,0C33.6,10,31.9,11.6,30,13c-1.3,1-2.3,2.5-3.3,4c-0.3,0.5-0.7,1-0.9,1.5
		C25.5,19.1,25.6,19.8,25,20.3z"/>
	<path class="st0" d="M288,9.3c0,0.5-0.6,0.3-0.8,0.3c-1,0-2.2-0.1-3.1-0.1c-1.8,0-3.6,0.2-5.5,0.2c-1.4,0-2.7-0.1-4.1,0
		c-0.4,0-0.9,0.1-1.2-0.2c1.9-0.3,4.3-0.2,6.6-0.2c1.5,0,3-0.3,4.4-0.4c0.7,0,1.4,0.1,2,0.1C286.8,9.1,287.5,8.9,288,9.3z"/>
	<path class="st0" d="M93.4,9.9C85.9,9.7,77.7,10.1,70,10c1.9-0.8,4.6-0.4,6.8-0.7c3.1-0.4,7,0.3,10.5,0.2C89.7,9.4,92.1,9,93.4,9.9
		z"/>
	<path class="st0" d="M266.5,9.3c1.2-0.1,2.7,0.1,3.9,0.2c-0.2,0.4-0.8,0.1-1.2,0.1C268.1,9.6,266.9,9.9,266.5,9.3z"/>
	<path class="st0" d="M299.2,9.9c-2.6,0-5.7,0.1-7.9,0c0-0.2,0-0.5,0.1-0.6c1.5,0.1,3.7,0,5.7,0C297.9,9.3,299.1,9,299.2,9.9z"/>
	<path class="st0" d="M259.8,9.6c0.1,0.2,0.2,0.4,0.3,0.6c-3.5,0-6.8-0.3-10.3-0.1c-0.2-0.1,0.4-0.4,0.6-0.5c0,0-0.1-0.1-0.1-0.2
		C253.3,9.7,256.7,9.4,259.8,9.6z"/>
	<path class="st0" d="M246.8,10.2c-1.6,0.1-3.2,0-5.1,0.1c-1.5,0.1-2.6,0.6-3.1-0.5c1.8-0.2,4.5-0.1,6.7-0.1
		C246,9.8,246.7,9.6,246.8,10.2z"/>
	<path class="st0" d="M267.4,10.2c0.9-0.2,1.8,0.2,2.8,0.1c0,0.5-0.6,0.3-0.9,0.4c-0.5,0-1,0.1-1.5,0.1
		C267.5,10.7,267.6,10.3,267.4,10.2z"/>
	<path class="st0" d="M289.4,10.9c-5.1,0.2-10.8,0.1-15.7,0.3c0-0.3,0-0.5-0.1-0.7c2.4,0,4.8-0.1,7.8-0.1
		C284.7,10.5,287.4,10.2,289.4,10.9z"/>
	<path class="st0" d="M299.4,10.7c0,0.1,0,0.3,0,0.4c-2,0-4.8,0.1-7.2-0.1c-0.3,0-0.8,0.1-0.8-0.4c0-0.1,0.3-0.2,0.4-0.2
		C293.9,10.5,297.1,10.7,299.4,10.7z"/>
	<path class="st0" d="M82.3,10.6c-4.6,1.1-10.6,0.4-15.7,1c0.6-0.3,1.3-0.8,1.9-0.9c0.5-0.1,1.1,0.1,1.6,0.1
		C73.9,10.8,78.4,10.6,82.3,10.6z"/>
	<path class="st0" d="M88.2,10.8c0.7-0.1,2-0.1,3.2,0c1.7,0.1,3.4-0.1,4.2,0.6c-2.3,0.2-4.9,0.2-6.9-0.2
		C88.5,11.1,88.5,10.7,88.2,10.8z"/>
	<path class="st0" d="M260.2,11.1c0,0.2,0,0.5,0,0.7c-1.5-0.2-2.8-0.7-4.3-0.6c-0.6,0-1.1,0.2-1.7,0.3c-1.9,0.2-3.9-0.2-5.9,0
		c0.3-0.7,1.6-0.5,2.4-0.5C253.7,10.8,257.2,11.2,260.2,11.1z"/>
	<path class="st0" d="M247.5,11.5c-1.7,0.1-3.9-0.1-5.6,0c-0.8,0-1.8,0.3-2.2-0.4c2.2-0.2,5.5,0.2,7.4-0.1
		C247.3,10.9,247.5,11.1,247.5,11.5z"/>
	<path class="st0" d="M267.8,11.3c0.5,0.1,1.3,0,1.8,0.1c-0.1,0.3-0.3,0.5-0.5,0.7c-0.5,0-0.8-0.1-1.2-0.1
		C267.9,11.8,267.9,11.5,267.8,11.3z"/>
	<path class="st0" d="M299.3,12.2c-0.2,0.5-0.9,0.3-1.4,0.3c-7.8,0-16.1-0.3-24-0.2c0-0.2-0.2-0.7,0-0.8c3-0.2,6.8,0.2,10,0.2
		c1.5,0,2.9-0.1,4.4,0c3.6,0.2,7,0,10,0.2C298.6,12,299.1,11.8,299.3,12.2z"/>
	<path class="st0" d="M76.3,12c-1.1,0.9-2.7,0.8-4.8,0.8c-2.2,0-4.6,0-6.8,0.1c-0.1-0.1,0.7-0.7,0.9-0.8c1-0.3,2.6-0.1,3.8-0.2
		C71.7,11.8,74.2,12.1,76.3,12z"/>
	<path class="st0" d="M90.5,13c-2.6-0.2-6-0.5-8.8-0.1c1.7,0.4,3.6,0.1,5.5,0.3c0.9,0.1,1.7,0.3,2.6,0.4c1.5,0.1,2.9,0,3.9,0.6
		c-0.9,0.2-2.3-0.1-3.1,0.2c0.2,0.2,0.7,0.1,1.2,0.2c0.3,0,1,0.2,1.2,0.1c-0.6,0.2-1.9-0.1-2.7-0.1c-0.8,0-1.9,0.2-2.5,0.2
		C83,15.3,78,14.7,73.4,15c0.7-0.9,2.2-0.6,3.8-0.6c3.8,0,7.8-0.1,11.7-0.1c-4.1-0.7-8.6-0.7-13.3-0.5c0.8-0.6,2.2-0.5,3.2-0.9
		c0.3-0.1,0.3,0.2,0.6,0.1c0.3-0.1,0.4-0.4,0.6-0.5c0.5-0.2,1.2-0.2,1.8-0.2c0.9-0.1,1.7-0.3,2.6-0.2C86.6,12.1,88.9,12.7,90.5,13z"
		/>
	<path class="st0" d="M97.7,13.5c-2.3,0.2-3.4-0.8-5.1-1.2c1.1,0,2.5-0.4,3.6-0.1C96.8,12.2,97.4,13.1,97.7,13.5z"/>
	<path class="st0" d="M240.7,12.5c3.7-0.1,7.6,0,11.4-0.1c0.2,0.1-0.5,0.4-0.6,0.5c-3.3-0.1-7.1,0.3-10.4,0
		C240.9,12.8,240.8,12.6,240.7,12.5z"/>
	<path class="st0" d="M46.9,29.6c-0.3,0.3-0.7,0.6-0.6,1.2c0.1,0.5,0.5,0.8,1,0.9c1.1,0.4,1.6,0.4,2.5,0c2.6-1.2,3.8-2.7,3.9-6.5
		c0-1.1,0.2-2.3,0.1-3.1c-0.1-0.9-0.6-2-0.9-2.9c-0.5-1.5-1.2-2.1-2.3-3.3c-1.1-1.1-2.3-1.9-3.9-2.4c-2.2-0.6-5.5,0.6-6.9,1.4
		c-0.9,0.5-1.7,0.9-2.4,1.6c-0.3,0.3-0.6,0.7-0.9,1.1c-0.3,0.3-0.8,0.6-1.1,0.9c-0.3,0.4-0.6,1-0.9,1.6c-0.3,0.6-0.7,1.1-0.9,1.6
		c-1.2,3.1-0.1,7.5,1.4,9.3c0.6,0.7,1.3,0.9,1.9,1.5c-2-0.2-2.9-1.4-3.7-2.8c-0.8-1.6-1.3-5.7-0.5-8c0.2-0.6,0.6-1.3,0.9-1.9
		c0.8-1.5,1.8-2.6,3-3.7c2-1.8,4.9-3.2,8.2-3.5c1.8-0.1,3.1,0.4,4.3,1.1c0.9,0.5,1.8,1.4,2.6,2.2c0.9,0.9,1.4,1.6,1.9,2.9
		c0.2,0.5,0.3,1.1,0.5,1.6c0.2,0.6,0.4,1.1,0.5,1.6c0.2,1.3-0.1,3.1-0.2,4.5c-0.2,2.7-1.3,4.4-3.3,5.5c-2,1.1-4.5,1.4-5.6-0.6
		c0.1-0.7-0.1-1.4,0.1-2c0.4-1,2.4-1.7,3.2-0.7c0.7,0.9,0,2.2-1,2C47.3,30.5,47,30.2,46.9,29.6z"/>
	<path class="st0" d="M298.8,13.3c-0.1,0.7-0.9,0.5-1.4,0.5c-4.1-0.1-8.5-0.4-12.8-0.4c-4.9,0-10-0.2-14.5,0.1
		c0.7-0.2,1.2-0.7,2-0.8c1-0.1,2.2,0.1,3.3,0.2C282.8,13.3,291.5,13,298.8,13.3z"/>
	<path class="st0" d="M267.9,13c0-0.1,0.3,0,0.5-0.1C268.3,13.1,268.1,13.1,267.9,13z"/>
	<path class="st0" d="M73.2,13.5c-0.7,0.6-2.9,0.6-4.2,0.6c-0.8,0-1.7,0-2.5,0c-1.2-0.1-2.4,0-3.3-0.2c0.5-0.6,1.9-0.4,2.8-0.5
		C68.2,13.3,70.9,13.6,73.2,13.5z"/>
	<path class="st0" d="M250.5,13.9c-0.9,0.4-2,0.2-3,0.3c-1.4,0.1-2.8,0.5-4.3,0.3c1.7,0.8,4.4,0.1,6.5,0.4c-0.1,0.3-0.3,0.5-0.4,0.8
		c-2-0.6-4.4,0.1-6.8,0c-0.2-0.6-0.6-1-0.8-1.6C244.7,14,247.5,14,250.5,13.9z"/>
	<path class="st0" d="M283.5,14.6c0,0.3-0.5,0.2-0.6,0.2c-1.4,0.1-3-0.1-4.4-0.1c-3.1,0-6.3,0.2-9.5,0.2c0-0.2,0.4-0.9,0.8-1
		c0.1,0,0.3,0.1,0.4,0.1c0.9,0,1.9-0.1,2.9,0c3,0.2,6.6,0.3,9.7,0.4C282.9,14.3,283.5,14.1,283.5,14.6z"/>
	<path class="st0" d="M258.1,14.5c-1.6,0.2-3.5,0.1-5.3,0.2C254,13.9,256.7,13.8,258.1,14.5z"/>
	<path class="st0" d="M96.7,14.2c0.5-0.1,1.5-0.2,1.6,0.3C97.7,14.4,96.9,14.6,96.7,14.2z"/>
	<path class="st0" d="M214.5,23.7c-0.5-0.3-0.7-1-0.8-1.5c-0.7-3.5,1.3-5.9,3.5-7.2c1.3-0.7,3.5-1.2,5.3-0.7
		c0.4,0.1,1.3,0.7,1.9,1.1c1.2,0.9,2.4,1.9,3.1,3.3c1.5,2.9,1.7,7.8,0.5,11c-0.5,1.4-1.5,3.1-2.6,3.8c-1,0.6-3.2,1.1-4.2,0.3
		c-0.6-0.4-1-1.7-0.8-2.9c0.1-0.7,1.1-2.2,2.2-1.5c1,0.7-0.5,3.4,1.4,3.5c0.9,0,2.4-1.4,2.9-2.1c1.8-2.8,1.7-8.8,0.2-11.8
		c-0.8-1.5-2.2-2.7-3.8-3.6c-0.8-0.5-2.5-0.8-3.9-0.5c-0.5,0.1-1,0.4-1.5,0.6C215.2,16.8,213.2,19.8,214.5,23.7z"/>
	<path class="st0" d="M284.3,14.3c4.6,0.1,9.2,0.2,13.7,0.4c-4.2,0.2-9.1,0.1-13.4,0.1C284.5,14.5,284.3,14.5,284.3,14.3z"/>
	<path class="st0" d="M63.2,14.5c3,0.2,5.4,0.1,8.3,0c-0.2,0.1-0.4,0.4-0.7,0.5c-1,0.2-3.1-0.2-4.6-0.1C64.9,15,63.3,15.6,63.2,14.5
		z"/>
	<path class="st0" d="M334.9,14.9c-0.3,2.4-1,4.9-1.4,7.4c-0.4,2.6-0.6,5.2-0.9,7.9c-1,10.8-0.5,22.8-1,34.3
		c-0.2,4.8-0.3,10.6,1.2,14.1c0.2,0.5,0.6,1,0.5,1.5c-1.2,0.3-2.7,0.2-4.1,0.2c-2.8,0-5.3,0-8.2,0.2c-0.8,0-3.4,0.4-3.7-0.1
		c-0.2-0.3,0.4-1.1,0.5-1.5c2.3-5.8,2.3-14,2.6-21.4c0.3-8.2,0.6-16.9,0.6-25.5c0-2.9,0-5.8-0.1-8.6c-0.1-2.8-0.9-5.4-0.8-7.9
		c1.8-0.5,4.1-0.3,6.3-0.4c2.3-0.1,4.6-0.2,6.6-0.4C333.8,14.7,334.4,14.6,334.9,14.9z"/>
	<path class="st0" d="M259.7,15.9c-2.7-0.4-6-0.2-8.9-0.1c0.3,0,0.8-0.7,1.2-0.7c1.2,0.1,2.9,0.2,4.5,0.2
		C257.8,15.3,259.3,15,259.7,15.9z"/>
	<path class="st0" d="M97.8,15.1c0.3,0,0.5,0,0.8,0c0.1,0.2,0.1,0.5-0.1,0.6C98.2,15.6,98,15.3,97.8,15.1z"/>
	<path class="st0" d="M268.6,15.4c5,0.1,10.2,0,15,0.5c-0.1,0.3-0.6,0.2-0.8,0.2c-4.7,0.1-9.8-0.1-14.5,0
		C268.5,15.9,268.4,15.5,268.6,15.4z"/>
	<path class="st0" d="M315,15.7c-0.1,2-0.5,4.1-0.9,6.2c-0.4,2.1-0.6,4.3-0.7,6.5c-0.4,8.9-0.9,18.5-0.9,28c0,8.2-0.7,16.3,1.3,22.6
		c0.2,0.6,0.6,0.9,0.6,1.5c-0.6,0.3-1.3,0.2-1.9,0.3c-2.1,0.2-3.9,0.4-5.9,0.6c-2.6,0.4-5.3,0.6-7.9,0.4c-0.1-0.4,0.3-0.9,0.5-1.5
		c1.4-3.7,1.5-8.8,1.8-13.6c0.3-5.6,0.5-11.5,0.6-16.9c0.3-8.5,0.6-17.1-0.1-25.3c-0.2-2.7-0.8-5.2-1-7.6c2-0.5,4.2-0.5,6.4-0.6
		c2.2-0.2,4.3-0.6,6.4-0.7C313.8,15.5,314.5,15.4,315,15.7z"/>
	<path class="st0" d="M97.7,16.7c-8.7-0.7-18.3,0.2-26.9,0c0.9-1.1,2.5-0.8,4.6-0.9c4.7-0.1,10.2,0.3,14.8-0.2
		c0.7-0.1,1.9,0.1,2.9,0.1c1,0,2.3-0.1,3,0C96.7,15.8,97.3,16.5,97.7,16.7z"/>
	<path class="st0" d="M286.4,15.8c3.3-0.1,6.9-0.1,10.2,0C293.5,16,289.7,16,286.4,15.8z"/>
	<path class="st0" d="M69.5,15.9c0.1,0.3-0.6,0.7-0.9,0.9c-0.7,0.1-1.4-0.1-2.2-0.1c-0.7,0-1.5,0.3-2,0.2c-0.4-0.1-0.5-0.7-0.6-1.1
		C65.7,16,67.5,15.8,69.5,15.9z"/>
	<path class="st0" d="M249,15.8c0.3,0-0.1,0.2-0.2,0.2c0,0.2,0.1,0.4-0.1,0.8c-1.9,0-3.6,0.2-5.6,0.1c-0.1-0.1-0.1-0.4-0.2-0.5
		C244.9,16.2,247.2,16.3,249,15.8z"/>
	<path class="st0" d="M260.1,16.6c-3.5,0.1-7.1,0-10.6,0.2c-0.1-0.3,0.3-0.4,0.5-0.4c0.8-0.2,2.2,0.1,3,0.1c2,0,5,0,6.6-0.2
		C259.9,16.1,259.9,16.2,260.1,16.6z"/>
	<path class="st0" d="M283.5,16.8c-4.8,0.2-10.5,0.2-15.3-0.2c0-0.1,0-0.2,0.1-0.2C273.4,16.5,278.3,16.8,283.5,16.8z"/>
	<path class="st0" d="M293.9,16.7c-0.5,0.3-1.5,0.1-2.2,0.1C292.4,16.8,293.2,16.8,293.9,16.7z"/>
	<path class="st0" d="M98.9,17.6c-9.8,0.2-19.9,0.1-29.6,0.2c0.5-0.5,1.2-0.2,1.8-0.2c0.7,0,1.4,0,2.1,0c3.6-0.2,7.3-0.2,11-0.3
		c1.3,0,2.7-0.1,3.9-0.1c3.1-0.1,6.1,0.1,9.2,0.1C97.8,17.3,98.6,17.1,98.9,17.6z"/>
	<path class="st0" d="M268.2,17.3c4.3,0.3,9.8,0.5,14.6,0.4c0.2,0,0.5-0.2,0.6,0.1c0,0.4-0.5,0.2-0.7,0.2c-4.8,0-10.1,0.4-14.7-0.1
		C267.9,17.7,268.1,17.5,268.2,17.3z"/>
	<path class="st0" d="M260.4,17.6c0,0.2,0.1,0.3,0.1,0.5c-4.8,0.2-10.6,0.2-15.8,0.3c-0.5,0-1.2,0.1-1.2-0.7
		C249.1,17.7,254.8,17.3,260.4,17.6z"/>
	<path class="st0" d="M67.5,17.6c-0.4,0.7-1.7,0.3-2.5,0.4c-0.1-0.1-0.1-0.3-0.2-0.4C65.7,17.5,66.5,17.6,67.5,17.6z"/>
	<path class="st0" d="M103.3,18.3c-3.6,0.5-7.9,0.4-11.5,0.9c3.7,0.1,7.7,0.2,11.3,0c-0.1,0.5-0.3,0.8-0.6,1.1c-2.8-0.1-6.1,0-9.2,0
		c-1,0-2.2,0.2-3,0.1C90,20.4,90,20.2,89.7,20c-0.1,0.1,0,0.4-0.2,0.4c-4-0.2-8-0.2-12.3-0.3c-1.7,0-3.5-0.4-5.1-0.4
		c-1.7,0-3.3,0.3-4.9,0.3c-0.2-0.2,0.4-0.5,0.6-0.6c7.4,0.1,15.1,0.7,22.2-0.2c-7.1-0.1-14.4-0.4-21.7-0.5c0.4-0.4,1.2-0.3,1.7-0.4
		c2-0.1,4,0.1,6,0.1c5.3,0,10.8-0.1,16-0.1C95.9,18.3,99.7,18.3,103.3,18.3z"/>
	<path class="st0" d="M127.7,18.6c-1.5,0.1-3.2,0.2-4.7,0.4C124.2,18.5,126.3,18.2,127.7,18.6z"/>
	<path class="st0" d="M65.3,18.5c0.4,0.1,0.7,0.1,1.2,0.1c-0.1,0.3-0.7,0.4-0.9,0.5C65.4,19,65.3,18.7,65.3,18.5z"/>
	<path class="st0" d="M283,18.9c-0.3,0.3-1.1,0.2-1.6,0.2c-4,0-8.1,0.2-12.2-0.1C273.4,18.4,278.4,19,283,18.9z"/>
	<path class="st0" d="M260.4,19.1c0,0.6-1,0.3-1.6,0.3c-1.2,0.1-2.7,0.2-3.9,0.2c1.4,0.5,3.8,0.3,5.1,0.6c-0.2,0.4-0.9,0.2-1.4,0.2
		c-1.3,0-2.8,0.1-4.2,0c-1.1,0-2.3,0-3.3,0.1c-1.9,0.1-3.9,0-5.6,0.1c-0.3,0-1.1,0.3-1.1-0.2c-0.1-0.3,0.7-0.1,1-0.1
		c2.2-0.1,5.2-0.2,7.3-0.5c-2.3-0.4-5.3-0.3-7.8-0.3c-0.3,0-0.8,0.1-0.9-0.3C249.2,19,255,18.9,260.4,19.1z"/>
	<path class="st0" d="M129.7,19.5c-2.6,0.5-5.5,0-8.2,0.1c0,0,0-0.1,0.1-0.1C124,19.3,127.2,19.4,129.7,19.5z"/>
	<path class="st0" d="M282.6,20c-0.1,0.7-0.8,0.5-1.4,0.5c-4.2,0-8.8,0.1-12.9-0.1c-0.3-0.2-0.6-0.8-0.4-1.1
		C272.6,20,277.6,20.1,282.6,20z"/>
	<path class="st0" d="M131.1,20.7c-3.3,0.3-7.3,0.1-10.6,0.5c3.1,0.2,6.8,0.3,10,0.4c0.5,0,1.3-0.1,1.8,0.2
		c-4.3,0.3-9.3-0.2-13.3,0.4c0.3-0.6,0.8-1.1,1.2-1.6c2.8-0.4,6.2-0.2,9.4-0.2C130.1,20.4,130.7,20.3,131.1,20.7z"/>
	<path class="st0" d="M182.2,20.3c0.1,0,0.1,0.1,0.2,0.1c1.1,1.7,2.2,3.4,3.9,4.4c0.4,0.2,1.1,0.3,1.2,0.8c-2.5,0.6-5.3,1.5-7.1,3.3
		c-0.5,0.5-0.9,1.1-1.4,1.7c-0.5,0.6-1,1.2-1.3,1.8c-0.8,1.6-1.4,4.7-0.6,6.6c-0.9-0.6-1.1-1.8-1.1-3.2c0.1-2.9,1.9-5.5,3.8-7.3
		c1.5-1.4,3.9-2.4,6.2-3c-1.8-1.2-3.2-2.7-3.9-4.9C182.1,20.4,182.2,20.4,182.2,20.3z"/>
	<path class="st0" d="M105.5,20.6c0.4-0.1,1.2-0.1,1.7,0C106.7,20.7,105.9,20.7,105.5,20.6z"/>
	<path class="st0" d="M77.3,20.9c-2.2,0.5-4.6,0.1-6.8,0.1c-1.4,0-2.7,0.4-4,0.5c-0.1-0.3-0.1-0.6,0-0.9
		C70.1,20.6,73.8,20.5,77.3,20.9z"/>
	<path class="st0" d="M89.2,21.2c-0.5,0.4-1.2,0.1-1.7,0.1c-1.8-0.1-3.7-0.2-5.5-0.1c-0.6,0-1.4,0.1-2,0.1c-0.2,0-0.5-0.2-0.9-0.2
		c-0.1,0-0.7,0-0.6-0.1c0.4-0.1,1,0,1.5-0.1C82.8,20.7,86.3,21.4,89.2,21.2z"/>
	<path class="st0" d="M268.5,21.2C268.5,21.1,268.5,21.1,268.5,21.2c4,0.5,9.1,0,13.3,0.3c-0.4,0.3-1.2,0.2-1.7,0.2
		c-3.2,0.1-6.8,0.3-10,0.4c3.2,0.5,7.2,0.3,10.6,0.5c-0.3,0.5-1,0.4-1.5,0.4c-3.1,0-6.6,0.3-9.5-0.2
		C269.3,22.2,268.9,21.7,268.5,21.2z"/>
	<path class="st0" d="M101.9,21.3c-3.5,0.3-8,0.2-11.3,0c0-0.1,0-0.1,0.1-0.1C94.3,21.2,98.3,21,101.9,21.3z"/>
	<path class="st0" d="M109.2,21.6c-1.9,0-3.5-0.1-5.3-0.2c0,0,0-0.1,0.1-0.1c0,0,0-0.1,0.1-0.1c0.9,0,2.8,0.2,4.2,0.1
		C108.6,21.4,109.1,21.2,109.2,21.6z"/>
	<path class="st0" d="M258.9,21.7c-0.1,0.5-0.6,0.2-0.9,0.2c-1.4,0-3.3,0.1-4.3,0.1C255.2,21.7,257.1,21.7,258.9,21.7z"/>
	<path class="st0" d="M73,21.9c-1.1,0.5-3.7,0.4-5.4,0.5c-0.3,0-0.7,0.2-0.9-0.1C68.5,21.7,70.7,21.8,73,21.9z"/>
	<path class="st0" d="M81.1,21.9c2.4-0.2,4.7,0.1,7,0.2c-2,0.4-4.4-0.1-6.5,0.1C81.4,22.1,81.3,21.9,81.1,21.9z"/>
	<path class="st0" d="M90.8,22c0.2-0.1,0.5-0.1,0.6-0.2c0.3,0.1,2.4,0,1,0.2C92.1,22.1,91.5,22,90.8,22z"/>
	<path class="st0" d="M251.5,22c-0.4,0.3-1.1,0.2-1.6,0.2c-1.7,0-3.7,0-5.3-0.1c0,0,0-0.1,0-0.1c0-0.1,0-0.1,0.1-0.1
		C247,21.9,249.4,21.8,251.5,22z"/>
	<path class="st0" d="M86.3,22.8c-0.8,0.6-2.4,0.1-3.3-0.1c-0.6-0.1,0.7,0,0.9,0.1C84.7,22.8,85.5,22.7,86.3,22.8z"/>
	<path class="st0" d="M110.2,23c-0.1,0.3-0.7,0.2-1.2,0.2c-1.2,0.1-2.8,0.2-3.9,0.4c1.5,0.1,3.2,0.3,4.9,0.3c0.3,0,0.6-0.2,0.7,0.2
		c-0.1,0.3-0.7,0.2-1.1,0.2c-6.3,0-13.5-0.1-19.7,0.2c0.3-0.4,1-0.5,1.6-0.5c3.7-0.3,7.9,0.3,11.5-0.3c-3.6-0.7-8.1-0.3-12.1-0.6
		c-0.1-0.4,0.4-0.3,0.6-0.4c1.4-0.2,3.1,0,4.8,0.1c4.4,0.1,8.7,0.1,13,0.1C109.5,22.9,110,22.7,110.2,23z"/>
	<path class="st0" d="M133,23.2c-5,0-10,0.1-14.7,0.6c-0.1-0.3,0.2-0.8,0.4-1.1c4-0.2,8.1-0.1,12.3-0.1
		C131.7,22.7,132.7,22.5,133,23.2z"/>
	<path class="st0" d="M256.8,22.7c-0.4,0.2-1.1,0.1-1.7,0.1C255.5,22.5,256.3,22.7,256.8,22.7z"/>
	<path class="st0" d="M252.8,24c-2.5-0.2-5.3-0.2-7.9-0.1c0.1-0.4-0.2-0.8,0-1.1c1.6-0.1,3.7,0.1,5.5,0.1c0.6,0,1.4-0.2,1.8-0.1
		C252.5,23.1,252.7,23.7,252.8,24z"/>
	<path class="st0" d="M66.9,23c0.9,0,1.9,0,2.8,0c-0.8,0.5-1.6,0.9-2.4,1.4C67.1,24,67,23.4,66.9,23z"/>
	<path class="st0" d="M279.4,23.7c-2.5,0.3-5.8,0.2-8.2,0.1C273.8,23.7,276.7,23.4,279.4,23.7z"/>
	<path class="st0" d="M133.4,24.4c-4.7,0-9.5,0.5-13.8-0.1c4.1-0.3,8.6-0.2,13-0.1C132.8,24.2,133.2,24.1,133.4,24.4z"/>
	<path class="st0" d="M253,24.9c-2.5,0.2-5.2-0.1-8,0.1c0-0.1-0.1-0.5,0-0.6C247.7,24.5,250.3,24.7,253,24.9z"/>
	<path class="st0" d="M277.4,24.7c-1.1,0.6-3.3,0.1-4.4-0.2c-0.8-0.2,0.5,0,0.8,0C274.7,24.6,276.2,24.7,277.4,24.7z"/>
	<path class="st0" d="M76.7,25.3c-1.9,0.1-3.8,0.2-5.6,0.5c2.1,0.2,4.8-0.1,6.9,0.4c-3.3,0-6.8,0.2-10,0.2c1.2-0.8,3.1-1.2,5-1.4
		C74.3,24.8,75.7,24.9,76.7,25.3z"/>
	<path class="st0" d="M88.3,24.9c7.5,0.1,15.3,0.1,22.5,0.4c0.1,0.6-0.4,0.6-0.8,0.6c-1.3,0.1-2.6,0-3.8,0c-5,0-10.3-0.3-15.3-0.3
		c-0.8,0-2.3,0.4-2.6-0.4C88.2,25.1,88.2,24.9,88.3,24.9z"/>
	<path class="st0" d="M133.7,25.4c0,0.4-0.5,0.1-0.7,0.1c-3.4-0.1-7.5,0-11,0.1c-1.3,0-2.5,0.3-3.6,0.2c0-0.2-0.1-0.2-0.1-0.4
		c4.5-0.5,10.1-0.5,15-0.2C133.4,25.3,133.8,25.1,133.7,25.4z"/>
	<path class="st0" d="M267.1,25.4c-0.7,4.4-1.6,8.5-1.9,13.2c3.6-0.7,7.8-1.1,11.5-2.1c1.2-0.3,2.4-0.6,3.3-1.2
		c0.6-0.4,1-1.8,1.7-1.9c0.9-0.1,1.1,1.2,1.4,1.8c0.3,0.5,0.8,0.9,1.3,1.5c0.5,0.6,0.9,1.2,1.3,1.5c0.4,0.3,0.9,0.4,1.5,0.7
		c0.2,0.1,1.2,0.5,1.1,1.1c0,0.6-1.7,0.9-2.4,1.1c-2.8,0.7-5.9,1.1-8.9,1.5c-4.3,0.6-8.1,1.1-12.1,1.8c-0.4,7.8,0,16.1-0.2,24.1
		c-0.1,5.6-0.2,11.5,0.5,17.1c0.1,0.9,0.3,1.7,0.5,2.5c0.2,0.8,0.6,1.4,0.8,2.1c-2.3,0.6-5,1.1-7.8,1.4c-1.4,0.1-2.9,0.1-4.2,0.4
		c-1.3,0.2-2.6,0.5-3.8,0.5c-0.1-0.6,0.4-0.9,0.5-1.3c2.4-6.2,2.2-15.3,2.3-24.1c0.1-7.2,0.4-14.6,0.1-21.1
		c-0.6-0.2-1.8,0.4-2.5,0.1c-0.5-0.2-0.7-1.3-0.9-1.8c-0.3-0.5-1.1-1.3-1.6-1.6c-0.2-0.1-1.1-0.2-1.1-0.6c-0.1-0.5,1.2-0.8,1.7-0.9
		c1.5-0.3,2.7-0.6,4.3-0.6c0-2.4-0.1-4.7-0.4-6.8c-0.3-2.1-0.7-4.2-0.7-6.3c2-0.7,4.4-0.7,6.6-1.1c2.3-0.3,4.5-0.6,6.6-1
		C266,25.3,266.7,25.2,267.1,25.4z"/>
	<path class="st0" d="M248.5,25.7c-0.5,0.6-2.6,0.2-3.6,0.2c0,0,0-0.1,0-0.1C246,25.4,247.3,25.8,248.5,25.7z"/>
	<path class="st0" d="M13.6,25.9c0.5,0.4,0.9,1.5,1.2,2.4c0.2,0.4,0.7,1,0,1.5C14.2,28.6,13.9,27.3,13.6,25.9z"/>
	<path class="st0" d="M90.1,26.3c2.8,0.1,6,0.2,8.9,0.2c0.2,0.5-0.2,0.8,0.4,0.9c-2.1-0.2-4.8-0.6-7.2-0.4c-0.2,0,0-0.4-0.2-0.4
		C91.4,26.5,90.6,26.5,90.1,26.3z"/>
	<path class="st0" d="M133.9,26.4c-4.4,0.1-9.1,0.3-13.5,0.5c-0.3,0-0.7,0-1,0c-0.2,0-0.7,0.2-0.8-0.2c0.2-0.3,0.8-0.2,1.2-0.2
		c1.3,0,2.6-0.1,4.1-0.1C127.2,26.4,130.5,26.3,133.9,26.4z"/>
	<path class="st0" d="M142,26.5c0.6-0.1,1.6-0.1,2.2,0C143.6,26.6,142.8,26.4,142,26.5z"/>
	<path class="st0" d="M99.7,26.6c3.4,0,7.1,0.1,10.7,0.1c0,0.7-0.7,0.5-1.2,0.4c-2.9-0.2-6.2-0.3-9.1-0.1
		C100,26.9,99.9,26.7,99.7,26.6z"/>
	<path class="st0" d="M247.4,26.6c-0.8,0.4-1.2,1.2-2.5,1.1c0-0.3,0.1-0.5,0.1-0.9C245.7,26.6,246.7,26.7,247.4,26.6z"/>
	<path class="st0" d="M11.1,26.6c-0.3,0.9-1.9,1.2-3.1,1.2c-0.2-0.2,0.1-0.5,0.2-0.6C9.3,27.2,10.4,27.1,11.1,26.6z"/>
	<path class="st0" d="M78.9,27.3c-3.4,0.1-7.2-0.1-10.3,0.2c-0.3,0-0.9,0.3-0.9-0.3c0.5-0.4,1.2-0.2,1.9-0.2c2.6,0.1,5.4-0.1,8-0.1
		C78.1,27,78.8,26.8,78.9,27.3z"/>
	<path class="st0" d="M214.6,29.6c-1,0.6-1.1,2.6-1,4.1c0.2,2.1,1.2,4,2.2,5.5c1.1,1.6,2.5,2.9,3.6,4.1c-1.1-0.2-2-1.1-2.8-1.9
		c-2.1-2.4-4.2-5.7-4.1-10c0.1-2,0.6-3.9,2.6-4.2c0.3,0,0.7-0.1,0.9,0c0.9,0.3,1.4,2.4,0.4,2.9C216,30.3,215,30,214.6,29.6z"/>
	<path class="st0" d="M91.4,27.9c0.3,0,0.2-0.3,0.5-0.3c2.5,0,5.4,0.7,7.6,0.1c0.2,0.2,0.3,0.5,0.5,0.7c-2.1,0.3-4.8-0.4-6.5,0.4
		c2.4,0,4.9,0.4,7.3,0.6c-5.2-0.2-10.6,0-16,0.2c0.1-0.2,0.2-0.5,0.4-0.6c2.1,0,3.9-0.2,5.8-0.4c-1.6-0.2-3.3-0.4-5.1-0.4
		c1-0.7,3.3-0.2,4.5-0.7c-0.7-0.3-1.8-0.2-2.6-0.3C89.2,26.8,90.8,27.1,91.4,27.9z"/>
	<path class="st0" d="M118.8,27.3c4.9,0.2,10.3-0.2,15.2,0.1c-0.1,0.3-0.6,0.2-0.9,0.2c-4.5,0-9.4,0.4-14.1,0.4
		C118.9,27.7,118.7,27.4,118.8,27.3z"/>
	<path class="st0" d="M147,27.4c-3.1,0.2-7.1,0.1-10.2,0.1C140.1,27.2,143.8,27.4,147,27.4z"/>
	<path class="st0" d="M109.9,27.4c0.1,0.5-0.4,0.5-0.9,0.5c-1.6,0.1-3.3,0-4.9,0.1c-0.6,0-1.2,0.2-1.6,0.2c-0.5-0.1-0.8-0.6-1.3-0.6
		C103.8,27.5,107.2,27.9,109.9,27.4z"/>
	<path class="st0" d="M248.2,27.6c0.2,0.2,0.2,0.4,0.1,0.6c-0.3,0-0.5,0-0.8,0C247.7,28,247.8,27.6,248.2,27.6z"/>
	<path class="st0" d="M71.5,28.2c0,0.2-0.1,0.3-0.1,0.5c-1.2,0.1-2.2,0.1-3.5,0.2c-0.1-0.2-0.1-0.4-0.1-0.6
		C69.1,28.3,70.1,28.2,71.5,28.2z"/>
	<path class="st0" d="M79.5,28.4c-2,0.3-4.6,0.1-6.8,0.2c0-0.2,0-0.3-0.1-0.5c1.9,0.1,4.4-0.1,6.2,0C79,28.2,79.4,28.1,79.5,28.4z"
		/>
	<path class="st0" d="M133.9,28.7c0,0.6-1.3,0.3-1.8,0.4c-3.8,0.2-8.3,0.3-12,0.4c-0.3-0.3-0.5-0.6-0.8-0.9
		C123.8,28.5,129.3,28.6,133.9,28.7z"/>
	<path class="st0" d="M103.2,28.6c1.7-0.1,3.5,0.1,5.3,0.1C107.2,29.6,104.4,29.4,103.2,28.6z"/>
	<path class="st0" d="M148.3,28.6c-4.4,0.3-9.1,0.3-13.7,0.4c0.4-0.8,2.5-0.5,3.8-0.5C141.6,28.6,145.4,28.5,148.3,28.6z"/>
	<path class="st0" d="M248,28.9c-0.1,0.5-1,0.3-1.5,0.4C246.2,28.8,247.4,28.8,248,28.9z"/>
	<path class="st0" d="M7.8,28.9c1.3,0.6,2.6,2.6,2.3,4.6c-0.2,1.7-1.9,2.4-4,2.4c-1.9-0.4-1.5-4.8,0.7-4.2c0.6,0.2,1,0.9,1,1.8
		c-0.3,0.6-1.1,0.5-1.6,0.9c0.8,1.1,2.9,0.1,3.2-1.1C9.8,31.5,8.5,29.8,7.8,28.9z"/>
	<path class="st0" d="M68,29.2c1.1,0.1,2,0.1,3.1,0.2c-0.3,1.1-2,0.6-2.9,0.5C68,29.7,68,29.5,68,29.2z"/>
	<path class="st0" d="M79.5,29.3c0,0,0.1,0,0.1,0c0,0.1,0,0.2,0,0.4c-2.3,0.2-5.1,0.2-7.5,0.2c0-0.7,0.9-0.5,1.4-0.5
		C75.3,29.4,77.9,29.4,79.5,29.3z"/>
	<path class="st0" d="M149.2,29.9c-7.3,0.5-16,0-23.6,0.5c-1.1,0.1-2.3,0.3-3.2,0.2c-0.7-0.1-1.2-0.6-1.9-0.7
		c8.4,0.1,18.1,0.1,26.7-0.3C147.8,29.5,149,29.2,149.2,29.9z"/>
	<path class="st0" d="M247.4,29.8c-0.3,0.6-0.9,0.9-1.4,1.4c-0.5,0-1.1,0-1.6,0c0.1-0.3,0.2-0.6,0.2-1
		C245.2,29.8,246.4,29.9,247.4,29.8z"/>
	<path class="st0" d="M84.7,30.1c2.3,0,5.1,0.3,7.5,0.1c2.7-0.2,6,0.2,8.5,0.2c0.9,0,1.5-0.1,1.8,0.5c-6.2,0-12.2,0-18,0.3
		C84.5,30.7,84.5,30.4,84.7,30.1z"/>
	<path class="st0" d="M118.8,30.3c0,0.1-0.3,0-0.5,0.1C118.4,30.1,118.6,30.2,118.8,30.3z"/>
	<path class="st0" d="M14.9,30.8c0.1-0.3,0.5-0.3,0.6-0.5c0,0,0.1,0,0.1,0.1c0.5,2.4,1.2,5.8,1.1,8.6c0,0.5,0,2-0.5,2.1
		c-0.8,0.1-0.3-1.5-0.3-1.7C16.1,36.5,15.4,33.3,14.9,30.8z"/>
	<path class="st0" d="M79.5,30.6c0,0.2-0.1,0.3-0.1,0.6c-2.2-0.3-4.9-0.1-7.4-0.2c0-0.2,0-0.4,0-0.6C74.5,30.6,77,30.5,79.5,30.6z"
		/>
	<path class="st0" d="M149.6,31.1c-0.1,0.4-0.6,0.2-0.9,0.2c-5.9,0.4-12.7,0.1-18.7,0.4c-1.9,0.1-3.9,0.1-5.8-0.1
		c0.1-0.1,0-0.5,0.1-0.6c6-0.1,12.6-0.1,18.7-0.2c1.6,0,3.4,0,5.2,0C148.6,30.8,149.3,30.6,149.6,31.1z"/>
	<path class="st0" d="M43.8,31c0.1,0,0,0.1,0.1,0.1c-0.9,2.3-0.8,5.1,0.8,6.8c1,1.1,2,1.9,3.4,2.6c0.9,0.4,2,0.6,2.9,0.6
		c1.1,0,2.1-0.3,3.2-0.5c0,0.5-0.6,0.8-1,1.1c-1.4,0.9-3,2-5.4,2.1c0.1-0.4,0.6-0.4,1-0.5c1.1-0.4,2.4-1,3.3-1.6
		c-1.8,0.4-3.5-0.2-4.8-0.8c-0.6-0.3-1.2-0.5-1.5-0.8c-0.5-0.4-1.1-1.1-1.6-1.7c-0.6-0.7-0.7-1.3-0.9-2.5c-0.1-0.4-0.3-0.8-0.4-1.2
		C42.5,33.3,43,31.9,43.8,31z"/>
	<path class="st0" d="M407.1,34.4c-1.4,0.4-3.3,0.1-4.7-0.1c-0.6-0.1-1.5-0.1-1.5,0.5c0,0.5,1.5,0.9,2.1,0.9
		c2.1,0.3,4.9,0.2,7.2,0.8c0.5,0.1,1.1,0.4,1.6,0.6c0.5,0.2,1,0.5,1.2,0.9c-0.3,0.4-0.9,0.2-1.4,0.2c-1.4,0-3.2,0.1-4.4-0.1
		c-2.3-0.3-4.4-1.7-7-1.4c0,0.8,1.1,0.7,1.8,0.8c1.7,0.3,4.1,1,4.6,2.4c0.3,0.8,0.2,2.1-0.4,2.5c-0.7,0.5-2,0-2.4-0.5
		c0.2-0.5,0.7-0.5,0.8-1.1c0-1.1-1.7-1.4-2.8-1.7c-0.4-0.1-0.9-0.3-1.4-0.4c-1-0.2-2.2-0.1-3.3-0.2c-3.1-0.2-5.7-0.8-6.5-2.9
		c-0.8,0.6-2.5,0.4-2.7-0.6c-2.8-0.6-6.4-0.6-10-0.8c-1.1-0.1-2.4-0.3-3.3,0c-0.5,0.2-0.6,0.6-1.1,0.8c-1,0.3-1.7-0.3-2.1-0.8
		c-6.4-0.6-13.7-0.2-20-0.2c-0.2-0.3-0.2-0.8-0.1-1.1c2.4-0.8,6-0.5,9.3-0.4c3.4,0.1,6.5,0.1,9.8,0.2c0.3,0,0.8,0.2,1.1,0.1
		c0.5-0.1,0.7-0.9,1.7-0.8c0.7,0.1,0.8,0.7,1.3,0.8c0.3,0.1,0.8,0,1.1,0c3.1,0.1,7.3,0.2,10.6,0.4c0.7,0,1.6,0.2,2.2,0.1
		c0.4-0.1,0.6-0.4,0.9-0.5c0.7-0.1,1,0.3,1.5,0.6c1.4-0.9,2.8-1.6,5.1-1.6c1.5,0,3.1,0,4.4,0.2c1.4,0.2,2.7,0.6,3.9,0.7
		c0.7,0.1,1.4-0.1,1.5-0.4c0.2-0.5-0.6-0.9-0.2-1.4C407.4,30.5,408,33.2,407.1,34.4z"/>
	<path class="st0" d="M119.5,31.1c0.2,0.2,0.4,0.4,0.5,0.6c-0.4,0.2-1.3,0-1.8,0.2c0.1-0.2,0.1-0.5,0.1-0.8
		C118.7,31.2,119,31.1,119.5,31.1z"/>
	<path class="st0" d="M110.6,31.5c0,0.2,0,0.5,0,0.7c-3.2,0-6.8,0.3-9.8,0.1c-0.7,0-1.8,0.2-2.1-0.4c2,0.1,4-0.2,5.8-0.1
		c0.6,0,1.1,0.3,1.7,0.3C107.8,32.2,109.1,31.7,110.6,31.5z"/>
	<path class="st0" d="M79.1,31.8c-0.1,0.3-0.2,0.5-0.4,0.7c-2.2,0.1-4.2-0.2-6.3,0c-0.2-0.3-0.3-0.6-0.4-0.9
		C74.2,31.9,76.7,31.9,79.1,31.8z"/>
	<path class="st0" d="M97.9,31.9c0,0.5-0.6,0.4-0.9,0.4c-3.9,0-8.3-0.1-12,0.4c0.9,0.3,2.3,0,3.6,0.1c2.7,0.1,5.7,0.3,8.6,0.4
		c-0.1,0.6-0.7,0.5-1.2,0.5c-3.6,0-7.8-0.1-11.1-0.1c-0.2-0.6-0.5-1-0.5-1.8C88.7,32,93.4,31.7,97.9,31.9z"/>
	<path class="st0" d="M245.3,31.9c-0.3,0.2-0.6,0.5-1.2,0.5C244,31.8,244.7,31.9,245.3,31.9z"/>
	<path class="st0" d="M124.2,32c5,0.3,10.3,0.2,15.6,0.3c-1.8,0.8-4.9,0.5-7.8,0.5c-2.8,0-5.4-0.1-8-0.1
		C124.1,32.6,123.9,32.1,124.2,32z"/>
	<path class="st0" d="M149.7,32.2c0,0.1,0,0.2,0,0.4c-2.4,0.2-5.6,0.2-8,0.1c0.1-0.7,1.1-0.4,1.8-0.4
		C145.5,32.2,147.9,32.1,149.7,32.2z"/>
	<path class="st0" d="M120.5,32.9c-0.9,0.1-1.8,0.2-2.8,0.2c0.1-0.2,0.3-0.3,0.3-0.6c0.4,0,1,0,1.5,0.1
		C119.9,32.6,120.5,32.5,120.5,32.9z"/>
	<path class="st0" d="M110.5,33.1c-0.1,0.3-0.2,0.4-0.3,0.6c-3,0.2-6.4-0.2-9.3,0.1c0-0.3-0.7-0.3-0.7-0.6
		C103.6,33.4,106.9,33,110.5,33.1z"/>
	<path class="st0" d="M77.9,33.3c-0.8,0.9-3.3,1-4.5,0.4C74.6,33.2,76.1,33.3,77.9,33.3z"/>
	<path class="st0" d="M337.6,33.4c0,0.5,0.4,0.5,0.3,1.1c-0.5,0.5-1.6,0.2-2.6,0.2c-0.6,0-1.2,0.3-1.6,0.1
		C333.7,33,336.2,33.3,337.6,33.4z"/>
	<path class="st0" d="M149.5,33.4c0,0.9-1.3,0.6-2.1,0.6c-1.9,0-4.1-0.1-5.8,0c0-0.2-0.2-0.5,0-0.6C144,33.5,146.9,33.4,149.5,33.4z
		"/>
	<path class="st0" d="M120.7,33.7c-0.2,0.3-0.8,0.2-1.1,0.2c-0.9,0-1.9,0.2-2.8,0.2C117.2,33.4,119.7,33.6,120.7,33.7z"/>
	<path class="st0" d="M138.3,34c-0.1,0.4-0.6,0.2-0.8,0.2c-0.8,0-1.9,0.1-2.8,0.1c-1.4,0-2.9-0.4-4.5-0.4c-2.3,0-4.6,0.1-6.6-0.2
		c0,0,0.1-0.1,0.1-0.1c0-0.1,0-0.1,0.1-0.1c4.3,0,8.5,0.2,12.9,0.2c0.3,0,0.6,0,0.9,0C137.8,33.7,138.3,33.6,138.3,34z"/>
	<path class="st0" d="M85.3,34.3c3.4,0,7.2,0.1,10.8,0.1c-0.1,0.4-0.5,0.3-0.8,0.4c-2.5,0.2-6,0.3-8.5,0.3c-0.2,0-0.6,0.1-0.8,0.1
		C85.6,34.9,85.5,34.4,85.3,34.3z"/>
	<path class="st0" d="M101.1,34.3C101.1,34.2,101.1,34.2,101.1,34.3c1.6,0,3,0.3,4.6,0.4c1.6,0.1,3.2-0.1,4.8,0.1
		c0.5,0,1,0.3,1.5,0.4c1,0.1,2-0.1,3-0.2c1.9-0.2,3.8,0,5.6,0.1c0,0.6-0.9,0.4-1.5,0.4c-4.9,0-10.1,0-14.9,0.2
		c-0.5,0-1.1,0.2-1.5,0.1C102.1,35.4,101.7,34.5,101.1,34.3z"/>
	<path class="st0" d="M34.3,36.5c-1.7,1.5-2.5,4.7-2.3,8.3c0.2,3.4,1.2,6.8,2.8,8.6c2.1,2.3,7.8,2.4,9.7-0.1
		c1.2-1.7,2.2-4.5,1.6-7.5c-0.6,0.1-1.5,0-1.7-0.6c-0.2-0.9,0.4-1.3,1.5-1.2c1.1,0.7,1.2,2.2,1.1,3.5c-0.1,1.4-0.3,2.9-0.8,4.1
		c-0.9,2-2.1,3.5-4.2,4.1c-2.6,0.7-6.1-0.1-7.8-1.8c-0.7-0.7-1.3-1.8-1.8-2.8c-0.5-1-0.8-2.3-1.1-3.5c-0.3-1.3-0.5-2.7-0.5-4.1
		c0.1-1.4,0.1-3,0.4-4.2c0.3-1.8,1.8-4.2,3.6-4.8c1.4-0.5,2.6,1.4,1.8,2.5C36.1,37.4,34.7,37.4,34.3,36.5z"/>
	<path class="st0" d="M319.5,34.5c0.2,0.3,0.5,0.5,0.5,0.9c-0.2,0.4-0.9,0.4-1.4,0.4c-1.3,0.1-2.9,0.3-4.1,0.4
		C313.7,34.1,317.7,34.6,319.5,34.5z"/>
	<path class="st0" d="M141.9,34.6c2,0.1,4.5,0.3,6.9,0.2c0.1,0.3-0.3,0.4-0.6,0.4c-1.1,0.2-3,0.2-4.2,0.2c-0.3,0-0.7,0.1-0.9,0.1
		C142.5,35.4,142.1,34.9,141.9,34.6z"/>
	<path class="st0" d="M122.8,34.7c3.5,0.3,7.5,0.1,10.9,0.5c-3.7,0.2-7.6-0.1-11.2,0C122.3,35.2,122.7,34.9,122.8,34.7z"/>
	<path class="st0" d="M86,35.3c2.6,0.3,5.9,0.1,8.9,0.2c-0.4,0.4-1,0.2-1.5,0.3c-1.8,0.2-3.9,0.4-5.6,0.4c1.6,0.5,3.7,0.4,5.6,0.4
		C91.4,38.1,87.1,37.1,86,35.3z"/>
	<path class="st0" d="M165.7,36c0.2,0.9-0.4,1.7-0.6,2.6c-0.2,0.7-0.2,1.5-0.3,2.3c-0.1,0.8-0.2,1.6-0.2,2.4c0,11-0.6,23.3-0.9,34.5
		c2.6-1.7,5.3-4.8,6.6-8.2c0.4-1.1,0.8-1.8,0.9-3.2c0.1-0.7,0.2-1.4,0.1-2c-0.2-1.5-2-3.4-3.3-1.9c-0.2,0.3-0.2,0.8-0.6,0.9
		c-0.8-0.8-0.3-2.5,0.2-3.2c0.9-1.3,3.6-1.6,5.2-0.9c1.3,0.5,2,1.8,2.5,2.9c1.2-0.8,3.3-1.9,5.4-2.1c1.7-0.2,3.3,0.9,3.9,1.9
		c0.3,0.6,0.6,1.8,0.4,2.9c-0.2,0.8-0.9,2.3-1.5,2.2c-0.5-0.1-0.1-0.7-0.3-1.1c0-0.1-0.4-0.3-0.5-0.4c-1.2-0.4-2.5,1.3-3,2.1
		c-0.2,0.4-0.4,0.9-0.6,1.3c-0.2,0.4-0.5,0.7-0.8,1.1c-0.3,0.5-0.4,1.1-0.7,1.6c-0.3,0.5-0.7,0.9-1,1.4c-0.9,1.4-1.7,3-2.6,4.3
		c-0.7,0.9-1.5,1.6-1.9,2.5c1.1,0.2,2.5,0.1,3.6,0c0.8,1.4,1.6,3,2.2,4.6c0.6,1.5,1.6,3,2.2,4.6c0.3,0.8,0.6,1.7,0.9,2.5
		c0.4,0.8,0.7,1.6,1,2.4c0.3,0.8,0.7,1.5,1.1,2.4c1,2.5,2.1,4.6,3.2,6.9c0.4,0.8,0.7,1.5,1.1,2.3c0.4,0.7,0.9,1.5,1.2,2.2
		c0.5,1.2,0.9,2.5,1.7,3.5c0.4,0.5,1.1,1.1,1.6,1.6c0.6,0.5,1.2,1.2,1.7,1.5c0.5,0.4,2.1,0.8,2.2,1.4c0.1,0.9-1.7,1.7-2.4,1.9
		c-2.4,0.6-4.6-0.3-5.4-1.7c-0.7,0.1-1.4,0.4-2.2,0.3c-0.5,0-0.9-0.3-1.5-0.5c-0.3-0.1-0.6,0-0.8-0.1c-1.5-0.4-2.6-1.4-3.1-2.8
		c-1.1,0.3-2.2,1.3-3.5,1.5c-0.9,0.1-2.1,0-2.8-0.4c0.1-1,1.2-1,1.7-1.6c0.8-0.8,1.3-2.7,1.4-4.2c0.1-2.3-0.7-4.5-1.3-6.4
		c-0.6-1.9-1.2-3.9-2.1-5.6c-1.3-2.3-2.8-4.8-4.6-6.9c-0.9-1.1-1.8-2.3-3.5-1.5c-1.9,1-1.8,4.8-1.5,7.6c0.3,2.5,0.8,4.9,1.4,6.6
		c0.2,0.6,0.8,1.4,0.6,2.1c-0.4,0.5-1.2,0.3-1.8,0.4c-0.7,0-1.4,0.1-2.1,0.1c-1.4-0.1-2.7,0.1-4,0.1c-1.4,0.1-2.8,0-4.1,0.2
		c-1.3,0.2-2.6,0.6-3.7,0.2c0-0.6,0.6-1.1,0.8-1.5c0.6-1.4,0.9-3.6,1.2-5.6c0.3-2.1,0.4-4.3,0.5-6.3c0.2-4.3,0.2-8.9,0.2-13.3
		c0-2.2,0.2-4.4,0.2-6.6c0-2.2,0-4.4,0.1-6.5c0.2-4.8,0-9.7-0.3-14.2c-0.2-2.6,0.1-5.1-0.3-7.5c-0.3-2.3-1.3-4.2-1.5-6.3
		c0.9-0.5,2-0.4,3.1-0.5c3.3-0.1,6.9-0.4,9.9-0.7C164.9,35.9,165.4,35.7,165.7,36z"/>
	<path class="st0" d="M103.5,36c10.2,0.2,20.9,0,31.3,0.2c-3.4,0.3-7.4,0.1-10.5,0.7c2.7,0.2,6,0.3,9,0.4c-0.3,0.4-0.8,0.3-1.3,0.3
		c-1.4,0-3,0.2-4.6,0.2c-2.4,0-5.2,0.1-7.5,0.3c-2,0.1-4.2-0.2-6.2-0.2c-2.2,0-4.3,0.3-6.2,0.2c-1.3,0-2.1-0.6-2.7-1.2
		c5.5,0.7,12.1,0.4,18,0.2c-3.7-1.4-8.8-0.6-13.5-0.4c-1,0-2.2-0.1-3.3-0.1C104.9,36.5,104,36.8,103.5,36z"/>
	<path class="st0" d="M219.7,36.1C219.7,36.1,219.8,36.1,219.7,36.1c0.6,1.6,1.5,3.2,2.6,4.1c1.1,0.8,2.4,1.1,3.5,2.1
		c-0.4,1.6,0.5,3.5,1.6,4.3c0.6,0.4,2,0.5,2.4,1.1c0.2,0.3,0.1,0.7,0.1,1.2c0.1,1.3,0.6,2,1.1,2.9c1.6,2.8,5,5.6,9.5,5.5
		c2-0.1,3.7-0.7,5.3-1.5c0,0.3-0.4,0.6-0.6,0.8c-1.6,1.2-4.5,1.7-7.2,1.2c-1.3-0.2-2.6-1-3.8-1.8c-1.1-0.8-2.2-1.7-2.9-2.6
		c-0.6-0.7-1.2-1.9-1.5-2.7c-0.4-0.9-0.4-1.9-0.4-2.9c-2.7-0.1-4.6-2.2-4.2-5.2c-1.9-1-4.5-2-5.3-4.3c-0.1-0.4-0.3-0.9-0.4-1.2
		C219.5,36.8,219.5,36.2,219.7,36.1z"/>
	<path class="st0" d="M289.3,38.3c0.3-0.4,0.6-0.2,1-0.2c0.8-0.1,1.7-0.4,2.7-0.5c1-0.1,2-0.2,2.9-0.4c1-0.1,1.9-0.5,2.6-0.6
		c0.6-0.1,1.3,0.4,1.3,0.8c0,0.6-0.6,0.7-1.5,0.8c-1.6,0.2-3.1,0.7-5,0.8c-1.1,0.1-1.9,0.7-3,0.4C289.9,39.1,289.4,38.7,289.3,38.3z
		"/>
	<path class="st0" d="M87.1,39.5c-0.1,2.4-0.7,4.9-0.9,7.5c-0.6,7.7-0.5,16.4-0.1,24.6c0.2,5.3,0.3,11,0.6,16.4
		c0.2,5.4,0.5,10.7,2.4,14.5c-4.1,0.5-7.9-0.6-11.6-0.9c-0.7-0.1-1.3-0.1-2-0.1c-0.6-0.1-1.2-0.1-1.7-0.3c0-0.6,0.4-0.9,0.6-1.4
		c2.2-6.8,1.2-16.9,1.2-25.4c0-2.6,0.1-5.2-0.1-7.6c-0.4-5-0.3-10.1-0.7-14.9c-0.3-3.7-0.6-7.1-1.2-10.5c-0.2-1-0.7-2.2-0.3-3.2
		c1.9-0.1,4.8,0.4,7.2,0.6c1.2,0.1,2.4,0.2,3.5,0.2C85,39.1,86.2,39.1,87.1,39.5z"/>
	<path class="st0" d="M129,38.7c0.2,0.1-0.5,0.6-0.8,0.6c-0.4,0.1-1.2,0-1.8-0.1c-2.5-0.1-5.3,0.2-7.8,0.4c-2,0.1-3.9-0.1-5.7,0.2
		c4.2,0.5,9,0.4,13.6,0.5c-0.1,0.2-0.4,0.2-0.5,0.4c-3.7-0.1-7.9,0-11.5,0.1c-1,0-1.7,0.1-2.5-0.4c0.2-0.1,0.6-0.1,0.6-0.4
		c-1.4-0.7-3.7-0.3-4.8-1.3c1.7,0,3.5-0.1,5.1,0.1C118.4,39.2,123.5,38.3,129,38.7z"/>
	<path class="st0" d="M132.1,38.7c-0.2,0.2-0.3,0.5-0.4,0.8c-0.8,0-1.6,0-2.4,0c0-0.3,0.1-0.4,0.1-0.7
		C130.3,38.7,131.3,38.7,132.1,38.7z"/>
	<path class="st0" d="M190.7,38.7c1.3,1.2,2.2,2.9,3.3,4.5c1,1.5,2.2,2.9,3.2,4.5c1,1.5,1.9,3.1,2.8,4.9c0.9,1.7,1.7,3.8,1.5,6.2
		c-0.1,0.8-0.4,1.5-0.9,1.9c-0.9,0.2-1.6,0.3-2.4-0.2c-0.7-0.5-1.6-2.6-0.4-2.8c1-0.2,1.1,1.1,1.6,1.1c0.7,0.1,1-1.4,0.9-2.3
		c-0.1-1.2-0.5-2.5-0.9-3.6c-0.4-1.3-1.2-2.6-1.9-3.8c-1.4-2.3-3.2-4.4-4.6-6.8c-0.4-0.6-0.7-1.2-1-1.8
		C191.4,40,191,39.4,190.7,38.7z"/>
	<path class="st0" d="M350.6,40.2c-1.3,5.9-2.1,12.7-2.1,20c0,5.3-0.4,11.1,0.3,16c0.1,0.8,0.2,1.6,0.5,2.3c0.2,0.7,0.7,1.2,0.7,1.9
		c-0.7,0.2-1.8,0.2-2.9,0.1c-0.9,0-1.8-0.3-2.8-0.3c-1.2,0-2.3,0-3.8,0.1c-1,0-3.2,0.2-3.6-0.3c-0.3-0.4,0.4-1.3,0.6-1.9
		c0.7-2.1,1.2-4.5,1.4-7.1c0.4-4.9,0.5-10.4,0.6-15.7c0.1-2.7,0-5.3-0.1-7.8c-0.1-2.6-0.7-5-0.7-7.3c1.7-0.4,4.3,0,6.5-0.1
		C347.1,40.1,349,40,350.6,40.2z"/>
	<path class="st0" d="M382.6,47.4c0,2.4-0.1,4.7-0.4,7.1c-0.3,2.2-0.4,4.6-0.6,7c-0.3,3.3-0.2,7.3-0.4,11c0,1.1,0.2,2.9-0.1,3.7
		c-0.1,0.3-0.4,0.5-0.7,0.8c-0.6,0.7-1.4,1.7-1.9,2.3c-1,1.1-1.6,2.2-2.3,3.3c-1.1,0.5-2.4,0-3.6-0.1c-1.3-0.1-2.6-0.2-3.9-0.3
		c-2.8-0.2-5.5-0.2-8.1-0.4c-0.7,0-1.9-0.2-2.4-0.5c-0.3-0.2-0.4-1-0.6-1.5c-0.4-0.8-0.9-1.7-1.5-2.5c-0.4-0.5-0.8-0.7-0.8-1.5
		c-0.4,0-0.7,0-0.9-0.2c-0.4-0.2-1-0.9-1.1-1.2c-0.2-0.6,0-1.7,0.1-2.6c0.2-2.6,0.5-5.2,0.7-7.7c0.3-3.4,0.8-7.3,0.6-10.6
		c-0.1-1.5-0.2-3.3-0.3-4.8c-0.1-0.9-0.2-1.9,0.1-2.8c2.8-0.7,4.2-2.9,5.5-5.3c3.5-0.5,6.6-0.2,10.2,0.1c2.4,0.2,4.5,0,6.6,0.3
		c0.4,0.1,1.1,0.1,1.3,0.2c0.2,0.1,0.4,0.8,0.6,1.2c0.2,0.4,0.5,0.8,0.6,1.1c0.5,0.8,0.7,1.7,1.2,2.4
		C381.1,46.6,381.9,46.5,382.6,47.4z M363,55.7c-0.2,1.8-0.5,4.1-0.5,6.5c0,5.6-1,13.8,3.3,15.2c1,0.3,2.6,0.2,3.2,0
		c1.2-0.4,2.4-1.7,2.9-2.9c0.7-1.8,0.5-4.1,0.8-6.6c0.5-4.2,0.6-8.9,0.6-14c0-2.7-0.3-5.3-0.9-6.5c-0.7-1.2-2.5-2.3-3.9-2.1
		C363.8,45.8,363.6,51,363,55.7z"/>
	<path class="st0" d="M129.2,40.5c0.7,0,1.6-0.1,2.2,0.1c-0.1,0.3-0.5,0.2-0.8,0.2c-0.5,0-1.1,0.1-1.5,0
		C129.2,40.6,129.2,40.6,129.2,40.5z"/>
	<path class="st0" d="M188.7,41c-0.6,1.8-2.7,3.3-5.1,3.3c-0.3,0-0.6,0-0.8-0.1c-1.8-0.3-3.8-1-4.4-2.6c0.7,0.4,1.3,1.1,2.1,1.4
		c0.6,0.2,1.3,0.2,1.9,0.4c0.4,0.1,0.7,0.3,1.5,0.2c1.1-0.1,2.9-0.8,3.6-1.5c0.4-0.4,0.6-1,1.1-1.2C188.6,41,188.6,41,188.7,41z"/>
	<path class="st0" d="M116.8,41.6c2.1-0.1,4.4-0.1,6.5,0c-1.3,0.6-3.1,0.2-4.6,0.2C118,41.8,117.3,41.9,116.8,41.6z"/>
	<path class="st0" d="M385.9,41.5c2.2,0.1,4.1,0.7,6.3,1.1c1,0.2,1.9,0.3,2.8,0.5c0.9,0.2,1.9,0.1,2.6,0.6c0,1.4-0.5,2.9-0.6,4.3
		c0.8-0.3,2-0.5,2.3-1.5c0.2-0.5,0-1.1,0.1-1.7c1.2-0.4,2.6,0.2,4.1,0.3c1.4,0.1,2.9,0.5,4.2,0.6c0.9,0.1,1.6-0.1,2.3,0.1
		c0.6,0.2,1.1,0.8,1.6,1.2c0.5,0.4,0.9,0.9,1.4,1.4c0.8,0.7,2.8,1.5,2.8,2.8c0,0.5-0.4,1.3-0.6,2c-0.6,1.9-1.2,4-1.4,6.2
		c-0.3,3-0.6,6.3-0.7,9.5c-0.3,6.4-0.5,14,1.7,18.4c0.9,1.8,2.2,3.2,3.5,4.6c1,1.1,2.2,1.8,3.2,2.8c0.3,0.3,0.8,0.6,0.9,1
		c-0.3,0.3-1,0.2-1.4,0.2c-0.8-0.1-1.7-0.4-2.5-0.6c-2.2-0.8-4.2-2.1-5.6-3.6c-3.8,0.4-6.6-1.3-7.2-4.5c-1.8,0.9-4.1,1.2-6.7,0.9
		c1.3-0.9,2.6-1.9,3.6-3.3c0.9-1.3,1.8-3.2,1.9-5.1c0.4-4.1,0.3-8.7,0.2-12.9c0-1.6,0-3.2-0.1-4.8c0-0.7-0.2-1.4-0.2-2.1
		c0-0.7,0.1-1.5,0.1-2.2c-0.1-1.1-0.6-3-1.2-3.6c-0.9-1-3.4-1.1-4.6-0.4c-0.9,0.5-1.7,2.2-2.2,3.3c-0.5,1.4-0.7,3.2-0.8,4.8
		c-0.3,4.2,0.1,8.4,0.1,13.2c0,4.5,0.4,8.9,1.6,12c-3.7,0.1-6.6-1.1-9.8-1.6c-1-0.2-2.1-0.3-3.2-0.6c0-0.5,0.3-0.8,0.5-1.3
		c1.5-4.3,1.6-10.5,1.6-16.5c0-6.3,0.3-12.8-0.4-18.9c-0.2-2.2-0.7-4.4-0.8-6.3C385.9,41.7,385.8,41.6,385.9,41.5z"/>
	<path class="st0" d="M129.3,41.8c0.6,0,1.3,0,1.9,0c0,0.3-0.1,0.4-0.1,0.6c-0.6,0-1.1,0.1-1.7,0.1
		C129.4,42.2,129.3,42.1,129.3,41.8z"/>
	<path class="st0" d="M16,42.3c0.6,0.6,0.2,2.2,0.1,3.5c-0.2,2.5-0.6,5.2-2,6.3c-0.7,0.6-2.1,1.1-3.1,0.6c-1.4-0.7-1.6-4.1,0.4-4.5
		c0.7-0.1,1.5,0.3,1.6,0.9c0.3,1.2-0.8,1.7-1.8,1.6c0.1,0.8,1,1.2,1.9,0.8c2.2-0.8,2.2-6.2,2.4-9.2C15.9,42.4,15.9,42.3,16,42.3z"/>
	<path class="st0" d="M129.9,43.1c0.2-0.1,0.7,0,1-0.1C130.7,43.4,130.1,43.3,129.9,43.1z"/>
	<path class="st0" d="M295.9,87.7c-1.8,0.9-4.6,0.9-5.9-0.5c-0.4-0.5-0.7-1.1-1-1.6c-2.6,2.6-10.2,4.6-14.4,1.9
		c-1,0.8-2.2,1.4-3.5,2.1c-0.7-0.1-1.3,0.2-1.7-0.2c0.2-0.7,0.6-1.3,0.9-2.1c1.8-4.9,2-13.6,0.3-18.7c2.7-1.1,5.7-2,8.5-3.2
		c2-0.9,3.7-2.8,4.8-4.5c1.2-1.8,2.6-4.2,2.6-6.7c0-1.7-1-3.9-2.5-4.1c-2-0.3-4.5,2.2-4.1,4.5c0.1,0.7,0.5,1.9,0.9,2.1
		c0.4,0.2,0.9,0,1.4,0.1c-0.2,1.1-0.9,2.4-1.7,3.2c-1,0.9-2.8,1.6-4.2,1.1c-0.2,1.6-0.8,2.5-2,3.4c-1.5,1.2-3.9,2.9-6.3,1.4
		c0.4-0.8,1.2-1.4,1.6-2.2c0.7-1.3,0.9-3,1.1-4.5c0.1-1,0-2.1-0.3-2.9c-0.2-0.5-1.1-1.1-1.1-1.6c0-0.5,1.6-1.7,1.9-2.1
		c0.6-0.6,1.3-1.7,1.6-2.4c0.4-0.9,0.5-1.8,1.1-2.7c1.8,0,3.5-0.4,5.3-0.6c3.6-0.4,7-0.8,10-1.9c0.7-0.2,1.5-0.8,2.4-0.6
		c0.5,0.1,0.7,0.7,1.1,0.9c0.6,0.5,1.6,1,2.6,1.5c0.8,0.4,2.2,0.9,2.4,1.6c0.2,0.7-0.3,2.2-0.5,3.1c-0.7,2.7-1,6.2-1.4,9
		c-0.3,2-0.5,4.2-0.6,6.4c-0.3,4.3-0.2,8.2,0.5,11.9c0.3,1.6,0.7,3.1,1.3,4.4c0.6,1.4,2,2.4,3.3,3.5c0.5,0.4,1.2,0.9,2.1,1.3
		c0.5,0.2,2,1,1.9,1.4c0,0.6-1,0.4-1.7,0.4c-1,0-1.9,0.1-2.9,0.1C298,89.4,296.8,88.6,295.9,87.7z M285.1,66.9
		c-1.1,0.9-2.1,1.5-3.3,2.5c-0.5,0.4-1.4,0.9-1.5,1.4c-0.2,0.5-0.1,1.8-0.1,2.7c0,1.1,0,1.9,0.1,2.8c0.3,2.1,0.6,4.7,1.6,5.9
		c1.5,0.6,3.1-0.1,3.8-0.9c1.1-1.2,1.2-3.6,1.3-6c0.2-3.3-0.1-6.7-0.1-9.5c0,0,0-0.1-0.1-0.1c0,0,0-0.1-0.1,0
		C286.2,65.9,285.7,66.4,285.1,66.9z"/>
	<path class="st0" d="M65.6,46.8c0.1,2.8-1.6,6.1-1.8,9c-0.1,0.8,0,1.5,0.2,2.1c0.4,0.9,1.5,1.6,2.8,1.4c0.7-0.1,1.1-0.7,1.8-0.8
		c-0.2,1.6-2.6,1.7-3.9,1.1c-1.2-0.6-1.7-1.9-1.6-3.9C63.4,52.6,65.2,49.4,65.6,46.8z"/>
	<path class="st0" d="M92.7,53.9c0.9-0.1,1.6,0.2,1.5,1.1c0,0.6-0.6,0.9-1,0.9c-0.8,0.1-1.1-0.5-1.5-0.1c-0.5,0.4-0.1,1.2,0.3,1.6
		c0.4,0.4,1,0.7,1.5,0.9c5.1,2.2,12.3,2,19.6,2.3c2.7,0.1,5.6,0.2,8.4,0.1c1.4-0.1,2.8-0.1,4.2-0.1c1.4,0,2.8-0.1,4.1-0.2
		c1.8,0,3.7,0.1,5.6-0.1c3.4-0.3,7.3-0.6,10.9-0.6c1.3,0,2.5-0.3,3.9-0.3c0.3,0,0.9-0.1,0.9,0.4c0.1,1-3.2,0.9-4.1,1.1
		c-1.6,0.2-3.1,0-4.8,0.1c-3.6,0.2-7.6,0.7-11.6,0.8c-5.9,0.1-12.4,0.2-18.8,0.2c-3.2,0-6.3-0.2-9.3-0.4c-3-0.2-5.9-0.6-8.3-1.4
		c-0.5-0.1-1.1-0.4-1.6-0.6c-0.6-0.2-1.2-0.4-1.5-0.7c-1.7-1.6-0.7-5,1.7-5.1C92.6,53.9,92.7,53.9,92.7,53.9z"/>
	<path class="st0" d="M175.1,58.3c-0.6-0.2-1.3-0.1-1.5-0.8c2.7-0.5,5.6-1,8.5-1.5c2.9-0.5,5.8-1,8.5-1.4c1-0.1,2.1-0.4,3.1-0.5
		c0.6-0.1,1,0.1,1.1,0.4c0.2,1.1-2.1,1-2.9,1.1c-0.6,0.1-1.2,0.3-1.8,0.5c-1.2,0.2-2.5,0.4-3.8,0.5C182.7,57.1,178.7,58,175.1,58.3z
		"/>
	<path class="st0" d="M69,57.5c-0.4-0.7-0.2-1.8-0.9-2.2c-0.5-0.3-1.3-0.3-2-0.1c0.3-1.2,1.9-1.1,2.6-0.4
		C69.4,55.4,69.5,56.6,69,57.5z"/>
	<path class="st0" d="M65.5,55.8c0.5-0.1,0.3,0.3,0.6,0.6c0.5,0.5,1.3,0.4,1.2,1.2c0,0.4-0.4,0.6-0.6,0.7
		C65.2,58.6,64.5,56.8,65.5,55.8z"/>
	<path class="st0" d="M220,58.2c0.1,0,0.1,0,0.1,0.1c0.2,2.1,0.3,4.3-0.4,5.9C219.6,62.1,219.8,60,220,58.2z"/>
	<path class="st0" d="M233.3,58.8c1.1,0.6,1.8,1.8,2.6,2.9c0.5,0.6,1.2,1.1,1.6,1.7c0.4,0.6,0.7,1.3,1.1,2c0.4,0.6,0.9,1.3,1.2,1.9
		c0.3,0.6,0.5,1.4,0.9,2.1c0.4,0.7,0.9,1.3,1.1,1.9c0.6,1.5,1.1,3.2,1.6,4.9c0.5,1.7,1.1,3.8,1.1,5.4c0,0.6,0,1.2-0.4,1.5
		c-0.5-4.2-1.6-8.1-3-11.5c-0.5-1.2-1.2-2.2-1.8-3.3c-0.5-1.2-1.3-2.2-1.8-3.3c-0.3-0.6-0.5-1.2-0.9-1.6c-0.4-0.4-0.8-0.9-1.2-1.4
		C234.7,60.8,234.1,59.6,233.3,58.8z"/>
	<path class="st0" d="M24.5,59.2c0.5,2,0.8,4.7,0.3,6.9C24.3,64.1,24.1,61.5,24.5,59.2z"/>
	<path class="st0" d="M204,60.3c0.1,0,0.1,0.1,0.2,0.1c0.2,2.4,1.1,4.8,2.2,6.5c0.5,0.8,1,1.2,1.7,1.8c0.3,0.2,0.5,0.6,0.8,0.7
		c0.7,0.5,1.7,0.4,2.2,1.1c-1.5,0.6-2.6-0.6-3.5-1.3c-0.7-0.6-1.4-1.1-1.9-2c-0.9-1.5-1.8-3.7-1.9-5.3
		C203.7,61.4,203.8,60.8,204,60.3z"/>
	<path class="st0" d="M239,61.6c0.4,0.1,0.5,0.4,0.9,0.5c0.5,0.7,1.3,1.2,1.8,1.9c1.2,1.6,2,3.7,3.2,5.2c0.4,0.6,1,1.1,1.6,1.7
		c0.2,0.2,1.7,1.6,2.1,0.4c0.2-0.6-0.9-2.3,0.2-2.6c1.3-0.3,1.9,1.8,1.5,2.8c-0.4,1.2-2.8,2-4.1,0.9c-0.6-0.6-1.3-1.7-1.8-2.6
		c-1-1.9-2.1-3.8-3.3-5.6C240.4,63.2,239.5,62.5,239,61.6z"/>
	<path class="st0" d="M61.5,61.7C61.5,61.7,61.5,61.7,61.5,61.7c1,0.7,1.7,1.5,2.5,2.3c0.8,0.8,1.3,1.8,1.9,2.7
		c0.7,0.9,1.2,1.8,1.8,2.8c1.8,2.9,3.2,6.1,4,9.9c0.8,4,1.1,8.5,0.9,13.5c-0.1,1.6-0.2,3.3-0.5,4.8c-0.2,0.7-0.5,1.4-0.6,2.1
		c-0.2,0.7-0.5,1.3-0.8,1.9c0.1-1.5,0.6-2.8,0.8-4.2c0.5-3.2,0.5-6.5,0.5-9.8c0-4.9-0.9-9.5-2.4-13.1c-1.5-3.6-3.6-7-5.6-9.9
		C63.2,63.7,62.1,62.8,61.5,61.7z"/>
	<path class="st0" d="M23.3,63C23.3,63,23.3,63,23.3,63c0.2,0.9,0.3,2.1,0.4,3.2c0.1,0.8,0,1.6-0.4,2.1C23,66.6,22.9,64.5,23.3,63z"
		/>
	<path class="st0" d="M143.9,63.2c0.4,0.2,0.4,0.6,0.6,0.9c0.2,0.3,0.7,0.5,1,0.8c0.3,0.4,0.5,0.8,0.9,1.2c0.3,0.4,0.6,0.8,0.9,1.1
		c0.7,0.7,1.6,1.2,2.2,2c-0.6,2.6-1.7,7.6,0.4,9.3c0.4,0.3,0.8,0.3,1.2,0.6c-0.2,0.9-1.5,1.5-2.5,1.6c-2.7,0.3-4.4-1-5.5-2.3
		c-0.8,1.7-5.4,2.4-6.3,0.5c1.9,0,2.7-2,2.9-4.1c0.1-1.2,0-2.7-0.2-3.8c-0.2-1-0.9-2.1-1.5-2.4c-1.4-0.8-3.6-0.3-4.5,0.8
		c-0.3,0.4-0.6,1-0.8,1.5c-0.6,1.7-0.5,4-0.7,6.3c-0.1,0.8-0.3,1.9-0.4,2.8c-0.2,1.9-0.2,4-0.2,6.1c0,2.2-0.2,4.5-0.1,6.3
		c0.2,2.9,0.5,5.2,2.9,5.8c1.7,0.4,4-0.5,4.6-1.6c0.9-1.5,0.7-3.7,1-6.1c0.9-0.6,2-0.6,3.1-0.9c1.1-0.3,2.1-0.8,3.2-1.1
		c1.1-0.3,2.2-0.7,3.3-0.9c-1,3.1-1.4,7-1.4,10.9c-1.1,0.8-2,1.3-2.9,2.5c-0.3,0.4-0.8,1-1.1,1.6c-0.2,0.4-0.6,1.4-1.1,1.6
		c-0.5,0.3-2.1,0.5-2.9,0.5c-1.6,0.1-3.6,0.1-5.4-0.1c-1.9-0.2-3.8,0-5.3-0.1c-0.7,0-1.9-0.2-2.4-0.5c-0.3-0.3-0.4-1-0.6-1.5
		c-0.5-1.2-1.4-2.4-2.2-3.3c-0.1-0.1,0-0.4-0.1-0.6c-0.9,0.1-1-0.3-1.4-0.7c-0.2-0.3-0.5-0.4-0.5-0.6c-0.2-0.5,0-1.7,0.1-2.6
		c0.2-2.6,0.5-5.2,0.7-7.8c0.3-3.7,0.8-7.3,0.6-10.7c-0.1-0.9-0.1-1.7-0.1-2.6c0-1.3-0.6-3.7-0.2-4.5c0.2-0.4,1.5-0.9,1.9-1.2
		c1-0.6,1.9-1.4,2.5-2.5c0.4-0.6,0.6-1.5,1-1.8c0.5-0.3,2.1-0.2,3.2-0.2C136.1,63.8,140.2,63.5,143.9,63.2z"/>
	<path class="st0" d="M51.9,82.3c-0.8,0.1-1.4,0-1.7-0.4c-0.6,2.2,1.8,2.5,3.2,1.8c0.6-0.3,1.2-1.1,1.5-1.6c1.7-2.7,1-7.6,0.2-10.6
		c-0.2-0.8-0.8-1.7-1.3-2.6c-0.9-1.5-1.6-2.4-3-3.3c-1.5-1-2.9-1.5-5.6-1.4c-3.5,0.3-6.1,2-7.9,4c-1,1.1-1.6,2.5-2.4,4.1
		c-0.7,1.5-1.3,2.9-1.4,5c-0.1,1.9,0.2,3.5,0.8,4.8c1.1,1.7,2.4,3.2,4.5,3.8c-0.9,0.4-1.6-0.1-2.3-0.5c-0.9-0.6-1.4-0.9-2.1-1.8
		c-0.3-0.4-0.7-0.8-0.9-1.2c-0.9-1.7-1-4.2-0.8-6.6c0.2-1.5,0.9-3,1.5-4.3c0.6-1.2,1.2-2.6,2.1-3.7c0.7-0.9,2.4-2.2,3.5-2.9
		c0.5-0.3,1.2-0.5,1.9-0.8c1.5-0.6,3.1-0.9,5.5-0.7c1.5,0.1,2.7,0.8,3.8,1.5c1.5,1,2.2,1.8,3.2,3.5c0.5,0.8,1.1,1.8,1.4,2.7
		c0.2,0.9,0.4,1.9,0.6,2.8c0.7,3.3,0.2,8.1-1.9,9.8c-1.2,1-3.9,1.3-5,0.2c-1.2-1.2-0.6-3.8,1.1-4.2C52.5,79.4,53.1,81.5,51.9,82.3z"
		/>
	<path class="st0" d="M197.2,72.7c-2.9-2.5-9.4-1.4-12.3,0.8c-0.6,0.5-1.1,1.2-1.6,1.6c1.1-2.8,4.7-4.3,8.6-4.5
		C194.2,70.5,196.3,71.1,197.2,72.7z"/>
	<path class="st0" d="M9,113.5c-0.5-0.4,0.1-1.1,0.4-1.5c0.8-1.4,1.9-2.9,2.6-4.5c0.4-0.9,0.6-1.9,0.9-2.8c0.9-2.6,1.9-5.7,2.1-9.2
		c-0.3,2.1-1.3,3.9-1.9,5.8c-0.7,1.8-1.7,3.7-3,4.7c-0.4,0.3-1,0.7-1.5,0.7c-1.3,0.1-2.6-0.8-2.9-1.6c-0.6-1.4,0.2-3.2,1.2-3.8
		c0.9-0.4,2.5-0.4,2.7,0.8c0.2,1.5-1.4,2.7-2.7,1.7c0,1,0.6,1.3,1.2,1.6c1.4,0,1.9-0.6,2.6-1.6c1.2-1.5,2-3.4,2.6-5.5
		c0.8-2.8,1.6-5.7,1.9-8.8c0.1-1.1,0-2.3,0.1-3.5c0.1-4.3,0-8.5-1.9-11.1c-0.4-0.6-0.8-1.5-1.6-1.5c-0.1,0.4,0.2,0.6,0.1,1.1
		c-0.2,0.7-1.4,1.3-2.3,1c-0.7-0.3-1.2-1.7-0.8-2.9c0.3-0.6,1.4-1.5,2.6-1.2c0.5,0.1,1.2,0.6,1.6,1c0.7,0.7,1.3,1.7,1.8,2.6
		c1.7,2.9,1.7,8.2,1.4,12.9c-0.1,1.2,0,2.4-0.1,3.6c-0.1,1.5-0.2,2.9-0.3,4.3c-0.1,1.4-0.3,2.7-0.6,4c-0.9,4.8-2.8,8.7-4.9,12.3
		C10,112.8,9.8,113.6,9,113.5z"/>
	<path class="st0" d="M215.6,93.3c3.6,0.3,5.3-1.5,5.3-5c0-3.2-1.5-7-2.9-9c-0.8-1.1-1.7-2-2.8-2.9c-0.4-0.4-1-1-1.4-0.9
		c-0.6,0-0.9,1.1-1.8,1c-0.5,0-1-0.6-0.9-1.6c0.5-1.1,1.7-1.6,3.1-0.9c0.6,0.3,1.3,1,1.8,1.5c1.6,1.6,3.1,3.7,4.2,6
		c1,2,1.8,4.8,1.6,7.4c-0.2,2.7-1.8,5.2-4.9,5.1C216.5,93.8,216,93.7,215.6,93.3z"/>
	<path class="st0" d="M194.5,106.5c0-4.1-0.8-8.5-1.3-12.7c-0.6-5.1-2-9.9-4.9-12.5c-0.5-0.4-1.8-1.5-2.7-1.5
		c-2.3,0.1-1,4.8,1.1,3.8c-0.1-0.8-1.4-0.8-0.9-1.8c1.6-0.6,2.2,2.9,0,2.5c-1.8-0.3-3.7-5-0.5-5.2c1.2,0,2.6,0.9,3.4,1.6
		c1.2,1.1,2,2.7,2.8,4.3c1.5,3.1,2.1,7.4,2.5,11.6C194.4,100,194.9,103.2,194.5,106.5z"/>
	<path class="st0" d="M47.7,81.4c-1.1,3.2-0.7,7.1,1,9.2c1.5,1.9,4,2.8,7.6,2.6c0.9,0,1.7-0.5,2.5-0.3c0.3,0.6-0.4,1.1-0.7,1.4
		c-1.2,1.1-2.8,1.7-4.4,2.6c-1,0.6-2.3,0.9-2.5,2.2c1.1-0.4,2.3,1.3,1.3,2c-1.1,0.7-2.3-0.8-2.4-1.3c-0.4-2.6,2.2-3.5,4.1-4.1
		c1.7-0.5,2.9-0.9,3.9-2.2c-3.2,0.7-6.8,0.3-8.8-1.2c-1-0.8-2.1-2.5-2.6-4c-0.3-1.1-0.3-2.1-0.2-3.5C46.5,83.6,46.7,82,47.7,81.4z"
		/>
	<path class="st0" d="M378.9,89.6c1.4,0,2.8,0.5,4.3,0.4c0.4,0,0.7-0.2,1.1-0.2c1-0.1,2.2,0,3.2,0.1c2.3,0.3,4.5,0.9,6.1,1.8
		c-0.2,0.3-0.5,0.4-0.7,0.7c-1.8,0.2-3.3,0.1-4.9-0.1c-1.5-0.2-2.9-0.8-4.3-0.9c-0.8-0.1-1.5,0.1-2.1-0.2c-0.4,0.2-1,0.1-1.4,0.4
		c0.2,0.7,1,0.5,1.6,0.7c1.1,0.4,2.5,1.8,1.6,3.4c-0.5,1-2,1.3-3.5,0.9c-0.1-0.2,0.3-0.2,0.4-0.4c0.6-0.5,0.5-1.7-0.1-2.4
		c-0.9-0.9-3.3-0.8-5.2-0.9c-2.3-0.2-4.5-1.3-5.3-2.9c-0.4,0.5-1.3,0.6-2,0.4c-0.5-0.2-0.7-0.7-1-1c-3.1-0.2-6.4-0.5-9.6-0.9
		c-0.8-0.1-1.9-0.3-2.5-0.2c-0.6,0.1-0.8,1-1.8,0.6c-0.3-0.1-0.5-0.6-0.8-0.8c-10.6-0.6-21.5-0.4-32.7-0.2c-0.3,0.3-0.7,0.8-1.3,0.9
		c-0.8,0.1-1.1-0.6-1.8-0.7c-0.5-0.1-1.1,0-1.6,0.1c-1.1,0.1-2.3,0.2-3.5,0.3c-1.2,0.1-2.4,0.4-3.3,0.1c-0.1-0.9,1.2-0.8,1.8-0.9
		c1.5-0.2,3-0.3,4.7-0.5c0.7-0.1,1.6-0.1,2.1-0.2c0.3-0.1,0.5-0.6,0.8-0.6c0.9-0.2,1.3,0.3,1.9,0.5c0.5,0.1,1.4,0,2.1-0.1
		c3.5-0.2,6.8-0.2,10.3-0.4c5.9-0.3,12.2,0,17.9,0.4c0.9,0.1,1.9,0.3,2.5,0.2c0.3-0.1,0.5-0.4,0.8-0.5c0.9-0.3,1.6-0.1,2.2,0.6
		c4.1,0.4,8.4,0.7,12.3,1.1c0.6-0.7,2.2-0.4,2.6,0.2c0.5-0.2,0.7-0.6,1.2-0.8c1.2-0.5,3.3-0.5,4.9-0.4c1.3,0.1,2.6,0.9,4.1,0.4
		c0.5-0.1,1.1-0.9,0.9-1.5c-0.2-0.5-0.8-0.1-0.9-0.6c-0.2-0.5,1.3-0.8,2.1-0.6c0.6,0.1,1.4,0.7,1.5,1.5c0.2,1.6-1,2.5-2.3,2.8
		c-0.9,0.2-1.8-0.1-2.6,0.2C378.6,89.4,379,89.4,378.9,89.6z"/>
	<path class="st0" d="M52.5,103.3c0.3,1-0.1,2.1-0.5,2.9c-1.1,2.3-3,4.9-6.5,4.9c-1.7,0-3.6-0.2-4.9-0.8c-1.4-0.6-3-2.1-3.9-3.6
		c-0.4-0.7-0.9-1.8-1.2-2.7c-0.3-1-0.8-2-1-2.9c-0.4-1.6-0.3-3.9-0.1-5.8c0.2-2,0.6-3.7,1.1-5.1c0.3-0.8,1.1-2.5,2.1-2.7
		c1.3-0.3,2.2,0.4,2.2,1.4c0,0.7-0.5,1.2-1.1,1.3C38,90.4,37.7,90,37.3,90c-0.3,0-0.8,0.8-0.9,1.1c-1.1,2.1-1.9,6.4-1.3,9.8
		c0.2,1,0.6,2.2,1,3.2c0.3,0.8,0.7,1.6,1.1,2.2c0.7,1.2,2.4,2.8,3.6,3.3c1.6,0.7,4.7,1,6.6,0.4c2.4-0.9,3.6-3.1,4.5-5.6
		C52,104.1,52.1,103.6,52.5,103.3z"/>
	<path class="st0" d="M214.9,87.8c1-0.1,1.9,0.2,1.9,1.1c0.1,1.6-2.4,1.2-3.3,1.6c-1.2,0.6-2.1,2.5-2.6,4.1
		c-0.6,2.3-0.7,5.6-0.5,8.2c0.1,1.2,0.4,2.6,0.9,3.6c0.4,1,1.3,2.1,2.3,2.5c1.9,0.8,4.6-0.5,4.1-2.9c-0.1-0.5-0.4-1-0.8-1.4
		c-0.3-0.4-0.7-0.7-0.7-1.4c0-0.4,0.4-0.9,0.9-1c1.9-0.2,2.1,3.5,1.5,5.1c-0.4,1.1-1.9,2.2-3.2,2.4c-2.7,0.3-4.4-2.1-5.1-4.1
		c-0.3-0.8-0.5-1.9-0.6-2.9c-0.4-4.7,0.4-10.1,2.4-13C212.6,89.1,213.9,88,214.9,87.8z"/>
	<path class="st0" d="M267.3,94.2c-5.8,1-11.5,2.2-17.5,3.1c-0.8,0.1-1.7,0.3-2.5,0.1c0-1.2,1.3-1,2.1-1.1c0.9-0.1,1.8-0.3,2.6-0.5
		c1.7-0.4,3.6-0.7,5.3-0.9c0.5-0.1,0.9-0.3,1.4-0.4c2.9-0.5,5.9-0.7,8.6-1.3c0.4-0.3,0.6-0.9,1.2-1.1c0.7-0.1,1.2,0.1,1.5,0.5
		c1.6-0.4,3.6-0.6,5.5-1c1.4-0.3,2.9-0.6,4.4-0.8c3.1-0.5,6.3-0.6,9.3-1.1c0.4-0.1,1.2-0.1,1.2,0.4c0,0.7-1.9,0.7-2.3,0.7
		c-4.6,0.5-8.5,1.3-12.9,2c-0.8,0.1-1.7,0.3-2.5,0.5c-0.8,0.2-2,0.2-2.5,0.5c-0.3,0.2-0.4,0.6-0.7,0.8
		C268.8,94.9,267.7,94.6,267.3,94.2z"/>
	<path class="st0" d="M244.3,92.5c0,1.9-0.5,3.8-1.1,5.6c-0.5,1.7-0.9,3.4-1.8,4.9c-0.9,1.4-1.5,3-2.4,4.3c-0.9,1.3-1.8,2.7-2.9,3.8
		c-0.5,0.5-1.2,1-1.8,1.6c-0.6,0.5-1,1.3-1.6,1.7c-0.3,0.2-0.6,0.3-0.9,0.5c-0.5,0.4-0.9,0.9-1.4,1.2c-2,1.3-4.1,2.5-6.9,2.9
		c0.5-0.6,1.3-0.8,2.1-1.1c1.6-0.6,3-1.4,4.4-2.3c0.4-0.2,0.7-0.6,1.1-0.9c0.4-0.3,0.9-0.5,1.2-0.8c0.5-0.4,1-1.1,1.6-1.6
		c0.6-0.6,1.2-1,1.7-1.5c1.1-1.2,2.2-2.7,3.1-4.2c0.4-0.7,0.8-1.6,1.3-2.4c0.5-0.8,1.1-1.5,1.4-2.2c0.7-1.4,1.1-3,1.6-4.5
		C243.5,95.8,243.8,94.1,244.3,92.5z"/>
	<path class="st0" d="M374.5,96.3c-0.4,2.1-0.4,4.7-0.8,6.8c0.9-0.1,1.9-0.7,3.1-0.6c1,0.5,0.4,2.1,0.5,3.3c2-0.5,4.6-0.8,6.6-1.5
		c0.4,1,0,2.5,0,3.7c1.9-0.2,4-0.3,5.9-0.5c-0.3-0.6-0.6-1.1-0.9-1.8c-0.3-0.5-0.8-1.3-0.8-1.8c0-0.5,0.6-1.5,0.8-1.9
		c0.3-0.6,0.6-1.1,0.9-1.7c2.2-1.4,4.6-2.7,7.3-3.6c0.9-0.3,1.8-0.8,2.8-0.8c0,0.5-0.4,0.8-0.7,1.1c-0.9,1-1.9,1.9-2.7,3.1
		c-1,1.5-2.4,2.8-3.5,4.2c0.7,1.1,1.3,2.1,2.2,3.3c0.3,0.3,0.7,0.8,0.7,1.1c0,0.7-1.1,1.4-1.5,1.9c-0.6,0.6-1.2,1.1-1.8,1.6
		c-2,0.3-3.9,0.3-5.9,0.5c-2,0.1-4.1,0.8-6.3,0.5c-0.4-0.5-0.6-1.2-0.7-1.9c-1.2,0.3-2.2,0.9-3.5,1.2c-0.2,1.5-0.5,3-0.6,4.6
		c2.2,0,4.7-0.4,6.8-0.2c0.3,0.1,0,0.6,0.1,0.6c0.9,0,1.9-0.2,3-0.2c1,0,2.3-0.2,3,0c1,0.3,0.6,2,0.6,3.1c0.7,0,1.4-0.1,2.2-0.1
		c0.1-0.3,0-0.8,0.2-1.1c0.3-0.5,1.9-1,2.8-0.9c0.2,0,0.3,0.1,0.7,0.2c1.2,0.1,2.3,0,3.6,0c0.9,0,3.2-0.1,3.3,0.4
		c0.1,0.6-0.9,0.7-1.4,0.8c-1.9,0.5-3.2,1.1-4.9,1.7c-0.4,0.5-1.1,0.9-1.7,1.3c-0.5,0.3-1.3,0.9-1.9,1c-1.5,0.3-3.5-0.2-5.2,0.1
		c-0.5-0.3-0.9-0.8-1.2-1.4c-1.2,0.1-2.4,0.3-3.6,0.4c-0.4,0-0.9,0-1.2,0.1c-0.3,0.1-0.4,0.5-0.6,0.6c-0.5,0.3-1.5,0.1-2.3,0.2
		c-1.5,0.2-2.9,0.3-4.4,0.6c-0.7,0.1-1.4,0.5-2,0.1c-0.2-0.5,0.2-0.9,0.2-1.5c-1.2,0.2-2.6,0.3-3.9,0.6c-1.3,0.3-2.6,0.7-3.9,0.5
		c-0.3-1.2,0.6-2.1,0.5-3.5c-11.2-0.2-22.4,0.3-33.8,0.2c-7,0-14.5-0.3-22.1-0.3c-3.7,0-7.4-0.3-11.1-0.3c-7.4,0-14.8,0.6-22.2,0.2
		c0,0.6-0.1,1.1-0.2,1.6c-0.1,0.4,0,1.2-0.2,1.5c-0.5,0.7-2.6,0.3-3.5,0.2c-2.4-0.1-5.7,0.5-7.1-0.4c-0.1-0.5,0.3-0.9,0.2-1.5
		c-4-0.2-8.3,0-12.5,0c-0.5,0-1.1,0.1-1.5-0.1c0.2-0.8,1.1-0.9,1.7-1.2c1.9-0.8,3.9-1.8,5.8-2.8c1.3-0.6,2.4-1.4,3.7-2.1
		c1.3-0.6,2.7-1,3.8-1.9c0.1-0.3,0-0.7,0.1-0.9c-2.2-1.3-4.2-2.6-6.8-3.6c-1.9-0.7-3.5-1.6-5.3-2.5c-0.5-0.2-1.6-0.5-1.5-1.1
		c0.1-0.6,1.9-0.3,2.5-0.3c1,0,2-0.1,2.8-0.1c0.3,0,0.5,0.2,0.8,0.2c0.4,0,0.8-0.1,1.2-0.1c2.4-0.1,4.8,0.2,7.2,0
		c0.2-0.7,0.2-1.5,0.3-2.4c0.1-0.8,0.3-1.6,0.4-2.3c0-0.7-0.3-1.4,0.2-1.9c1.5-0.4,3.6-0.1,5.1,0.1c0.3-1.1,0.1-2.3,0.4-3.2
		c0.7-0.3,2.1-0.2,3.2-0.2c3.3,0,6.7,0.3,10.1,0.3c11.1,0,22.6-0.1,34-0.1c4,0,8,0,12,0.2c2,0.1,4,0.2,5.9,0.2
		c2.6,0,5.2-0.2,7.8-0.2c5.5,0,11.2-0.2,16.4,0.2C366.2,96.4,370.5,95.8,374.5,96.3z M273.1,96.4c-0.3,3.8-1,7.6-1.5,11.5
		c-0.3,2.9-0.8,5.7-1.1,8.8c-0.1,1-0.2,1.9-0.2,2.9c4.1,0,8.2,0.6,12.3,0.3c8.3-0.6,16.7-0.5,24.9-0.1c6.3,0.3,12.6,0,18.9,0.2
		c6.4,0.3,12.6-0.1,18.9-0.1c8.4,0,16.8-0.4,25.1,0.1c0.8-7.9,2.1-15.3,3-23.1c-10.3-0.2-20.8-0.2-31.1-0.2c-2.1,0-4.2,0.1-6.3,0.1
		c-2,0-4-0.2-6.1-0.3c-2.1-0.1-4.3,0-6.4,0c-17,0-33.8,0.3-50.5-0.2C273.2,96.3,273.1,96.3,273.1,96.4z M390.8,100.8
		c0.5,1.1,1.4,1.8,1.8,2.9c0.7-1,1.6-1.7,2.3-2.6c1.1-1.3,1.8-2.8,3.2-3.8c0-0.1,0.1-0.1-0.1-0.1C395.4,98.3,392.8,99.3,390.8,100.8
		z M267.8,99.6c-0.1,0-0.1,0.1-0.2,0.2c-0.5,7.7-1.4,16-2.6,23.4c0.2,0,0.5,0,0.7,0c0.2-0.2,0-0.8,0.3-0.8c0.2,0.1,0.1,0.6,0.1,0.8
		c0.7,0,1.4,0,2.1,0c0.8-7.9,1.7-15.6,3.2-22.9c-0.6,5.8-1.4,11.4-2.2,17c-0.3,1.9-0.5,3.9-0.4,5.8c0.6,0,0.4-0.7,0.5-1.2
		c0.1-0.5,0.2-1,0.4-1.3c0.1,0.7-0.1,1.6-0.1,2.4c0.3,0,0.6,0,0.9,0c0.1-0.5,0.1-1.1,0.4-1.4c0.4,0.3-0.2,1.1,0.2,1.4
		c0.7,0.1,0.4-0.8,0.5-1.3c-0.3-0.3-0.7-0.6-1.1-0.9c-0.3-0.3-0.9-0.7-0.9-1.1c-0.1-0.4,0.1-1.1,0.2-1.7c0.6-6.3,1.4-12.5,2.4-18.2
		C270.8,99.6,269.3,99.6,267.8,99.6z M388.9,104.2c1.4,2.2,2.8,4.3,3.8,6.8c0.8-0.5,1.7-1.4,2.4-2.3c-1.8-2.3-3.1-5-4.9-7.3
		C389.7,102.4,389.2,103.2,388.9,104.2z M373.6,103.8c-0.4,1.9-0.7,4.2-1,6.5c-0.4,2.9-0.6,5.5-0.9,8.3c-0.1,0.7-0.1,1.5-0.3,1.9
		c-0.1,0.2-0.7,0.5-1.1,0.7c-1.3,0.7-2.5,1.1-3.6,1.8c0.8-0.3,2-0.1,2.4-0.8c0.2,0-0.1,0.4,0.2,0.4c0.2,0,0.3-0.1,0.6-0.1
		c0.1-0.2,0-0.6,0.4-0.5c0.2,0-0.1,0.5,0.2,0.4c0.2,0,0.4-0.1,0.5-0.1c0-0.4,0.1-0.9,0.4-0.8c0,0.2,0,0.5,0,0.7
		c0.2,0,0.3-0.1,0.5-0.1c0-0.2,0-0.8,0.3-0.9c0.2,0.1,0.1,0.5,0.1,0.8c0.8-0.1,1.4-0.3,2.2-0.4c0.4-6.5,1.9-11.9,2.4-18.4
		C375.5,103.3,374.7,103.7,373.6,103.8z M377.2,106.7c-0.2,1.7-0.6,3.3-0.8,5.1c0.3,0,0.4-0.2,0.7-0.2c0.1-1.5,0.2-3,0.8-4.1
		c-0.1,1.2-0.2,2.7-0.3,3.8c0.1-0.1,0.3-0.1,0.4-0.2c0.1-1.2,0.3-2.2,0.6-3.2c0.1,0.9-0.2,2.2-0.2,3.1c1.3-0.6,3.1-0.9,4.5-1.4
		c0.2-1.3,0.3-3,0.4-4.2C381.4,105.9,379.2,106.1,377.2,106.7z M253.8,106.4c3.2,1.6,7,2.9,9.9,4.6c0.1-0.8,0.1-1.8,0.5-2.4
		c0.1,0.9-0.1,1.9-0.2,2.7c0.4,0.4,1,0.5,1.5,0.8c0.1-1.9,0.4-3.7,0.5-5.6C261.9,106.4,258,106.2,253.8,106.4z M383.8,108.8
		c0,0.4-0.1,0.8-0.1,1.3c-0.3,0.4-0.8,0.8-1.2,1.2c-0.4,0.4-1,0.8-0.9,1.2c3.3-0.4,6.9-0.6,10.2-1.1c-0.3-1.2-1-2.1-1.5-3.1
		C388.2,108.5,386.1,108.7,383.8,108.8z M380.3,111.2c0.2,0.2,0.2,0.8,0.4,1c0.4-0.5,0.8-1,1.2-1.4c0-0.1,0.1-0.1-0.1-0.1
		C381.5,110.9,380.8,110.9,380.3,111.2z M252.9,121.3c3.9-0.1,7.5-0.3,11.5-0.2c0.4-2,0.5-4.2,0.9-6.3
		C261.4,117,257.1,119.2,252.9,121.3z M375.5,117.9c-0.1,1.4-0.3,2.8-0.4,4.2c-0.6,0.5-1.6,1-1.9,1.6c0.3-0.1,0.7-0.1,0.9-0.4
		c0.1,0.1,0.1,0.4,0.3,0.2c0.3-0.2,0.1-0.8,0.5-0.9c0.2,0.1,0.1,0.5,0.1,0.8c1.8,0,3-0.5,4.8-0.4c0.8-1.5,1.2-3.5,1.9-5.2
		C379.6,117.7,377.4,117.9,375.5,117.9z M382.3,118.3c-0.5,1.3-0.9,2.6-1.4,3.9c2.5-0.2,4.9-0.7,7.2-0.8c0.4-0.8,0.4-1.9,0.4-3.1
		C386.5,118.3,384.2,118.4,382.3,118.3z M392.4,119.7c-0.3,1-0.2,2.2-0.1,3.2c0.8-0.6,1.8-1.1,2.5-1.8c-0.1-0.7-0.3-1.3-0.5-1.9
		C393.6,119.3,393,119.5,392.4,119.7z M395.5,120.7c1.2-0.5,2.3-0.9,3.5-1.4c-1.4,0.1-2.6-0.2-3.8-0.1
		C395.3,119.8,395.5,120.2,395.5,120.7z M272.5,121.5c0.6,0.3,0.9,0.9,1.5,1.1c0.1-0.8,0.2-1.5,0.4-2.2c-1.2,0-2.3-0.2-3.5-0.2
		C271.2,120.8,271.9,121.1,272.5,121.5z M364.7,122.9c1.6-0.7,3.2-1.4,4.7-2.2c-0.7-0.1-1.7,0-2.5-0.1c-0.1,0.3-0.1,0.6-0.4,0.8
		c-0.1-0.2,0-0.6,0-0.8c-0.2,0-0.3,0-0.5,0c-0.1,0.4,0,1-0.5,1.1c0-0.4,0-0.7,0-1.1c-0.2-0.1-0.5-0.1-0.6-0.1
		C365.1,121.5,364.9,122.2,364.7,122.9z M389,121.3c-0.1,0.3-0.2,0.6-0.4,0.8c-0.3,0.4-0.9,0.6-0.8,0.9c1.1-0.1,2.4,0,3.6-0.1
		c0-0.6-0.1-1.1-0.1-1.8C390.6,121.3,389.9,121.3,389,121.3z M271.8,123.2c0.2,0,0.3,0.1,0.5,0.1c0.1-0.3,0-0.6,0.1-0.9
		c-0.2-0.1-0.4-0.3-0.6-0.4C271.8,122.4,271.8,122.8,271.8,123.2z M386.5,122.3c0,0.2,0.1,0.2,0.2,0.4c0.2-0.1,0.4-0.2,0.5-0.5
		C386.9,122.2,386.8,122.3,386.5,122.3z M272.6,123.2c0.2,0.1,0.7,0.1,0.8,0c-0.3-0.1-0.5-0.5-0.8-0.6
		C272.7,122.8,272.7,123,272.6,123.2z M372.3,122.8c0.1,0.1,0,0.5,0.1,0.6c0.1-0.3,0.9-0.6,0.8-0.8
		C372.9,122.7,372.5,122.7,372.3,122.8z"/>
	<path class="st0" d="M309.5,98.7c0.1,0.4,0.6,0.7,0.8,1c0.4,0.8,0.1,1.9-0.1,2.8c0,0.3,0,0.6-0.1,0.9c0,0.1-0.2,0.2-0.2,0.4
		c-0.2,0.5-0.2,1-0.4,1.4c-0.8,0.8-1.2,2.5-3,2c-0.1-0.2-0.2-0.3,0-0.5c-0.7-0.4-0.8-2-0.7-3.2c0-0.6,0.3-1.1,0.5-1.8
		c0.3-0.9,0.7-2.1,1.3-2.6C308.1,98.5,308.9,98.5,309.5,98.7z M307.9,105.4c1.6-0.6,2.1-3,1.5-4.8c-0.2-0.1-0.3-0.3-0.5-0.4
		c-1.4,0-2.2,1.2-2.5,2.8c-0.1,0.8-0.1,1.8,0.4,2.4C307.2,105.3,307.5,105.3,307.9,105.4z"/>
	<path class="st0" d="M315.4,98.7c0.1,0.4,0.6,0.7,0.8,1c0.4,0.8,0.1,1.9-0.1,2.8c0,0.3,0,0.6-0.1,0.9c0,0.1-0.2,0.2-0.2,0.4
		c-0.2,0.5-0.2,1-0.4,1.4c-0.8,0.8-1.2,2.5-3,2c-0.1-0.2-0.2-0.3,0-0.5c-0.7-0.4-0.8-2-0.7-3.2c0-0.6,0.3-1.1,0.5-1.8
		c0.3-0.9,0.7-2.1,1.3-2.6C314.1,98.5,314.9,98.5,315.4,98.7z M313.8,105.4c1.6-0.6,2.1-3,1.5-4.8c-0.2-0.1-0.3-0.3-0.5-0.4
		c-1.4,0-2.2,1.2-2.5,2.8c-0.1,0.8-0.1,1.8,0.4,2.4C313.1,105.3,313.4,105.3,313.8,105.4z"/>
	<path class="st0" d="M344.6,98.7c0.1,0.4,0.6,0.7,0.8,1c0.4,0.8,0.1,1.9-0.1,2.8c0,0.3,0,0.6-0.1,0.9c0,0.1-0.2,0.2-0.2,0.4
		c-0.2,0.5-0.2,1-0.4,1.4c-0.8,0.8-1.2,2.5-3,2c-0.1-0.2-0.2-0.3,0-0.5c-0.7-0.4-0.8-2-0.7-3.2c0-0.6,0.3-1.1,0.5-1.8
		c0.3-0.9,0.7-2.1,1.3-2.6C343.3,98.5,344.1,98.5,344.6,98.7z M343,105.4c1.6-0.6,2.1-3,1.5-4.8c-0.2-0.1-0.3-0.3-0.5-0.4
		c-1.4,0-2.2,1.2-2.5,2.8c-0.1,0.8-0.1,1.8,0.4,2.4C342.3,105.3,342.6,105.3,343,105.4z"/>
	<path class="st0" d="M350.6,98.7c0.1,0.4,0.6,0.7,0.8,1c0.4,0.8,0.1,1.9-0.1,2.8c0,0.3,0,0.6-0.1,0.9c0,0.1-0.2,0.2-0.2,0.4
		c-0.2,0.5-0.2,1-0.4,1.4c-0.8,0.8-1.2,2.5-3,2c-0.1-0.2-0.2-0.3,0-0.5c-0.7-0.4-0.8-2-0.7-3.2c0-0.6,0.3-1.1,0.5-1.8
		c0.3-0.9,0.7-2.1,1.3-2.6C349.3,98.5,350.1,98.5,350.6,98.7z M349,105.4c1.6-0.6,2.1-3,1.5-4.8c-0.2-0.1-0.3-0.3-0.5-0.4
		c-1.4,0-2.2,1.2-2.5,2.8c-0.1,0.8-0.1,1.8,0.4,2.4C348.3,105.3,348.6,105.3,349,105.4z"/>
	<path class="st0" d="M290,102.9c-0.1,0-0.1,0-0.2,0c0.4,0.3-0.2,0.8,0.3,1c0.1,0.2-0.1,0.2-0.2,0.4c0.4,0.2-0.2,0.8,0.2,1.1
		c0.3,0,0.8-0.2,1.1-0.1c-0.2,0.6,0,1.4-0.5,1.6c-1.1-0.2-1.8,0.1-2.6-0.1c0.1-0.7,0.3-1,0.3-1.6c0.5,0,0.8,0.2,1.1-0.1
		c-0.2-0.3-0.1-0.6-0.3-0.9c-0.5,0.3-0.9,0-1.4,0.2c-0.1-0.1-0.1-0.2-0.1-0.4c-0.4,0.2-0.5,0.6-0.6,1.1c0.2,0.2,0.6,0.1,0.8,0.4
		c0,0.5,0.1,1.2-0.1,1.5c-0.8,0.1-1.6,0.1-2.6,0.1c-0.2-0.5-0.1-1.6,0.4-1.8c0.3,0.1,0.4,0.1,0.7,0.1c0.2-0.5,0.6-1.3,0.8-1.9
		c0-0.1,0.1-0.1,0.2-0.1c0.4-1.7,1.3-2.9,1.8-4.5c0.2-0.1,0.3-0.2,0.6-0.2c0.2,0.2,0.3,0.7,0.4,1.3C289.8,101,289.8,101.9,290,102.9
		z M287.8,103.5c0.5-0.2,0.9,0.2,1.4-0.1c-0.2-0.8-0.1-1.8-0.3-2.7C288.5,101.6,287.8,102.5,287.8,103.5z"/>
	<path class="st0" d="M357,98.8c0.2,0.6-0.2,1-0.1,1.6c-1.5-0.4-1.3,1.4-1.6,2.6c1.1-0.7,2-1.7,2.9-2.5c-1.1,0.1-1-0.8-0.9-1.7
		c1,0,2.2-0.3,3.2-0.1c0,0.5-0.2,1-0.2,1.5c-1.5,0-2.1,0.9-2.9,1.6c-0.1,0.3,0.2,0.6,0,0.8c0.8,0.6,0.3,1.8,0.9,2.6
		c0.4,0.1,0.5,0,0.9-0.1c0,0.7,0.1,1.5-0.4,1.8c-0.8-0.1-1.9-0.1-2.6-0.1c-0.3-0.5,0-1.2,0.2-1.6c0.3-0.1,0.4,0.1,0.8,0.1
		c0.1,0,0.1-0.2,0.2-0.2c-0.2-0.9-0.4-1.8-0.8-2.5c-0.3,0.2-0.6,0.3-0.9,0.5c-0.2,0.6-0.7,0.8-1,1.4c0.1,0.4,0.1,0.4,0.1,0.9
		c0.2,0,0.4,0,0.6,0c0.3,0.4,0,1,0.1,1.5c-0.2,0.1-0.5-0.1-0.7,0c0-0.1-0.1-0.1-0.1-0.3c-0.4,0.6-1.6,0.3-2.4,0.4
		c0-0.8,0.3-1.2,0.5-1.7c0.4-0.1,0.5,0.1,0.8,0.2c0.4-0.3,0.6-0.8,0.6-1.4c0-0.3,0.1-0.7,0.1-1.3c0-0.7,0.5-1.5,0.2-2.2
		c-0.3,0-0.9,0.2-1.1-0.1c0.3-0.5,0.1-1.4,0.6-1.7C355,99.1,355.9,98.5,357,98.8z M357.8,105.9c0.1,0.1,0.3-0.1,0.4-0.2
		C358,105.6,357.8,105.6,357.8,105.9z"/>
	<path class="st0" d="M270.2,102.3c-0.3,3.2-0.8,6.5-1.2,9.9c-0.3,2.5-0.7,4.9-1,7.3c-0.1,0.8-0.1,1.6-0.5,2.3
		c0-3.4,0.7-6.6,1.1-9.9C269.1,108.6,269.5,105.3,270.2,102.3z"/>
	<path class="st0" d="M329,103.7c0.2,1.3-1.2,1-2.2,0.9c0.3-0.5,0.2-1.1,1.1-0.9c0,0,0.2,0.2,0.3,0.2
		C328.3,103.8,328.7,103.4,329,103.7z"/>
	<path class="st0" d="M193.3,105.4c-1.1,0.4-2.5,0.5-3.9,0.6c-0.1-0.3-0.3-0.6-0.3-1.1c0.9-0.7,2.7-0.6,3.9-0.6
		C193.3,104.5,193.5,105,193.3,105.4z"/>
	<path class="st0" d="M73.3,109.1c1.2-0.2,2.1-0.9,3.4-0.7c1.6,1.8-1.6,2.8-3.5,2.3c-1-0.3-2-1.4-1.8-2.8c0.1-0.7,1-1.5,1.8-1.9
		c1-0.5,2.9-0.7,4.1-0.8c1.7-0.1,3.5,0.1,5.2,0.2c4.9,0.4,9.8,0.9,14.6,1.5c3.3,0.4,6.7,0.6,10,0.8c2.6,0.2,5,0.3,7.7,0.4
		c0.9,0,1.8-0.1,2.6,0.1c0.3,0.1,2.3,0.7,0.4,0.9c-2.4,0.3-4.8,0-7-0.2c-3.1-0.2-5.1-0.4-7.8-0.5c-1.4-0.1-2.7,0-4-0.2
		c-1.3-0.1-2.5-0.3-3.7-0.5c-1.3-0.1-2.6-0.2-3.8-0.4c-1.3-0.2-2.5-0.3-3.8-0.4c-1.6-0.1-3.6-0.5-5.3-0.6c-2.7-0.2-5.5-0.2-7.9,0.5
		C73.2,107.3,72,108.1,73.3,109.1z"/>
	<path class="st0" d="M373.9,105.2C374,105.2,374,105.3,373.9,105.2c0,2.8-0.2,5.4-0.6,7.9c-0.4,2.5-0.6,5-1.2,7.3
		c-0.2-3,0.5-5.9,0.9-8.8C373.3,109.5,373.6,107.4,373.9,105.2z"/>
	<path class="st0" d="M129.4,109c0.7-0.4,1.6-0.4,2.4-0.5c2.5-0.3,5.4-0.1,8.3-0.2c1.8-0.1,3.7-0.1,5.6-0.2
		c3.6-0.2,7.4-0.4,11.2-0.4c5.7,0,11-0.8,15.8-1.5c0.3,0,1.1-0.1,1.2,0.4c0.2,1-1.2,0.9-2.1,1c-1,0.1-2,0.2-2.7,0.3
		c-3.9,0.3-7,0.8-11.1,0.9c-4,0.1-7.6,0.3-11.6,0.5C140.8,109.7,134.6,110.1,129.4,109z"/>
	<path class="st0" d="M67.6,107.3C67.6,107.3,67.6,107.3,67.6,107.3c-0.4,2.4-1.9,4.2-3.3,5.5c-2.3,2.1-4.6,3.8-7.9,4.9
		c-2.5,0.9-5.1,1.6-8.8,1.3c-1.3-0.1-2.5-0.7-3.6-1c-0.9-0.3-1.6-0.4-2.4-0.6c-2.2-0.8-4.1-1.8-6.1-3.1c-2.5-1.7-4.3-4-6.5-5.7
		c-1.7,0.8-4.5,1.7-6.6,0.7c-1.6,5.5-4.8,10-9.2,13.1c-0.6,0.4-1.1,1-1.6,1.2c-0.4,0.2-1,0.4-1.5,0.6c-0.5,0.2-0.9,0.5-1.4,0.7
		c-1.4,0.5-3.8,0.9-5.5,0.6c-0.5-0.1-1.2-0.3-1.4-0.8c1.9,0.2,4.6,0.1,6.5-0.6c0.5-0.2,1-0.5,1.5-0.8c1.1-0.5,1.7-0.7,2.6-1.4
		c1.2-0.9,2.5-1.8,3.5-2.9c0.7-0.7,1.2-1.6,1.9-2.4c1.8-2.3,3.1-5.1,4-8.3c0.9,0,1.4,0.6,2.2,0.7c1.5,0.2,3-0.3,3.8-0.8
		c0.4-0.2,0.7-0.9,0.9-0.9c0.3,0,0.8,0.6,1.2,1c2,1.8,3.7,3.7,5.9,5.3c2.1,1.5,4.4,2.6,7.3,3.5c1.6,0.5,3.4,1.2,5.1,1.2
		c3.9,0.1,7.2-0.8,9.9-2.1c1.1-0.5,2.2-1.4,3.2-2.1c1.7-1.2,2.9-2.3,4.1-3.9c0.8-1,1.4-1.6,1.9-2.8
		C67.5,107.4,67.6,107.4,67.6,107.3z"/>
	<path class="st0" d="M263.4,107.3c0.4,0.6,0.1,1.9-0.2,2.5c-0.4-0.1-0.1-0.7-0.1-1.1c0.1-0.4,0.1-1,0.2-1.2
		C263.3,107.4,263.4,107.4,263.4,107.3z"/>
	<path class="st0" d="M265.1,107.7c0.3,0.9,0.1,2.4-0.2,3.1C264.4,109.9,265.1,108.7,265.1,107.7z"/>
	<path class="st0" d="M262.5,107.9c0.3,0.2,0.2,1,0,1.3C262.1,109.1,262.3,108.2,262.5,107.9z"/>
	<path class="st0" d="M261.3,108.1c0.3,0,0.2,0.5,0.1,0.6C261.2,108.7,261.2,108.2,261.3,108.1z"/>
	<path class="st0" d="M379.4,108.2c0.2,0.3,0.3,1.4-0.2,1.4C379,109.1,379.2,108.6,379.4,108.2z"/>
	<path class="st0" d="M380.2,108.5c0.1,0,0.1,0.1,0.2,0.1c0,0.2,0,0.4,0,0.5c-0.1,0-0.1,0.1-0.2,0.1c0-0.1-0.1,0-0.1-0.1
		C380,108.9,380,108.6,380.2,108.5z"/>
	<path class="st0" d="M268.1,109.5c0.1,0,0.1,0,0.2,0c0.1,0.4,0,1.1-0.2,1.5C267.8,110.6,268,109.8,268.1,109.5z"/>
	<path class="st0" d="M297.7,113.9c-0.1,0-0.1,0-0.2,0c0.4,0.3-0.2,0.8,0.3,1c0.1,0.2-0.1,0.2-0.2,0.4c0.4,0.2-0.2,0.8,0.2,1.1
		c0.3,0,0.8-0.2,1.1-0.1c-0.2,0.6,0,1.4-0.5,1.6c-1.1-0.2-1.8,0.1-2.6-0.1c0.1-0.7,0.3-1,0.3-1.6c0.5,0,0.8,0.2,1.1-0.1
		c-0.2-0.3-0.1-0.6-0.3-0.9c-0.5,0.3-0.9,0-1.4,0.2c-0.1-0.1-0.1-0.2-0.1-0.4c-0.4,0.2-0.5,0.6-0.6,1.1c0.2,0.2,0.6,0.1,0.8,0.4
		c0,0.5,0.1,1.2-0.1,1.5c-0.8,0.1-1.6,0.1-2.6,0.1c-0.2-0.5-0.1-1.6,0.4-1.8c0.3,0.1,0.4,0.1,0.7,0.1c0.2-0.5,0.6-1.3,0.8-1.9
		c0-0.1,0.1-0.1,0.2-0.1c0.4-1.7,1.3-2.9,1.8-4.5c0.2-0.1,0.3-0.2,0.6-0.2c0.2,0.2,0.3,0.7,0.4,1.3
		C297.5,112,297.5,112.9,297.7,113.9z M295.5,114.5c0.5-0.2,0.9,0.2,1.4-0.1c-0.2-0.8-0.1-1.8-0.3-2.7
		C296.2,112.6,295.5,113.4,295.5,114.5z"/>
	<path class="st0" d="M345.6,109.8c0.6,0.3,0.2,1.5-0.2,1.8c-0.3,0.1-0.3-0.1-0.5-0.1c-0.4,0.1-0.3,0.5-0.4,0.8
		c-0.3,1.3-0.7,2.8-0.9,4.2c0.4,0.1,0.4,0.3,0.8,0.1c0.4,0.3,0.1,0.9,0.1,1.4c-0.3,0.1-0.6,0-1.1,0.1c-0.1-0.1,0-0.1,0-0.3
		c-0.2,0-0.1,0.3-0.3,0.3c-0.5-0.2-0.8,0-1.4,0c0-0.6-0.2-1.3,0.4-1.5c0.3,0,0.5,0,0.8,0.1c0.5-0.8,0.4-1.9,0.6-3
		c0.1-0.6,0.5-1.3,0.3-2c-0.3,0-0.8,0.2-1-0.1c0-0.9,0.4-2.1,1.4-1.4C344.5,109.7,345.2,110,345.6,109.8z"/>
	<path class="st0" d="M374.3,110.6c0.1,1.6-0.2,3.3-0.4,4.9c-0.1,1.3-0.5,2.6-0.6,3.8c0,0.3,0.1,0.8-0.2,1.1
		c-0.3-0.2-0.3-0.7-0.2-1.1c0.1-0.8,0.3-1.7,0.4-2.6C373.6,114.6,373.9,112.5,374.3,110.6z"/>
	<path class="st0" d="M267.8,112.3c0.2,0.6,0.1,1.8-0.2,2.2C267.2,113.9,267.8,113,267.8,112.3z"/>
	<path class="st0" d="M41.7,118.7c-1.8-0.1-3.2-0.5-4.8-1.2c-0.6-0.2-1.4-0.6-1.9-0.9c-0.4-0.3-0.8-0.7-1.3-1
		c-1.2-0.8-2.9-2-4.5-2.2c-2.7-0.4-5.1,1.7-4.9,4c0.1,0.9,0.6,1.3,1.4,1.8c0.4,0.3,0.8,0.6,1.3,0.7c1.1,0.2,1.6-0.3,2.5-0.4
		c0,1.2-1.4,1.6-2.7,1.4c-0.6-0.1-1-0.5-1.5-0.8c-1-0.6-1.9-1.3-2-2.6c-0.2-2.9,2.6-5.5,6.1-5.1c0.8,0.1,1.8,0.5,2.5,0.9
		c1.4,0.7,2.6,1.8,3.6,2.7C37.3,117.1,39.5,117.9,41.7,118.7z"/>
	<path class="st0" d="M202,112.9c0.5,0.3,1,0.7,1.1,1.5C202.3,114.7,202.1,113.6,202,112.9z"/>
	<path class="st0" d="M8.2,115.3c-1.1,1-2.4,2.9-4.4,3.1c-1.6,0.2-2.9-0.6-2.7-2.4c0.1-0.9,1.1-1.9,2.2-1.7c0.7,0.1,1.3,1,1.2,2.1
		c1.7-0.3,2.4-1.6,3.5-2.5C8.9,114.1,8.2,114.9,8.2,115.3z"/>
	<path class="st0" d="M27.6,115.3c-0.1,0.6-0.7,0.5-0.6,1.1c0.1,0.4,0.7,0.4,0.9,0.8c0.3,1.4-1.2,1.7-2.1,1.1
		c-0.6-0.9-0.1-2.3,0.5-2.8C26.7,115.4,27.3,114.8,27.6,115.3z"/>
	<path class="st0" d="M30.1,118.7c-0.4-0.6,0.4-1.1,0.1-1.8c-0.4-0.5-1.1-0.8-1.6-1.3c0.5-0.8,1.1-0.1,1.5,0.2
		c0.3,0.2,0.6,0.3,0.8,0.5C31.4,117.1,31.1,118.5,30.1,118.7z"/>
	<path class="st0" d="M203.5,115.2c0.8,0.2,1.4,1,2,1.5c1.2,0.9,2.6,1.5,4.2,2.2c0.8,0.4,1.8,0.8,2.6,0.9c2.3,0.5,5.3,0,7.8-0.2
		c-1.6,1.7-6.5,1.2-8.9,0.5c-1.3-0.4-2.1-0.7-3.1-1.3c-0.6-0.3-1.2-0.6-1.6-0.8c-0.3-0.2-0.5-0.5-0.9-0.7c-0.9-0.6-1.6-1-2-2
		C203.5,115.4,203.5,115.3,203.5,115.2z"/>
	<path class="st0" d="M267.4,116c0,1.8,0,4.7-0.5,6.5c-0.4-0.4-0.1-1-0.1-1.5C267,119.4,267.2,117.7,267.4,116z"/>
	<path class="st0" d="M264.4,116.3c0.2,0.7,0,1.3-0.1,1.9c-0.1,0.9,0,1.9-0.5,2.5c-0.4-0.2-0.1-0.7-0.1-1.1
		C263.9,118.6,264,117.2,264.4,116.3z"/>
	<path class="st0" d="M263.4,117.2c0.2,1,0,2.5-0.4,3.3c-0.4-0.3,0-1,0.1-1.5C263.2,118.3,263.2,117.7,263.4,117.2z"/>
	<path class="st0" d="M266.5,117.9c0.1,0,0.1,0,0.1,0.1c-0.1,1.2-0.1,2.5-0.6,3.4C265.9,120.1,266.4,119,266.5,117.9z"/>
	<path class="st0" d="M262.4,118.2c0.3,0.5,0.2,1.8-0.1,2.2C261.7,119.9,262.2,118.7,262.4,118.2z"/>
	<path class="st0" d="M376.1,118.8c0.1,0,0.1,0.1,0.1,0.1c0,0.6,0,1.2-0.1,1.8c-0.1,0.8-0.1,1.8-0.7,2.2
		C375.4,121.5,375.8,120,376.1,118.8z"/>
	<path class="st0" d="M377.1,118.9c0.1,0,0.1,0,0.1,0.1c-0.3,1.1,0,2.9-0.7,3.6c-0.4-0.4-0.1-1.1,0.1-1.8
		C376.7,120.2,376.8,119.5,377.1,118.9z"/>
	<path class="st0" d="M382.4,119.2c0.1,0.8,0.1,1.9-0.4,2.4C381.5,121,382.4,120,382.4,119.2z"/>
	<path class="st0" d="M261.2,119.3c0.1,0.2,0.1,0.8-0.1,0.8C260.8,120.1,260.8,119.2,261.2,119.3z"/>
	<path class="st0" d="M260.1,119.9c0,0.2,0.1,0.4-0.2,0.4C259.8,120.2,259.8,119.8,260.1,119.9z"/>
	<path class="st0" d="M377.6,120.6c0.2,0.4,0.2,1.6-0.1,1.9C377.1,122,377.6,121.1,377.6,120.6z"/>
	<path class="st0" d="M382.8,120.6c0.1,0,0.1,0,0.2,0c0.1,0.1,0,0.5,0.1,0.7c-0.2,0-0.1,0-0.3,0C382.7,121,382.7,120.7,382.8,120.6z
		"/>
	<path class="st0" d="M270.3,121.4c0,0.4,0,1.2-0.2,1.5C269.8,122.6,269.9,121.5,270.3,121.4z"/>
	<path class="st0" d="M378.3,121.4c0.3,0,0.3,0.9-0.1,0.8C378.1,122,378.3,121.6,378.3,121.4z"/>
	<path class="st0" d="M245.7,45.9c-0.6-0.1-1,0-1.6,0c0.7,0.3,2,1.7,1.2,2.9c-0.5,0.7-2.2,0.5-2.6,0.2c-1.1-0.7-1.1-3.2-0.3-4.2
		c1.5-1.8,4.5-1.5,5.8,0.1c0.6,0.7,1,1.9,0.9,3.2c-0.1,1.8-0.8,3.2-1.6,4.4c-0.3,0.5-0.6,1-1,1.3c-1.3,1.1-3.8,1.9-6.1,1.8
		c-3.5-0.3-6-1.7-7.4-4.2c-0.9-1.5-1.8-3.8-0.9-5.8c-2.7,0.6-5.1-2.2-3.8-4.8c-2.6-0.1-3.9-1-5.3-2.4c-0.6-0.5-1.1-1.3-1.2-2
		c1.1-0.4,2.2,0.1,3.4-0.1c2.6-0.3,3.9-2.5,4.8-4.6c0.5-1.4,1.1-2.9,1.2-4.5c0.2-2.7-0.4-5.3-1.3-7.6c-0.7-1.6-1.5-3-2.5-4.2
		c-0.8-1.1-1.9-2.3-3.2-2.8c-1.6-0.7-3.8-0.7-5.5-0.2c-0.8,0.2-1.5,0.7-2.2,1c-3,1.3-6.2,5.4-4.7,9.9c0.1,0.2,0.2,0.4,0.3,0.6
		c0.3,0.6,1,1,1,1.5c0,0.5-0.3,0.6-0.5,0.9c-1,1.7-1.5,4-1.4,6.7c0.2,3.1,1.6,5.6,3,7.5c1,1.4,2.4,2.8,4.1,3.8
		c0.5,0.3,1.4,0.6,1.5,1.1c0.2,0.9-0.7,2-0.6,2.9c6-0.1,8.9,3.4,9,9.3c1,0.2,2.1-0.2,2.9,0.2c0.5,1.6,1.4,2.8,2.3,4.2
		c0.6,0.9,1.2,1.7,1.8,2.5c1.2,1.6,2.3,3.5,3.2,5.3c1.9,3.7,3.8,7.7,4.2,12.9c0.2,2.1-0.1,4.3-0.2,6.5c-0.2,2-0.5,4-0.9,5.8
		c-1,3.6-2.2,7-3.7,9.6c-0.2,0.3-0.5,0.7-0.8,1.1c-0.2,0.4-0.4,0.8-0.6,1.2c-0.4,0.7-1.1,1.5-1.7,2.2c-0.6,0.7-1.1,1.5-1.7,2.1
		c-0.7,0.8-1.7,1.5-2.6,2.3c-2.5,2.2-6.3,3.6-10,4.6c-4.3,1.1-9.2,0.4-12.3-1.4c-1.4-0.8-2.7-1.9-3.8-3.1c-0.3-0.4-0.6-0.7-0.9-1
		c-0.6-0.7-1.2-1.4-1.9-2c-1.5-1.2-3.2-1.8-5.6-2.2c0.1-2.7,0.3-5.4,0.1-8.2c-0.1-2.6-0.5-5.2-0.8-7.7c-0.3-2.5-0.9-4.7-1.6-6.9
		c-0.7-2.2-1.7-4.1-2.9-5.6c-0.4-0.6-1.2-1.3-1.8-1.6c-1.6-0.8-3.8-0.8-5.7-0.3c0.7-2,2.5-3.5,4.7-4.4c3-1.2,7-1.4,9.2,0.7
		c0.4,0.4,0.6,1,1.1,1.4c-0.1,0.4-0.6,0.8-0.8,1.5c-0.2,1-0.1,2.5,0.7,2.6c0.8,0.1,1.3-1.3,1.2-2.4c-0.1-0.6-0.8-1.1-0.7-1.5
		c0.2-0.6,2-0.7,2.8-0.6c0.7,0.1,1.5,0.3,2.4,0.8c0.6,0.3,1.5,1,1.5,1.6c0,0.4-0.5,0.5-0.9,0.8c-0.6,0.5-1.1,1-0.9,2
		c0.2,1,2.1,1.2,2.7,0.1c0.4-0.8,0.1-1.9,0.1-2.7c0.7-0.6,2.1-0.4,2.9-0.3c2.3,0.5,4.3,2.1,5.9,3.3c0.6,0.9,1.5,1.8,2,3
		c0.3,0.8,0.6,1.8,0.5,2.7c-0.9,0.1-1.5-0.3-2.4-0.3c-2.2,0.1-3.3,1.7-4.5,3.2c-1.1,1.4-1.5,2.6-1.8,4.7c-0.1,0.9-0.1,1.8-0.2,2.8
		c-0.2,2.3-0.2,4.6,0.2,6.9c0.3,1.4,0.4,2.8,1,3.8c0.8,1.3,2.4,2.7,3.6,3.2c1.8,0.7,4,0,5-1.2c0.5-0.6,1.2-1.7,1.5-2.5
		c0.6-1.6,0.5-3.6,0.6-5.6c3.5-0.2,5.5-1.9,7.3-3.8c-3.2,0.9-7.3,0.7-9.9-0.5c-0.9-0.4-2.2-1.3-2.5-2.3c1.1-0.3,2.3,0.1,3.6-0.1
		c2.8-0.5,4.3-2.9,4.6-5.9c0.3-4-0.9-6.6-2.6-9.5c-1.2-2-2.3-3.5-3.6-5.3c-0.9-1.2-1.8-1.9-3.2-2.4c0-0.9,0.7-1.5,0.6-2.6
		c-0.5-0.4-1.1-0.4-1.6-0.6c-1.6-0.6-2.9-1.4-4.2-2.4c-1.6-1.7-3-4.4-2.3-7.9c-0.3-0.3-0.6-0.5-1.2-0.6c-0.5-0.1-1.3-0.1-1.6-0.3
		c-0.2-0.2-0.3-0.8-0.4-1.2c-0.5-1.8-1.6-3.7-2.4-5.3c-1.8-3.4-3.5-6.6-5.7-9.7c-0.5-0.8-1.1-1.4-1.6-2.2c-1.2-1.6-2-3-3.6-4.3
		c-0.6-0.5-1.8-1.2-2.4-1.3c-2.5-0.4-5.3,1.1-5.9,2.8c-0.8,2,0.7,3.7,2.8,2.9c-0.1-0.4-0.5-0.6-0.5-1.2c0.1-1.7,2.7-1.9,3.4-0.8
		c0.3,0.4,0.7,1.8,0.2,2.7c-0.4,0.8-1.8,1.6-2.8,1.8c-2.2,0.6-4.2-0.3-5.1-1.7c-1.5-2.2-1-5.8,0.4-7.9c1-1.6,3.2-3.3,5.1-4
		c2.3-0.9,4.2-1.5,7.5-1.6c-3.4-1.4-6.3-3.2-7.8-6.5c4.8,1.7,10-0.2,12.9-2.7c1.1-0.9,2.2-1.7,3.1-2.7c1-1,2.1-1.8,3.2-2.6
		c2.2-1.8,4.5-3.2,7.2-4.4c1.4-0.6,2.8-1,4.3-1.5c1.6-0.5,3.5-0.3,5.5-0.6c0.6-0.1,1.4-0.1,2.1,0c3,0.3,5,1.3,7.1,2.5
		c1.1,0.6,2,1.1,2.9,1.8c1.7,1.4,3.2,3,4.6,5c0.3,0.5,0.7,0.9,1.1,1.3c1.7,1.9,3.2,5.3,3.2,8.6c0,1.7-0.5,3.4-1,5
		c-1.3,4.4-3,9.5-3,14.9c0,2.9,0.6,6,2.4,7.1c1.2,0.7,3.2,0.6,4.5,0C246.5,50.9,247.7,47.7,245.7,45.9z M234.6,33.1
		c-0.4,0.8-1.1,1.4-1.2,2.5c0.4,0.1,1.1,0,1.4-0.3c1.6-1.2,1.9-7.4,0.9-9.4c0,0,0-0.1-0.1-0.1C235.8,29,235.6,31.1,234.6,33.1z
		 M201.7,27.8c-1.3,0.7-2.1,3.3-1.8,5.5c0.2,2,1.3,3.9,2.9,4.3c0.9,0.2,1.5-0.2,1.5-1.2c-0.4-0.5-1-0.4-1.5-0.8
		c-0.7-0.6-1.1-2.1-1.2-3.5c-0.1-1.9,0.6-3.1,0.8-4.3C202.2,27.7,201.8,27.7,201.7,27.8z M208.3,41.5c-1-0.3-2.3-0.3-3.1,0.5
		c-0.5,0.6-0.6,2.2,0.1,2.5c1,0.1,1.3-0.4,2.1-0.4c0.4,0.2,0.5,1.1,0.2,1.4c0.9,1.4,1.2,3.5,1.4,5.6
		C210.8,49.1,211.1,42.9,208.3,41.5z M216.6,51.5c0,0.2,0,0.2-0.1,0.4c-0.3,3.3,0,7.1-0.8,9.9c-0.4-3.3,0.1-6.6,0.1-10.2
		c-0.4,0-0.7,0.1-0.9,0.2c0,1.1-0.1,2-0.4,2.8c-0.1-0.8-0.2-1.7-0.3-2.5c-1.2,0.2-0.3,2.4-1,3.1c-0.4-0.4-0.3-1.3-0.4-2.1
		c-0.7,0.1-0.5,1.2-0.6,2.2c-0.1,2.4,0.1,5.2,0.1,7.6c0,0.4-0.1,0.9,0.2,1.2c0-2.7,0.3-5.1,0.5-7.6c0.4,1,0.2,2.2,0.2,3.4
		c0,1.3,0.2,2.6,0.2,3.8c0,0.4-0.2,0.9,0.2,1.3c0.1-2.1,0.2-4.1,0.5-6.1c0.2-1.2,0.1-2.4,0.5-3.5c-0.2,2.9-0.1,5.8,0.1,8.5
		c0,0.5-0.2,1.3,0.3,1.6c0.3-0.7,0.3-1.6,0.5-2.3c0.2,0.7,0.1,1.8,0.3,2.6c0.2,0,0.3,0.1,0.5,0.1c0.2-3.7,0.5-7.3,1.2-10.6
		c0.1,3.8,0.2,7.3-0.2,10.8c0.3,0,0.5,0,0.8,0c0.6-1.5,0.3-3.8,0.7-5.4c0,1.9,0.2,3.6,0.1,5.3c0.3,0,0.5,0,0.7-0.1
		c0.1-0.2-0.2-0.8,0.2-0.9c0.2,0.2,0.1,0.5,0.2,0.8c0.3,0,0.5-0.2,0.7-0.3c0.4-3.3,0.4-7,0.9-9.9c0.2,3,0.1,6.2,0,9.3
		c1-0.4,0.8-1.8,0.9-3.2c0.1-1.3,0.1-2.8,0.4-3.8c0.1,1.7,0,3.7,0.3,5.2c1.3-2.1,1.7-6.5,0.1-8.5c-0.2,0.6,0,1.5-0.4,1.8
		c-0.2-1,0.2-2.8-0.9-3.1c-0.1,0.6-0.1,1.1-0.4,1.4c-0.3-0.5,0-1.5-0.2-2.1c-0.3-0.1-0.5-0.3-0.8-0.4c-0.1,1.6-0.1,3.3-0.5,4.6
		c-0.3-1.5-0.1-3.6-0.5-5c-0.1,0-0.3,0-0.4-0.1c-0.1,2.4,0,5.1-0.5,7.1c-0.1-2.4-0.1-5.2-0.4-7.2c-0.1,0-0.2,0-0.3-0.1
		c-0.2,0.7-0.2,1.5-0.4,2.2c-0.2-0.7-0.2-1.6-0.3-2.3C217,51.5,216.8,51.5,216.6,51.5z M210.6,60c-0.3-0.8-0.1-2.1-0.3-3.1
		c-0.7,2-0.1,4.6,0.9,5.8c0-3,0.2-6,0.5-8.7c0,0,0-0.1-0.1-0.1C210.6,55.3,211.4,58.4,210.6,60z M225.2,74.3
		c0.3,0.7,0.9,1.4,1.4,1.8c0.6,0.4,1.8,0.9,2.9,0.7c1.4-0.2,2.2-1.9,1.1-3.1c-1-0.4-1.1,0.8-1.7,0.6c-0.6-0.2-0.3-1.9-0.1-2.4
		c-2.2-0.6-3.4-2.9-2.9-5.8C224.6,68.4,224.3,71.9,225.2,74.3z M234.3,89.9c1.6-1.6,1.7-5.4,0.6-7.9c-0.2-0.5-0.6-1-0.9-1.3
		c-0.5-0.4-2.1-1-2.4-0.2c-0.3,1,0.9,1.4,1.3,1.8c0.4,0.5,0.7,1.3,0.8,2.1c0.2,0.8,0.4,1.8,0.2,2.7c-0.2,1.4-1.6,1.8-1.4,3.3
		C233.3,90.7,233.9,90.3,234.3,89.9z M201.9,85.6c-1.1,0.6-2,3-1.8,5c0.1,1.8,0.7,3.3,1.5,4.3c0.2,0.3,0.4,0.6,0.8,0.6
		c-0.7-1.8-0.4-4.7,0.6-5.9c-0.3-0.3-1-0.3-0.9-0.8c0.1-0.5,0.6-0.2,1.1-0.4c0.8-0.2,1.2-1.2,1.1-2.1
		C204,85.7,202.7,85.1,201.9,85.6z M227.7,108.6c0.3-0.3,0.8-0.4,1.1-0.7c0.8-0.7,2.3-2.8,1.4-4.2c-0.7-1.1-2.7-0.3-2.8,0.7
		c-0.1,0.8,0.4,1,0.8,1.5c-0.2,0.3-0.7,0.3-1.2,0.3c-0.6,1.7-1.6,3.1-2.6,4.5C225.6,110.2,226.7,109.3,227.7,108.6z"/>
	<path class="st0" d="M13.6,55.9c0.1,0.7-0.5,1.2-0.9,1.8c-0.2,0.4-0.4,1-0.6,1.6c-0.4,0.9-0.5,1.3-0.6,2.6c0,0.8-0.2,1.6-0.2,2.4
		c0.2,2.6,1.6,4.6,2.6,6.5c-1.8-1.4-3.7-3.8-3.5-7.6c0-0.8,0-1.8,0.2-2.5C11.1,58.6,12.4,56.9,13.6,55.9z"/>
	<path class="st0" d="M349.6,109.8c0.2,1.4,0.9,2.2,0.8,3.8c0.2,0.4,0.5,0.8,0.4,1.4c0,0.2,0.3,0.2,0.4,0.5c0.6-0.9,0.4-2.7,0.9-3.6
		c-0.1-0.2-0.3-0.3-0.2-0.6c-0.3,0-0.3,0.3-0.5,0.4c-0.9,0-0.2-1.3-0.1-1.7c1,0.1,1.6-0.1,2.5,0.1c0.1,0.6-0.1,1.3-0.5,1.6
		c-0.2,0-0.3-0.1-0.5-0.2c-0.9,1.4-0.6,3.4-1.4,4.8c0.1,0.6,0.4,2-0.6,1.9c-0.3-0.9-0.3-1.7-0.4-2.6c0-0.1-0.2,0-0.4-0.1
		c-0.1-1.3-0.5-2.2-0.7-3.3c-0.4,0.5-0.3,1.3-0.4,2.1c-0.1,0.9-0.7,1.6-0.5,2.3c0.3,0,0.6,0,0.8,0.1c0.3,0.6,0,0.9,0.1,1.5
		c-0.2,0.1-0.2-0.1-0.5,0c0-0.4,0.4-0.4,0.4-0.8c-0.2-0.3-0.5,0.2-0.6-0.2c-0.3,0.2,0,0.4,0.2,0.5c-0.1,0.2,0,0.5-0.3,0.4
		c-0.2,0-0.1-0.4-0.4-0.4c-0.3,0-0.1,0.4-0.3,0.4c-0.3,0-0.3-0.3-0.5-0.4c-0.1,0.1-0.1,0.3-0.2,0.4c-0.3,0-0.6,0.1-0.8-0.1
		c0-0.8,0.1-1.7,1.2-1.4c0.6-1.2,0.5-2.9,0.9-4.5c-0.1-0.3-0.6-0.2-0.9-0.2c-0.2-0.6,0.2-1.4,0.4-1.8
		C348.6,109.8,349.1,110,349.6,109.8z"/>
	<path class="st0" d="M349.6,27.3c0,2.6-0.1,5.7-0.3,8.3c-3,0.2-6.2-0.1-9.3,0.1c0-3,0.2-5.8,0.3-8.6
		C343.3,27.2,346.7,26.9,349.6,27.3z"/>
	<path class="st0" d="M111.5,101.2c-2.4,1.9-8.6,3-11.4,0.6c-0.6-0.5-1.1-1.4-1.6-1.6c-0.8-0.3-2,0.1-2.9,0.2
		c-1.2,0.1-2.1,0.1-3.1,0.2c-0.6,0.1-1.7,0.3-1.9-0.1c-0.2-0.4,0.9-1.9,1.1-2.2c0.7-1.1,1.3-2.2,1.8-3.7c0.8-2.4,1.4-5.8,0.8-9
		c-0.1-0.3-0.2-0.7-0.4-1.2c-0.1-0.4-0.5-0.8-0.4-1c0.1-0.7,1.9-0.6,2.6-0.7c1.9-0.3,4.6-0.8,6-1.4c0.9-0.4,2-1.4,2.8-2.2
		c0.7-0.6,1.3-1.5,1.9-2.2c0.6-0.8,1.3-1.6,1.6-2.4c0.9-2-0.6-4-1.6-5.1c-0.7-0.1-0.9-0.5-1.4-0.5c-1.4-0.2-3.1,1-3.2,2.4
		c-0.1,1,0.2,2.4,0.9,2.8c0.5,0.3,1.1,0,1.5,0.1c-0.3,2.3-3.2,4.1-5.9,2.9c-0.5,1.4-1.2,1.9-2.4,2.8c-1.2,0.8-1.7,1.3-3.6,1.1
		c-0.9-0.1-2-0.5-2-1.1c0-0.4,0.6-0.8,0.8-1.1c0.3-0.3,0.7-0.7,0.9-1c0.4-0.8,0.7-2.2,0.8-3.3c0.1-1.5-0.2-2.8-0.6-3.8
		c-0.1-0.3-0.7-0.7-0.7-1c0-0.6,0.7-0.6,1.1-0.9c1-0.7,2.6-2.1,3.1-2.9c0.5-0.8,0.4-1.5,1.3-1.7c0.8-0.1,2.2,0,3.1,0.1
		c1.4,0.1,3,0.3,4.3,0.4c1.2,0.1,2.6,0,3.8,0c1.2,0,2.5,0.2,3.6,0.2c0.7,0,1.5-0.2,2.1-0.1c0.5,0.1,1,0.6,1.5,0.9
		c0.5,0.3,0.9,0.7,1.4,1.1c0.7,0.5,2.7,1.3,2.8,2.1c0,0.3-0.2,0.8-0.3,1.2c-0.1,0.4-0.2,0.9-0.3,1.2c-0.4,1.1-1.3,2.2-1.5,3.5
		c-0.6,3.1-0.8,6.7-0.8,10.2c0,2.3-0.2,4.5-0.1,6.6c0.1,1.2,0.3,2.6,0.5,3.9c0.6,5.6,3.5,8.5,7.3,11.1c0.3,0.2,0.7,0.4,1.1,0.8
		c0.2,0.2,1,0.6,0.8,0.9c-0.2,0.6-2.7-0.1-3.4-0.3c-1.2-0.3-2.4-0.7-3.2-1.1c-0.7-0.4-1.2-1.4-2.1-1.6c-0.5-0.1-1,0.1-1.4,0.1
		c-1.9,0-3-0.3-3.9-1.4C112.2,103.5,111.3,102.2,111.5,101.2z M102.5,87c-0.1,1.7-0.2,3.5,0,5.1c0.3,2.2,0.5,4.3,1.6,5.7
		c1.1,0.7,2.8,0.6,3.8-0.1c1.2-1,1.2-3.3,1.4-5.4c0.2-3-0.1-6.3-0.1-8.9c0,0-0.1,0-0.1,0C106.9,84.6,104.5,85.6,102.5,87z"/>
	<path class="st0" d="M336.7,98.7c0.1,0.2,0.3-0.1,0.4-0.1c0,0.1,0,0.2,0,0.2c0.1-0.1,0.1-0.3,0.2-0.3c0.5,0.1,1.5-0.1,1.9,0.3
		c0,0.5,0.3,0.6,0.5,0.9c0,0.9-0.3,1.4-0.4,2.2c-0.3,0.2-0.5,0.3-0.8,0.6c1.1,0.5,0.5,2.1,0.2,3.1c-0.4,0.2-0.7,0.4-0.8,0.9
		c-1.2,0.7-3,0.3-4.6,0.2c0.2-0.5,0.2-1.3,0.5-1.6c0.2,0,0.6-0.1,0.8,0.1c0.1-0.1,0.3-0.2,0.4-0.3c0-1.6,0.5-3,0.8-4.5
		c-0.4-0.4-1,0.1-1.4-0.4c0.1-0.4,0.3-0.8,0.2-1.2c0.5-0.5,1.5-0.2,2.1-0.2C336.9,98.7,336.8,98.7,336.7,98.7z M338,102.2
		c0.4-0.1,0.8-0.7,0.8-1.1c0-0.8-1.3-1.1-2-0.8c0,0.6-0.5,1.2-0.2,1.9C337,102,337.5,102.3,338,102.2z M336.9,102.9
		c-0.1,0-0.5,0-0.6,0.1c-0.3,0.3-0.1,1.5-0.4,2.1c0.3,0.1,0.5,0.1,0.8-0.1c0.2,0.2,0,0.3-0.1,0.5c0.3,0,0.2-0.3,0.4-0.4
		c0.7,0.1,1.2-0.5,1.4-1c-0.2-0.3-0.1-0.7-0.2-0.9C337.8,103.1,337.3,102.8,336.9,102.9z"/>
	<path class="st0" d="M321.7,98.6c-0.2,0.8-0.3,1.7-0.4,2.7c-0.1,0.1-0.3,0.2-0.5,0.2c-0.2-0.1-0.1-0.4-0.1-0.7
		c-0.4-0.2-0.7-0.6-1.2-0.5c0-0.1,0-0.2,0-0.3c-0.1,0.5-0.7,0.6-0.8,1.1c0,0.5,0.5,0.6,0.7,1.1c0.2,0,0.4,0,0.5,0
		c0.4,0.5,1,0.5,1,1.3c0,0.2-0.2,0.5,0.1,0.8c-0.1,0.6-0.4,1-0.5,1.6c-0.4,0.3-0.6,0.6-0.8,1c-0.3,0.2-0.8,0.1-1.2,0.1
		c-0.2-0.3-0.2-0.7-0.6-0.8c-0.2,0.1-0.1,0.5-0.2,0.7c-0.2,0.1-0.3,0.1-0.5,0c0-0.4,0.1-0.6,0.2-0.8c0.1-0.9,0-2.2,0.7-2.6
		c0,0.3,0.1,0.7,0,0.9c0.2,0.4,0.6,0.7,1,0.9c0.4-0.3,1.4-0.5,1.3-1.8c-0.2-0.1-0.4-0.3-0.4-0.6c-0.7-0.1-1.1-0.4-1.6-0.7
		c-0.6-1.3,0-3.2,1.1-3.6c0.3,0.1,1.2-0.3,1.4,0.4C321.3,99.1,321.2,98.3,321.7,98.6z M319.5,99.5c0-0.1,0.3-0.4,0.1-0.5
		C319.6,99.1,319.2,99.4,319.5,99.5z"/>
	<path class="st0" d="M365.5,98.6c-0.2,0.8-0.3,1.7-0.4,2.7c-0.1,0.1-0.3,0.2-0.5,0.2c-0.2-0.1-0.1-0.4-0.1-0.7
		c-0.4-0.2-0.7-0.6-1.2-0.5c0-0.1,0-0.2,0-0.3c-0.1,0.5-0.7,0.6-0.8,1.1c0,0.5,0.5,0.6,0.7,1.1c0.2,0,0.4,0,0.5,0
		c0.4,0.5,1,0.5,1,1.3c0,0.2-0.2,0.5,0.1,0.8c-0.1,0.6-0.4,1-0.5,1.6c-0.4,0.3-0.6,0.6-0.8,1c-0.3,0.2-0.8,0.1-1.2,0.1
		c-0.2-0.3-0.2-0.7-0.6-0.8c-0.2,0.1-0.1,0.5-0.2,0.7c-0.2,0.1-0.3,0.1-0.5,0c0-0.4,0.1-0.6,0.2-0.8c0.1-0.9,0-2.2,0.7-2.6
		c0,0.3,0.1,0.7,0,0.9c0.2,0.4,0.6,0.7,1,0.9c0.4-0.3,1.4-0.5,1.3-1.8c-0.2-0.1-0.4-0.3-0.4-0.6c-0.7-0.1-1.1-0.4-1.6-0.7
		c-0.6-1.3,0-3.2,1.1-3.6c0.3,0.1,1.2-0.3,1.4,0.4C365.2,99.1,365,98.3,365.5,98.6z M363.3,99.5c0-0.1,0.3-0.4,0.1-0.5
		C363.4,99.1,363,99.4,363.3,99.5z"/>
	<path class="st0" d="M285,98.8c-0.2,1-0.2,2.3-0.6,3.2c-0.3,0.1-0.5,0-0.6-0.2c0.1-0.4,0.3-0.9,0.1-1.3c-0.1-0.4-0.6-0.4-0.5-0.8
		c-0.3,0.1-0.4,0.5-0.6,0.6c0,2.1-0.7,3.1-0.8,4.9c0.3,0,0.6,0,0.9,0c0,0.4,0.1,1.3-0.4,1.6c-0.8-0.1-2.1,0.2-2.8-0.2
		c0-0.5,0.1-1,0.4-1.4c0.2-0.1,0.8-0.1,1,0c0.4-1.5,0.6-3.3,1-4.9c0-0.2-0.4-0.1-0.4-0.4c-0.2,0.3-0.6,0.2-0.8,0.4
		c-0.4,0.4-0.2,1.3-0.6,1.6c-0.2,0-0.2-0.3-0.4-0.4c0.2-1.1,0.4-2.2,0.8-3.1c0.2-0.1,0.8-0.1,0.9,0.1c0.2,0,0.2-0.2,0.4-0.2
		C282.7,98.8,284.2,98.5,285,98.8z M282.6,99.8c0-0.2,0-0.3-0.2-0.3C282.4,99.7,282.4,99.8,282.6,99.8z"/>
	<path class="st0" d="M298.3,98.8c-0.2,1-0.2,2.3-0.6,3.2c-0.3,0.1-0.5,0-0.6-0.2c0.1-0.4,0.3-0.9,0.1-1.3c-0.1-0.4-0.6-0.4-0.5-0.8
		c-0.3,0.1-0.4,0.5-0.6,0.6c0,2.1-0.7,3.1-0.8,4.9c0.3,0,0.6,0,0.9,0c0,0.4,0.1,1.3-0.4,1.6c-0.8-0.1-2.1,0.2-2.8-0.2
		c0-0.5,0.1-1,0.4-1.4c0.2-0.1,0.8-0.1,1,0c0.4-1.5,0.6-3.3,1-4.9c0-0.2-0.4-0.1-0.4-0.4c-0.2,0.3-0.6,0.2-0.8,0.4
		c-0.4,0.4-0.2,1.3-0.6,1.6c-0.2,0-0.2-0.3-0.4-0.4c0.2-1.1,0.4-2.2,0.8-3.1c0.2-0.1,0.8-0.1,0.9,0.1c0.2,0,0.2-0.2,0.4-0.2
		C296,98.8,297.5,98.5,298.3,98.8z M295.8,99.8c0-0.2,0-0.3-0.2-0.3C295.7,99.7,295.7,99.8,295.8,99.8z"/>
	<path class="st0" d="M304.8,98.8c-0.2,1-0.2,2.3-0.6,3.2c-0.3,0.1-0.5,0-0.6-0.2c0.1-0.4,0.3-0.9,0.1-1.3c-0.1-0.4-0.6-0.4-0.5-0.8
		c-0.3,0.1-0.4,0.5-0.6,0.6c0,2.1-0.7,3.1-0.8,4.9c0.3,0,0.6,0,0.9,0c0,0.4,0.1,1.3-0.4,1.6c-0.8-0.1-2.1,0.2-2.8-0.2
		c0-0.5,0.1-1,0.4-1.4c0.2-0.1,0.8-0.1,1,0c0.4-1.5,0.6-3.3,1-4.9c0-0.2-0.4-0.1-0.4-0.4c-0.2,0.3-0.6,0.2-0.8,0.4
		c-0.4,0.4-0.2,1.3-0.6,1.6c-0.2,0-0.2-0.3-0.4-0.4c0.2-1.1,0.4-2.2,0.8-3.1c0.2-0.1,0.8-0.1,0.9,0.1c0.2,0,0.2-0.2,0.4-0.2
		C302.6,98.8,304.1,98.5,304.8,98.8z M302.4,99.8c0-0.2,0-0.3-0.2-0.3C302.3,99.7,302.3,99.8,302.4,99.8z"/>
	<path class="st0" d="M339.5,109.9c0.1,0.1,0,0.2-0.1,0.3c1,0.8,0.4,2.5-0.1,3.3c-0.2-0.1-0.2,0-0.4-0.1c-0.1,0.2-0.4,0.3-0.3,0.6
		c0,0.2,0.2,0.1,0.3,0.2c0.4,0.6-0.5,1.8,0.2,2.2c0.8,0.1,0.6-0.8,1.1-1.1c0.4,0.2-0.1,0.7-0.2,0.9c0,0.3,0.1,0.3,0.1,0.5
		c0,0.2-0.5,1-0.6,1.1c-0.4,0.2-1.1,0-1.2-0.3c-0.5-0.9,0.5-2.4,0.1-3.4c-0.2-0.3-0.5-0.2-0.9-0.4c-1,0.2-0.7,1.4-1.2,1.9
		c0,0.7,0.6,0.4,1.1,0.6c0.2,0.4-0.4,0.9-0.1,1.2c-0.2,0.1-0.3,0.4-0.5,0.4c-0.5-0.4-1.4,0.1-2-0.2c-0.6-1.3,1.1-1.3,1.3-2.2
		c0-0.1-0.1-0.1-0.2-0.1c0.2-0.2,0.2-0.6,0.2-0.9c0,0,0.2-0.2,0.2-0.2c0-0.1-0.1-0.3-0.1-0.5c0.1-0.8,0.8-1.6,0.4-2.6
		c-0.3,0-0.4,0.1-0.6,0c0-0.5-0.3-1.2,0.1-1.5C337.1,110.1,338.1,109.7,339.5,109.9z M337.5,111.3c-0.1,0,0-0.3-0.2-0.2
		c-0.3,0.7-0.3,1.7-0.4,2.4c1.3,0.2,3-0.6,2.2-2.1c-0.2,0.1-0.5,0.1-0.8,0.1c0-0.1-0.1-0.2-0.1-0.4c-0.3,0.1-0.2-0.2-0.5-0.2
		C337.6,110.9,337.7,111.2,337.5,111.3z"/>
	<path class="st0" d="M281.7,109.9c0.4-0.2,1-0.3,1.4-0.1c0.9,0,1.8-0.3,2.6,0.1c-0.5,0.8,0.1,2.8-1.1,3.1c0-0.6,0-1.2-0.3-1.6
		c-0.3,0.1-0.4-0.1-0.4-0.4c-0.2,0.5-1,0.7-1.3,0.4c-0.7,0.2-0.6,1.1-0.8,1.9c0.9,0.5,1.1-0.7,1.4-1.2c0.6,0.3,0,1.4-0.1,1.9
		c0,0.6,0.2,1.2-0.4,1.4c-0.5-0.3,0-1.7-0.9-1.5c-0.4,0.1-0.2,0.5-0.2,0.9c0,0.3-0.6,1-0.2,1.4c0.4,0,0.6-0.1,1.1-0.2
		c0.1,0.4,0.1,1.3-0.2,1.8c-0.4,0-0.6,0.1-0.9,0.1c-0.1-0.1,0-0.1,0-0.2c0,0-1.1,0.5-1.1-0.1c-0.2,0.3-0.9,0.2-1.1,0.1
		c0.2-0.6,0.1-1.4,0.5-1.6c0.3,0,0.2,0.3,0.4,0.4c0.1-0.1,0.1-0.3,0.2-0.4c0.1,0,0.1,0.1,0.3,0.1c0.3-0.3,0.3-0.8,0.2-1.3
		c0-0.3,0.2-0.2,0.2-0.4c-0.1-1,0.4-2.1,0.4-3c-0.4,0.1-0.6,0.1-1.1,0.1C280.1,110.3,280.8,109.2,281.7,109.9z M280.7,116.8
		c0.2,0.1,0.2-0.1,0.2-0.2c-0.1,0-0.1-0.1-0.2-0.1C280.7,116.6,280.7,116.7,280.7,116.8z"/>
	<path class="st0" d="M333.4,110.2c0,0.1,0,0.2-0.1,0.2c0.8,1.1,0,2.9-0.7,3.7c-0.1,0-0.1-0.1-0.2-0.1c0,0.1,0,0.2,0,0.4
		c-0.1,0.1-0.3,0.2-0.5,0.2c-0.2-0.2,0.1-0.5-0.2-0.6c-0.3,0.2-0.2,0.6-0.7,0.6c-0.2,0.1-0.1-0.1-0.1-0.2c-0.2,0.1-0.2,0.3-0.5,0.2
		c0-0.1,0.1-0.1,0.1-0.2c-0.4-0.1-0.4,0.2-0.7,0.2c-0.1,0.6-0.4,1.1-0.2,1.6c0.2,0.3,0.7,0,0.9,0.2c-0.1,0.4-0.3,0.9-0.3,1.4
		c-0.4,0.1-0.7-0.1-0.7-0.4c-0.4,0-0.6,0-1,0c-0.2,0.1,0.2,0.2,0.1,0.4c-0.5,0.1-0.6-0.1-1,0c-0.2-0.4,0-1.3,0.3-1.5
		c0.2,0.2,0.5,0,0.7,0.1c0.2-0.2,0.3-0.4,0.5-0.6c-0.2-0.8,0.3-2.2,0.4-3.2c0-0.1-0.1-0.2-0.1-0.4c0.1-0.5,0.5-1.1-0.1-1.2
		c-0.2,0.1-0.5,0.2-0.7,0.2c0-0.4,0.1-1,0.2-1.5c0.7,0,1.5-0.3,1.8,0.3c0.2,0.1,0.1-0.2,0.2-0.2
		C331.6,109.9,332.7,109.6,333.4,110.2z M330.3,111.3c0,0.8-0.3,1.4-0.4,2.3c1-0.1,2.3,0.1,2.9-0.5c0.1-0.6,0.4-1.6-0.2-1.9
		c-0.5,0.2-0.8-0.3-1.3,0.1C331,110.9,330.7,111.3,330.3,111.3z"/>
	<path class="st0" d="M290.6,109.9c0.1,0.6-0.2,1.1-0.2,1.8c-0.5,0-0.8,0-1.2-0.1c-0.2,0-0.1,0.3-0.3,0.3c-0.2,1.6-0.5,3-0.7,4.2
		c0.3,0.7,1.2,0,2.2,0.1c0.4-0.4,0.6-0.9,0.5-1.6c0.1-0.2,0.5-0.3,0.6-0.1c-0.1,0.9-0.6,1.8-0.5,2.6c-0.2,0.3-0.2,0.7-0.6,0.8
		c0-0.3,0.1-0.3-0.1-0.4c-0.2,0-0.1,0.2-0.2,0.3c-0.2,0-0.1-0.3-0.2-0.4c-0.2,0.1-0.1,0.4-0.5,0.3c0,0.1,0.1,0.1,0.1,0.2
		c-0.5-0.1-0.6,0.1-1.1,0c-0.1-0.2,0.3-0.1,0.2-0.4c-0.2-0.2-0.2,0.3-0.4,0.4c-0.2,0.1-0.1-0.4-0.2-0.2c-0.1,0,0-0.3,0-0.4
		c-0.2,0-0.4,0.2-0.5,0.3c0,0.2,0.3-0.1,0.3,0.1c-0.1,0.3-0.8,0.2-1,0.1c-0.2,0.1-0.6,0.2-0.8,0c-0.1-0.9,0.3-1.9,1.2-1.4
		c0.7-0.3,0.4-1.1,0.5-1.6c0.1-1,0.5-2.1,0.6-3.1c-0.2-0.3-0.6,0-1-0.1c0.1-0.6,0.2-1.1,0.3-1.6
		C288.6,109.8,289.7,109.9,290.6,109.9z M289.6,117c0.1,0,0.1,0.2,0.2,0.1c0-0.1,0.1-0.1,0.1-0.2C289.8,116.8,289.6,116.8,289.6,117
		z"/>
	<path class="st0" d="M320.4,117.2c0.1-0.4-0.4,0.3-0.4-0.2c-0.3,0-0.3,0-0.6,0c0,0.1-0.2,0.5-0.5,0.6c-0.2,0,0,0-0.1-0.2
		c0-0.1-0.2,0.1-0.4,0.1c0,0.1,0.3,0,0.2,0.2c-0.6,0.3-1.5,0.2-1.7-0.5c0.2-0.4-0.1-0.6,0.1-0.9c0.1-0.2-0.2-0.1-0.2-0.2
		c0.2-1.4,1.1-1.9,1.9-2.7c0-0.3-0.1-0.5-0.1-0.7c-0.1-0.1-0.1-0.1-0.2-0.2c-0.2-1.6,0.6-3.6,2.6-3c0.5,0.5,0.4,1.5,0.4,2.2
		c-0.5,0.6-0.9,1.4-1.8,1.6c-0.1,0.8,0.5,1.3,0.5,1.9c0.9-0.2,0.8-2.4,2.1-1.9c-0.2,0.7-0.8,1-1,1.7c-0.3,0.1-0.4,0.5-0.8,0.5
		c0.1,0.2-0.1,0.4-0.2,0.6c0.2,0.2,0.2-0.4,0.5-0.4c0.2,0.2-0.1,0.2-0.1,0.5c0.1,0.1,0.3-0.3,0.5-0.1c-0.1,0.2-0.1,0.2-0.2,0.5
		c0.3,0,0.3-0.3,0.3-0.6c0.7,0,0.7-1.2,1.5-0.8c0,1.1-0.7,1.4-0.9,2.2c-0.4,0-0.7,0.4-0.9,0.1c0,0.4-0.5-0.1-0.5,0.3
		c-0.2,0-0.2-0.3-0.5-0.3C320.3,117.4,320.4,117.1,320.4,117.2z M320.6,111.1c-0.2-0.3-0.6-0.1-0.9,0.1c-0.1,0-0.1-0.1-0.1-0.1
		c-0.5,0.4-0.4,1.2-0.2,1.9C320,112.8,321.2,111.7,320.6,111.1z M318.4,114.6c-0.5,0.2-0.5,0.6-0.5,1.1c0.4,0.5,1.5,0.5,2,0.2
		c0-0.3,0.1-0.4,0.1-0.6c-0.6-0.1-0.8-0.7-0.8-1.2C318.8,113.9,318.4,114.2,318.4,114.6z"/>
	<path class="st0" d="M304.8,109.6c-0.2,0.8-0.3,1.7-0.4,2.7c-0.1,0.1-0.3,0.2-0.5,0.2c-0.2-0.1-0.1-0.4-0.1-0.7
		c-0.4-0.2-0.7-0.6-1.2-0.5c0-0.1,0-0.2,0-0.3c-0.1,0.5-0.7,0.6-0.8,1.1c0,0.5,0.5,0.6,0.7,1.1c0.2,0,0.4,0,0.5,0
		c0.4,0.5,1,0.5,1,1.3c0,0.2-0.2,0.5,0.1,0.8c-0.1,0.6-0.4,1-0.5,1.6c-0.4,0.3-0.6,0.6-0.8,1c-0.3,0.2-0.8,0.1-1.2,0.1
		c-0.2-0.3-0.2-0.7-0.6-0.8c-0.2,0.1-0.1,0.5-0.2,0.7c-0.2,0.1-0.3,0.1-0.5,0c0-0.4,0.1-0.6,0.2-0.8c0.1-0.9,0-2.2,0.7-2.6
		c0,0.3,0.1,0.7,0,0.9c0.2,0.4,0.6,0.7,1,0.9c0.4-0.3,1.4-0.5,1.3-1.8c-0.2-0.1-0.4-0.3-0.4-0.6c-0.7-0.1-1.1-0.4-1.6-0.7
		c-0.6-1.3,0-3.2,1.1-3.6c0.3,0.1,1.2-0.3,1.4,0.4C304.5,110.1,304.3,109.3,304.8,109.6z M302.6,110.5c0-0.1,0.3-0.4,0.1-0.5
		C302.7,110.1,302.3,110.3,302.6,110.5z"/>
	<path class="st0" d="M365.4,109.6c-0.2,0.8-0.3,1.7-0.4,2.7c-0.1,0.1-0.3,0.2-0.5,0.2c-0.2-0.1-0.1-0.4-0.1-0.7
		c-0.4-0.2-0.7-0.6-1.2-0.5c0-0.1,0-0.2,0-0.3c-0.1,0.5-0.7,0.6-0.8,1.1c0,0.5,0.5,0.6,0.7,1.1c0.2,0,0.4,0,0.5,0
		c0.4,0.5,1,0.5,1,1.3c0,0.2-0.2,0.5,0.1,0.8c-0.1,0.6-0.4,1-0.5,1.6c-0.4,0.3-0.6,0.6-0.8,1c-0.3,0.2-0.8,0.1-1.2,0.1
		c-0.2-0.3-0.2-0.7-0.6-0.8c-0.2,0.1-0.1,0.5-0.2,0.7c-0.2,0.1-0.3,0.1-0.5,0c0-0.4,0.1-0.6,0.2-0.8c0.1-0.9,0-2.2,0.7-2.6
		c0,0.3,0.1,0.7,0,0.9c0.2,0.4,0.6,0.7,1,0.9c0.4-0.3,1.4-0.5,1.3-1.8c-0.2-0.1-0.4-0.3-0.4-0.6c-0.7-0.1-1.1-0.4-1.6-0.7
		c-0.6-1.3,0-3.2,1.1-3.6c0.3,0.1,1.2-0.3,1.4,0.4C365,110.1,364.8,109.3,365.4,109.6z M363.1,110.5c0-0.1,0.3-0.4,0.1-0.5
		C363.2,110.1,362.8,110.3,363.1,110.5z"/>
	<path class="st0" d="M309,109.9c0.2-0.3,0.4-0.2,0.9-0.2c0.1,0.6,0,1.2-0.2,1.6c-0.4,0.1-0.8-0.2-1.1,0.1c-0.1,0.1-0.3,1.1-0.4,1.2
		c0,0.4,0,0.7,0.2,0.8c0.6-0.2,1.3-0.2,2-0.1c0.4-0.4,0.3-1.3,0.5-1.9c-0.2-0.3-0.6-0.2-0.8-0.2c0.1-0.4,0.1-0.8,0.2-1.4
		c0.4-0.3,1.1-0.2,1.8-0.2c0.6,0,1-0.1,1.2,0.4c-0.1,0.4-0.1,0.9-0.4,1.2c-0.3,0-0.6,0-0.7-0.1c-0.2,0.1-0.4,0.2-0.5,0.4
		c-0.1,1.8-0.7,3-0.8,4.5c0,0.2,0.3,0.2,0.2,0.4c0.3-0.1,0.4-0.2,0.8-0.1c0,0.4-0.2,0.8-0.1,1.2c-0.2,0.5-0.9,0.3-1.4,0.3
		c-0.1-0.1,0.1-0.2-0.1-0.4c-0.2,0-0.2-0.1-0.4,0c0,0.2,0.3,0,0.2,0.2c-0.3,0.2-1,0.1-1.4,0.1c0.1-0.4,0.1-0.9,0.2-1.4
		c0.6-0.2,1.2-0.3,1.4-0.8c-0.3-0.5,0.2-1.6-0.4-1.8c-0.6,0.6-1.2,0-1.9,0.3c-0.2,0.9-0.4,1.4-0.5,2.5c0.4,0,0.2-0.4,0.7-0.2
		c0.2,0.6,0.2,1-0.1,1.6c-0.9-0.2-1.6,0.1-2.5-0.1c-0.1-0.5,0-1.3,0.4-1.6c0.4,0,0.5,0.1,0.6,0.4c0.3,0,0.5-0.1,0.7-0.2
		c-0.1-0.2-0.2,0.1-0.4,0c0-0.4,0-0.4,0-0.8c0.1-0.1,0.1-0.2,0.3-0.2c-0.2-1.3,0.7-2.9,0.4-4.2c-0.3,0.1-0.6,0.2-0.9,0
		c0-0.1,0-0.1-0.1-0.1c0.2-0.4,0.2-1,0.4-1.4c0.4-0.3,1.2,0.1,1.7-0.1C308.8,109.8,309,109.7,309,109.9z"/>
	<path class="st0" d="M360.4,109.8c-0.2,1-0.2,2.3-0.6,3.2c-0.3,0.1-0.5,0-0.6-0.2c0.1-0.4,0.3-0.9,0.1-1.3
		c-0.1-0.3-0.6-0.4-0.5-0.8c-0.3,0.1-0.4,0.5-0.6,0.6c0,2.1-0.7,3.1-0.8,4.9c0.3,0,0.6,0,0.9,0c0,0.4,0.1,1.3-0.4,1.6
		c-0.8-0.1-2.1,0.2-2.8-0.2c0-0.5,0.1-1,0.4-1.4c0.2-0.1,0.8-0.1,1,0c0.4-1.5,0.6-3.3,1-4.9c0-0.2-0.4-0.1-0.4-0.4
		c-0.2,0.3-0.6,0.2-0.8,0.4c-0.4,0.4-0.2,1.3-0.6,1.6c-0.2,0-0.2-0.3-0.4-0.4c0.2-1.1,0.4-2.2,0.8-3.1c0.2-0.1,0.8-0.1,0.9,0.1
		c0.2,0,0.2-0.2,0.4-0.2C358.1,109.8,359.6,109.4,360.4,109.8z M358,110.8c0-0.2,0-0.3-0.2-0.3C357.8,110.7,357.8,110.8,358,110.8z"
		/>
	<path class="st0" d="M55.5,58.6c1.1,0.6,1.9,1.5,2.8,2.2c2.7,2.1,4.7,5.4,6.8,8.3c2,2.9,3.2,6.8,4.3,10.7c0.2,0.6,0.4,1.4,0.5,2.1
		c0.1,0.7,0.3,1.4,0.4,2.1c0,0.4-0.1,0.8-0.1,1.1c0.1,0.4,0.4,0.9,0.5,1.2c0.3,1.4,0.2,3.6,0.1,5.3c0,0.9-0.1,1.8-0.2,2.6
		c-0.1,0.9-0.1,1.7-0.2,2.5c-0.1,0.5-0.4,1.1-0.5,1.8c-1,4.2-3.1,7.3-5.3,10.4c-2.2,3.1-4.9,5.3-8.9,6.8c-0.6,0.2-1.2,0.6-1.6,0.6
		c-0.6,0.1-1-0.1-1.4,0.1c-0.3,0.1-0.6,0.3-0.9,0.4c-0.9,0.3-2.5,0.2-3.8,0.1c-1.4-0.1-2.5-0.3-3.5-0.5c-2.1-0.6-4.3-1.2-5.8-2.2
		c-1.7-1.1-3-2.4-4.5-3.5c-0.7-0.6-1.4-1.3-2.1-1.9c-1.1-1.1-1.8-1.7-2.7-2.9c-0.2-0.3-0.9-0.8-0.9-1.1c0-0.5,0.6-1,0.6-1.6
		c0.1-0.9-0.4-2.7-1.1-2.7c-0.9,0-1,1.7-0.8,2.6c0.1,0.6,0.5,1,0.6,1.2c-0.6,2-3,3.3-5,2.1c-0.4-0.2-1.3-1.3-1.3-1.8
		c0-0.6,0.5-1.4,0.4-2.5c-0.1-0.5-0.3-1.4-0.9-1.4c-0.8,0-0.9,1.2-0.9,2c0.1,1.2,0.8,1.6,0.8,2.5c0,0.6-0.5,1.6-0.8,2.4
		c-0.3,0.8-0.6,1.7-0.8,2.4c-0.5,1.8-1.3,3-2,4.3c-1,1.8-2.5,3.5-4.1,5c-0.8,0.7-1.6,1.4-2.5,2c-1,0.6-1.8,1.4-2.8,1.7
		c-0.4,0.1-0.8,0.3-1.3,0.4c-1.2,0.4-2.9,0.3-4.5,0.2c-0.9-0.1-2.1,0.1-2.5-0.8c0.4-0.5,1.1-0.4,1.5-0.5c6.1-1.4,8.9-6,11.3-11.1
		c0.4-0.9,1-1.7,1.4-2.6c0.4-0.9,0.8-1.9,1.1-2.9c0.7-2,1-4.1,1.2-6.4c0.1-1.1,0.4-2.2,0.5-3.3c0.1-1.4,0-3.3,0.6-4.2
		c-0.4-1.2-0.2-3.2-0.2-4.8c0.1-2.5-0.1-4.8-0.4-7.1c-0.2-1.1-0.2-2.3-0.5-3.3c-0.5-1.5-1.4-2.5-1.9-3.9c0-0.2,0.2-0.2,0.4-0.4
		c0.3-0.3,0.6-0.8,0.9-1.1c-1.7-1.9-3-4.9-2.7-8.5c0.1-0.9,0.4-1.9,0.6-2.7c0.5-1.5,1.5-2.8,2.2-3.8c-0.2-0.4-0.4-0.7-0.6-1.1
		c-0.2-0.3-0.8-0.7-0.8-0.9c0-0.2,0.4-0.4,0.7-0.8c0.5-0.6,1.2-1.6,1.5-2.4c0.4-1,0.5-2.5,0.6-3.9c0.6-4.8,0.1-10.6-0.6-15.1
		c-0.5-3-1.3-5.9-2.5-8.4c-0.4-0.8-0.7-1.4-1.2-2.1c-1.1-1.2-2.9-3.1-5.3-2c-0.6,0.3-1.2,1-1.4,1.6c-0.4,1.9,1,3.4,2.9,2.8
		c-1-0.6-1.8-1.1-1.5-2.5c0.4-1.6,2.9-1.2,3.6,0.2c0.4,0.7,0.5,2.1,0,3.1c-0.6,1.2-3.2,2.4-5,1.5c-1.8-0.9-3.1-3.7-2.1-6.4
		c0.7-1.8,2.3-3.2,4.5-3.5c3.1-0.5,5.1,0.9,6.8,2.2c0.8,0.6,1.1,0.9,1.7,1.6c0.7,0.9,1.5,1.9,2,3.1c0.4,0.8,0.5,1.7,0.9,2.4
		c0.8-1.6,1.2-3.5,2.1-5c0.7,0.4,1,1.1,1.5,1.6c0.5,0.6,1,1.2,1.4,1.8c0.8-2.1,1.7-4.3,2.8-6.2c1.1-1.8,2.3-3.8,3.9-5
		c1.8-1.3,3.4-2.7,5.4-3.6c2.2-0.9,4.5-1.4,7.4-1.8c0.4-0.1,1,0,1.5,0.1c1.3,0.2,2.7,0.8,3.9,1.4c1.3,0.6,2.3,1,3.3,1.9
		c0.5,0.4,1.1,0.7,1.5,1.1c0.4,0.4,0.9,0.8,1.3,1.3c0.8,1,1.8,1.8,2.5,2.7c0.7,0.9,1.2,2.2,1.8,3.2c0.6,1.1,1.3,2,1.8,3.1
		c0.4,1,0.6,2.3,0.9,3.6c0.9,3.7,0.9,8.9,0.7,13.2c-0.1,4.2-1.9,7.9-3.3,11c-0.5,1.1-1.2,2.1-1.6,3.1C58.4,55.1,57,56.9,55.5,58.6z
		 M49.9,34.3c3.4-0.6,5.5-4.3,5.9-8.2c0-0.4-0.1-0.8-0.1-1.2c0-0.8,0.1-1.7,0.1-2.4c-0.1-0.9-0.5-2-0.8-2.9
		c-0.8-2.5-1.9-4.1-3.5-5.6c-1.5-1.3-3.8-2.2-6.1-2.4c-0.6,0-1.2-0.1-1.7,0c-3.9,0.4-6.2,2.2-8.3,4.2c-1.2,1.1-1.9,2.3-2.7,3.6
		c-0.4,0.6-0.8,1.2-1.1,2c-0.5,1.2-0.8,2.7-2.2,2.9c1.4,0.3,1.1,1.8,1.4,3.2c0.1,0.6,0.4,1.4,0.6,2.1c0.2,0.7,0.5,1.4,0.7,1.9
		c0.2,0.5,0.8,1.1,0.8,1.5c0,0.4-0.5,0.7-0.8,1.1c-0.4,0.6-0.7,1.5-1.1,2.4c-0.7,1.5-1.3,3.2-1.4,5.2c-0.1,1.4-0.3,2.9-0.2,4.2
		c0.1,1.2,0.5,2.5,0.9,3.7c0.3,1.2,0.7,2.4,1.2,3.4c0.6,1.1,1.5,1.9,2.5,2.6c0.5,0.3,0.8,0.7,1.3,0.9c1,0.5,2.4,0.8,3.6,0.9
		c2,0.2,3.4-0.1,4.6-0.6c0.9-0.4,2.3-1.3,2.9-1.9c2-2.1,2.5-6,2.6-9.6c4-0.8,6.8-2.8,7.3-7.1c-1.6,0.9-4.6,2.2-7.2,1.3
		c-1.2-0.4-3-1.9-3.3-2.8c-0.1-0.4-0.2-1.1-0.3-1.7c-0.1-0.6-0.2-1.4,0.2-1.7C46.3,34.2,48.4,34.5,49.9,34.3z M57.9,31.5
		c-0.8,0.1-1.1,0.7-1.1,1.5c0.7,1,1.9,0.7,2.4,0.1c0.5-0.6,0.8-2.6,0.9-3.5c0.1-1.2-0.1-2.4-0.2-3.1c-0.1-0.5-0.1-1.2-0.6-1.3
		c-0.2,0.1-0.1,0.4-0.2,0.5c-0.1-0.1-0.1-0.4-0.2-0.2C59.5,27.8,58.8,30,57.9,31.5z M24.2,39.8c0.1-0.9,0-2.2-0.5-2.8
		c-0.3-0.4-1.4-1.4-1.8-0.9c0.1,0.8,0.9,1.3,1.2,2.2c0.4,1.7-0.1,3.4-0.6,4.7C23,42.5,24,41.3,24.2,39.8z M23.6,47.1
		c0-0.5-0.6-0.8-0.9-1.2c-1.5-0.6-2.4,1-2.2,2.4c0.1,0.7,0.3,1.9,0.6,2.4c0.2,0.3,0.6,0.5,0.8,0.8c0.6,0.8,1.2,1.7,1.9,2.1
		c-0.5-1.3-1.3-2.4-1.2-4.4c-0.2-0.1-0.5-0.1-0.6-0.2c0-0.3-0.1-0.4-0.1-0.6C22.5,48.5,23.6,47.6,23.6,47.1z M52.7,54
		c0.7-0.4,1-1,1.5-1.6c0.3-0.3,0.6-0.6,0.8-0.9c0.6-1.1,0.9-2.7,0-3.5c-0.5-0.1-1.1-0.5-1.7-0.2c-0.2,0.2-0.3,0.7-0.2,1.1
		c0.3,0.3,0.9,0.3,1.1,0.6C54.4,51.7,53.3,52.9,52.7,54z M22.4,56.5c-0.3-0.1-0.9,0.1-1.4,0.1c0.2,3.6-0.1,7.3-0.4,10.6
		c-0.5-3.2-0.3-6.8-0.4-10.3c-0.8,0.3-1.3,0.8-1.9,1.2c0,1-0.1,1.9-0.4,2.6c-0.3-0.3-0.3-0.9-0.5-1.4c-0.8,1.2-1.2,3.8-0.6,5.6
		c0.1-0.9,0.1-2,0.4-2.7c0.1,1.6,0.2,3.1,0.7,4.3c0.2-1.8-0.3-3.5,0-5.1c0.3,1.6,0.5,3.5,0.9,5c0.1,0.5,0,1.2,0.4,1.6
		c-0.1-1,0.1-2.1,0.1-3.2c0-2.1-0.5-4.3,0.1-6.1c0.1,1.3,0.3,2.7,0.5,3.8c0.3,2.1-0.3,4.3,0.5,6.1c0.5,0.2,0.7,0.6,1.2,0.7
		c0.3-3.4,0-7.3,0.4-10.3c0.4,3.3,0.4,6.9,0.5,10.5c0.6,0,1,0.2,1.7,0.1c0.2-0.8,0.2-1.8,0.5-2.5c0.2,0.8,0.3,1.7,0.7,2.2
		c0.8-1.2,0.4-3.5,0.6-5.2c0.5,1.2,0.1,3.3,0.5,4.6c1.1-0.6,0.2-3.1,0.7-4.1c0.3,0.9,0.2,2.3,0.4,3.4c0.5-0.4,1.3-0.9,1.5-1.6
		c0.3-1,0-2.1,0.4-2.9c0.2,0.5,0.1,1.3,0.3,1.8c0.3-2,0.3-4.1-0.7-5.3c0,1.8-0.2,3.5-0.5,5c-0.3-1.8-0.4-3.8-0.4-5.9
		c-0.2-0.2-0.6-0.9-0.8-0.7c0,1.8,0,3.7-0.4,5.1c-0.3-1.8-0.5-3.7-0.5-5.8c-0.2-0.1-0.3-0.3-0.6-0.4c0,1.4,0,2.7-0.3,3.8
		c0-1.5-0.4-2.7-0.5-4.2c-0.4-0.1-0.8-0.2-1.2-0.4c-0.1,0.2-0.2,0.3-0.4,0.4c0,0.6-0.1,1.3-0.1,1.9c0,0.9,0.1,1.8-0.3,2.4
		C22.8,59.6,22.9,57.4,22.4,56.5z M33.7,64c0.8-0.3,1.1-1,1.9-1.4c0.3-0.7,1.1-1,1.5-1.6c-1.2-0.3-2.3-0.7-3.5-1
		C33.7,61.3,33.9,62.7,33.7,64z M58.5,74.6c-0.1-0.6-0.3-1.1-0.4-1.6c-0.1-0.4,0-0.7-0.1-1.1c-0.1-0.4-0.4-1-0.6-1.5
		c-0.2-0.5-0.3-1.1-0.5-1.6c-0.2-0.5-0.7-1-1.1-1.5c-0.4-0.6-0.7-1.2-1.1-1.5c-0.3-0.3-0.8-0.6-1.2-1c-0.4-0.3-0.8-0.8-1.2-1.1
		c-1.9-1.3-4-2-7.1-1.8c-0.8,0.1-2.4,0.3-3.3,0.6C40.4,63,39.1,64,37.7,65c-1.3,1-2.4,2.1-3.3,3.5c-0.9,1.4-1.9,2.8-2.4,4.4
		c-0.5,1.8-0.8,4-0.6,6.1c0.2,2.3,0.8,3.8,1.9,5.4c0.2,0.3,0.5,0.7,0.9,1.1c0.3,0.3,0.9,0.8,0.9,1.2c0,0.4-0.3,1-0.5,1.4
		c-0.5,1.3-1.3,2.6-1.5,4c-1.4,8.5,1.1,15.1,5.8,18.4c0.5,0.3,0.9,0.7,1.2,0.9c2.9,1.5,7.1,1,9.5-0.4c3.5-1.9,5.6-7.1,4.5-12.4
		c0.4-0.4,0.9-0.4,1.4-0.6c3-1.4,4.9-4,5.5-7.8c-1.1,0.7-2.6,1.5-4.4,1.6c-3.1,0.2-5.4-0.6-6.6-2.1c-0.3-0.4-0.7-0.8-0.8-1.2
		c-0.3-0.8-0.6-2.3-0.2-3.3c0.5,0.8,2.6,1,3.8,0.9c0.9-0.1,1.5-0.6,2.2-1c1.2-0.7,1.3-1.1,2-2.2c0.2-0.4,0.5-0.7,0.6-1.1
		c0.5-1.2,0.3-2.7,0.9-3.8c0.2-0.4,0.9-0.6,0.9-1C58.6,76.6,58.6,75.6,58.5,74.6z M22.9,80.6c0.5-0.1,1.7-0.7,2.2-1.4
		c0.4-0.6,0.5-1.9,0.4-2.9c-0.2-1.1-0.6-2-1.2-2.6c-0.2-0.2-0.6-0.9-1-0.5c0.5,1,1.4,3.4,0.2,4.5c-0.1,0.5,0.2,1.1-0.2,1.2
		c0-1.2-1.9-1.1-2.3-0.4C20.8,79.8,21.7,80.8,22.9,80.6z M62.2,83.3c-0.2,0.3-0.6,0.6-1.1,0.9c-0.3,0.2-1,0.7-0.8,1.2
		c0.1,0.3,0.8,0.4,1.3,0.2c1.7-0.6,2.3-5.5,1.4-7.5C62.7,79.9,63,81.9,62.2,83.3z M23.4,82.6c-2.4,1.3-1.9,7.4,1.7,6.1
		c-0.4-0.6-1-0.5-1.5-1.1c-0.7-0.8-0.8-2.9-0.4-4.1C23.3,83.2,23.7,82.9,23.4,82.6C23.5,82.6,23.5,82.6,23.4,82.6z M56.8,110.3
		c0.8-0.6,1.9-1.3,2.4-2c0.2-0.3,0.4-0.8,0.6-1.1c0.7-1,1.8-1.9,1.9-3.3c0.2-1.5-0.3-2.7-1.5-2.8c-0.9,0-1.9,0.7-1.9,1.4
		c0,0.6,0.5,0.9,0.9,1.1c0.5,3.2-1.5,4.9-2.8,6.6C56.5,110.4,56.6,110.1,56.8,110.3c-0.1,0-0.2,0.1-0.2,0.1
		C56.6,110.6,56.7,110.3,56.8,110.3z"/>
</g>
</svg>
